<svg height="512pt" preserveAspectRatio="xMidYMid meet" viewBox="0 0 512 512" width="512pt" xmlns="http://www.w3.org/2000/svg"><g transform="matrix(.1 0 0 -.1 0 512)"><path d="m2799 4596c-2-2-24-7-49-10-57-6-101-15-120-23-8-3-28-8-45-10-16-3-31-9-33-14s-12-9-23-9c-10 0-19-4-19-9s-6-8-12-8c-21 1-78-24-78-35 0-5-4-6-10-3-5 3-10 1-10-4 0-6-3-10-7-10-22 4-35-3-30-15 4-9 0-12-11-9-9 2-26-3-37-11-11-9-45-34-75-56-30-23-54-45-53-50 2-5-5-6-14-3-13 5-15 2-10-11 4-11 3-15-4-10-6 3-22-6-35-21-13-16-24-24-25-19 0 5-4 0-8-11-5-12-9 26-9 94-2 125-11 153-62 174-20 9-137 12-416 11-214-1-395-2-402-3-8 0-27-14-43-30l-29-29v-1275-1274l24-26c13-14 35-29 48-32 12-3 204-4 425-3l401 3 26 28c14 15 26 33 26 40 1 39 12 128 21 167 18 76 19 79 24 100 3 11 7 28 9 38 3 9 14 46 25 82 11 35 18 66 16 69-3 2 0 10 6 17 6 8 9 21 5 29-3 9-2 13 4 10s10 1 10 9v21c0 3 9 25 20 50s17 45 15 45 3 16 11 35c8 20 12 40 9 45-4 6-2 10 4 10 13 0 44 97 35 111-4 8-3 9 4 5s12-1 12 8c0 27 1 31 15 46 7 8 14 17 14 20s4 18 10 33c6 16 8 34 4 40-3 7-3 9 2 5 13-12 54 85 42 100-7 9-5 11 8 6 15-6 17-3 13 14-3 12-3 20 1 19 3-1 7 3 9 8 2 6 9 17 17 25 7 8 16 26 20 40s16 36 26 49c11 13 19 28 19 33s12 25 26 44c14 18 24 40 21 48-4 10-1 13 8 10 8-3 20 6 29 23 23 42 91 113 139 145 54 36 115 38 150 6 37-35 76-118 103-220 1-5 2-9 4-10 2-4 9-37 14-73 3-16 5-30 6-30 2 0 6-40 15-145 4-47 11-90 16-95 4-6 5-16 1-23-4-6-5-37-2-69s5-91 4-130c-1-52 1-71 10-66 8 5 8 3 0-8-6-8-12-45-12-82-1-37-4-72-7-77-4-6-1-10 5-10s8-4 5-10c-12-19-14-50-4-56 7-4 7-10 0-18-5-6-12-62-15-124-3-63-8-118-11-123-4-5 0-9 7-9 8 0 9-3 3-8-11-7-13-18-19-92-5-72 47-149 97-141 4 0 7-3 7-9s136-10 388-10c335 0 391 2 410 16 12 8 22 12 22 8s9 1 20 11c23 20 54 98 48 117-3 7-1 25 3 41 5 17 4 27-3 27s-7 4-1 13c13 16 12 47-1 47-6 0-4 4 4 10 22 13 22 699 0 726-8 10-10 15-3 11 13-8 12 30-1 51-4 7-3 12 2 12s6 21 1 51c-4 28-11 83-14 122-3 40-8 80-12 91-3 10-7 35-8 55-2 20-6 50-9 66-3 17-9 46-12 65s-8 46-11 60-6 31-6 38c0 6-4 12-9 12s-6 4-3 10c3 5 1 29-6 52-6 24-13 54-16 68-2 13-8 29-14 36-5 6-6 14-2 17 3 4 1 7-6 7s-10 4-7 8c6 9-15 87-27 98-4 4-7 13-7 21 0 23-62 163-70 158-5-3-6 3-4 12 11 41-231 383-259 366-5-3-7-1-4 4 8 12-118 113-139 113-8 0-14 4-14 8 0 14-117 65-130 57-9-5-11-4-6 3 4 7 1 13-8 13-24 2-30 4-41 11-6 3-28 9-50 13s-49 9-60 12c-11 2-67 6-123 9-83 4-102 2-96-8s5-11-8-1c-8 7-17 11-19 9zm-29-180c0-2-8-10-17-17-16-13-17-12-4 4s21 21 21 13zm-275-55c-9-8-36-10-30-2 2 4 11 8 20 8 8 0 13-3 10-6zm300-55c94 18 248 0 335-39 25-11 48-20 53-19 4 1 7-2 7-7s8-12 19-16c20-6 39-21 119-96 28-27 52-52 52-56 0-3 7-13 15-22 23-23 62-86 70-110 3-12 10-19 14-17 4 3 8-1 8-9 0-26 36-95 46-88 6 4 7 1 2-6-4-7-3-23 3-34 17-37 29-69 31-88 0-5 4-8 9-6 4 3 7-8 8-23s5-36 9-46c4-11 9-23 11-29 1-5 8-32 14-60 7-27 15-57 18-65s4-21 3-29c-1-7 2-11 7-8 4 3 6-7 4-24-2-16 0-29 4-29 5 0 9-15 10-33 1-41 6-60 19-69 6-5 5-8-3-8-7 0-10-4-7-10 8-12 13-39 20-104 12-100 15-132 21-206 10-153 13-218 15-345 1-82 6-133 13-137 8-6 8-8 0-8s-12-33-14-97c-2-147-7-213-14-220-5-5-285-7-398-4-12 1-16 8-13 24 10 62 19 277 19 487 1 268-10 428-35 549-5 25-11 57-13 71-6 40-16 78-26 105-5 14-8 25-6 25s-7 26-20 58c-13 31-27 56-31 55-5-1-9 10-10 25 0 14-9 32-19 39s-14 13-10 13c12 0-34 60-83 107-75 73-161 104-274 98-125-7-214-52-327-165-66-67-92-98-133-160-20-30-40-60-44-66-34-47-105-184-96-184 5 0 0-5-9-11-10-5-18-19-18-30s-7-31-16-44-12-30-8-36c4-7 3-9-3-6-5 3-16-9-23-28-8-19-16-35-19-35s-7 176-9 390c-2 336 0 393 13 413 8 13 12 27 8 32-5 4-3 5 4 1 7-3 21 7 34 25 12 18 44 54 69 80 26 27 46 50 44 52-2 1 11 11 27 22 20 14 28 26 25 39-4 14-2 16 6 8s16-7 27 6c9 9 35 30 58 46 24 16 40 33 36 39-3 6-1 7 5 3s29 5 51 19c23 14 43 25 46 25 2 0 30 12 62 27 32 14 65 27 73 28s30 5 48 9c29 7 31 10 20 24-12 16-11 16 7 1 11-9 29-15 40-13zm295 14c0-5-2-10-4-10-3 0-8 5-11 10-3 6-1 10 4 10 6 0 11-4 11-10zm444-38c2-4-4-8-14-8s-16 4-14 8c3 4 9 8 14 8s11-4 14-8zm-1244-26c0-2-8-10-17-17-16-13-17-12-4 4s21 21 21 13zm796-902c1-9 0-13-4-10-3 4-7 14-8 22-1 9 0 13 4 10 3-4 7-14 8-22zm729 6c3-6-1-7-9-4-18 7-21 14-7 14 6 0 13-4 16-10zm-734-327c13-16 12-17-3-4-17 13-22 21-14 21 2 0 10-8 17-17zm9-57c0-2-8-10-17-17-16-13-17-12-4 4s21 21 21 13zm831-383c13-16 12-17-3-4-17 13-22 21-14 21 2 0 10-8 17-17zm-1795-28c-1-8-5-17-8-21-5-4-4 16 1 34 3 9 9-1 7-13zm955-92c13-16 12-17-3-4-17 13-22 21-14 21 2 0 10-8 17-17zm200-40c13-16 12-17-3-4-17 13-22 21-14 21 2 0 10-8 17-17zm689-17c0-2-8-10-17-17-16-13-17-12-4 4s21 21 21 13zm-763-531c0-8-4-12-9-9s-6 10-3 15c9 13 12 11 12-6z"/><path d="m3140 1337c-37-12-72-45-255-239l-111-117-157 162c-86 89-169 167-184 174-50 21-104 24-159 8-47-13-64-28-186-157-75-79-147-156-161-173l-26-30-158 162c-167 172-200 195-279 195-91 0-119-24-429-357-20-22-66-70-101-106l-64-67 122-113c67-63 134-126 148-142 15-15 32-27 37-27s45 39 89 86c43 47 106 115 139 150l60 65 153-159c85-87 169-167 189-176 57-27 118-29 174-5 48 21 65 38 324 313l37 40 157-162c167-172 196-192 278-192 91 1 131 33 375 297l56 62 49-52c26-29 79-88 118-132 174-200 215-223 348-193 37 9 99 69 287 280 107 121 204 231 215 244l20 25-51 47c-27 26-86 78-130 117-43 38-90 80-104 93l-24 23-36-38c-19-22-64-72-100-113-36-40-84-94-107-119l-41-45-44 49c-23 27-54 60-66 74-13 14-47 53-75 86-144 167-209 199-327 162z"/></g></svg>