<?xml version="1.0" standalone="no"?>
<!DOCTYPE svg PUBLIC "-//W3C//DTD SVG 20010904//EN"
 "http://www.w3.org/TR/2001/REC-SVG-20010904/DTD/svg10.dtd">
<svg version="1.0" xmlns="http://www.w3.org/2000/svg"
 width="512.000000pt" height="512.000000pt" viewBox="0 0 512.000000 512.000000"
 preserveAspectRatio="xMidYMid meet">
<metadata>
Created by potrace 1.11, written by Peter Selinger 2001-2013
</metadata>
<g transform="translate(0.000000,512.000000) scale(0.100000,-0.100000)"
fill="#000000" stroke="none">
<path d="M826 5000 c-48 -24 -67 -44 -85 -88 -16 -39 -16 -56 -6 -602 14 -721
8 -2163 -10 -2348 -8 -85 33 -157 107 -186 33 -14 106 -16 505 -16 320 0 478
4 504 11 59 18 95 63 119 149 12 41 23 84 24 95 3 22 65 240 99 350 11 39 22
73 23 78 1 4 3 9 4 12 1 3 3 8 4 13 1 4 13 39 26 77 13 39 25 75 26 80 3 13
43 124 54 150 5 11 26 63 46 115 20 52 44 111 53 130 10 19 36 73 57 120 21
47 58 118 81 158 24 41 43 76 43 78 0 15 124 178 179 235 150 154 259 157 340
9 23 -44 62 -151 77 -219 17 -71 18 -74 29 -166 4 -33 9 -68 10 -77 25 -131
25 -768 0 -943 -4 -30 -11 -106 -21 -237 -7 -76 5 -120 41 -161 49 -56 64 -57
574 -56 330 0 475 4 498 12 44 16 82 52 98 91 46 110 52 931 10 1316 -3 30 -8
75 -11 100 -2 25 -9 72 -14 105 -5 33 -12 78 -15 100 -13 88 -41 223 -61 291
-8 28 -17 62 -19 74 -3 13 -14 51 -25 85 -11 34 -22 70 -24 81 -11 52 -117
290 -172 383 -34 59 -102 158 -133 196 -48 58 -212 214 -232 220 -10 4 -19 10
-19 15 0 5 -9 12 -21 15 -12 4 -36 17 -55 30 -73 50 -255 112 -383 132 -60 9
-293 10 -351 1 -101 -16 -151 -27 -270 -64 -62 -18 -236 -107 -314 -159 -32
-22 -66 -44 -75 -50 -21 -13 -130 -104 -155 -128 -10 -10 -20 -16 -23 -13 -3
2 -6 71 -7 153 -3 170 -11 196 -78 241 l-42 27 -485 2 c-467 3 -488 2 -525
-17z m2324 -339 c115 -31 150 -47 248 -109 65 -42 189 -164 228 -227 10 -16
21 -32 24 -35 13 -12 130 -242 130 -255 0 -4 7 -21 14 -38 15 -33 56 -150 61
-177 2 -8 4 -15 5 -15 1 0 3 -7 5 -15 2 -8 15 -60 29 -115 14 -55 28 -113 30
-130 3 -16 8 -40 10 -52 3 -11 7 -43 11 -70 8 -54 10 -73 19 -123 10 -60 15
-105 21 -171 3 -35 8 -98 12 -139 7 -77 9 -827 2 -868 l-3 -22 -256 2 -255 3
1 30 c1 17 5 75 9 130 4 55 9 123 11 150 5 98 6 531 0 590 -3 33 -8 93 -11
132 -3 40 -8 80 -9 90 -2 10 -7 43 -11 73 -4 30 -9 64 -11 75 -2 11 -6 31 -9
45 -11 57 -14 72 -31 127 -23 80 -25 85 -80 198 -76 158 -205 276 -341 312
-47 12 -215 9 -263 -6 -168 -51 -332 -186 -469 -386 -22 -33 -44 -64 -49 -70
-43 -54 -252 -472 -252 -504 0 -8 -3 -11 -7 -8 -3 4 -6 225 -6 491 l0 485 39
48 c21 26 43 54 49 62 35 46 286 291 299 291 3 0 33 19 68 43 176 120 362 175
573 172 66 -1 140 -8 165 -14z"/>
<path d="M3270 1124 c-43 -20 -95 -66 -250 -224 l-197 -199 -199 196 c-222
218 -247 235 -354 236 -111 1 -138 -17 -361 -243 -108 -110 -199 -200 -203
-200 -4 0 -89 81 -190 180 -234 232 -259 248 -371 245 -101 -3 -137 -26 -306
-197 -83 -84 -216 -219 -296 -299 l-144 -146 28 -26 c15 -14 44 -41 64 -59 19
-18 71 -64 114 -103 43 -38 102 -91 129 -117 l51 -48 183 185 c160 161 186
184 200 173 8 -7 97 -93 196 -191 109 -107 198 -186 224 -198 61 -30 147 -36
213 -14 49 16 73 37 262 227 l209 209 170 -168 c219 -216 207 -205 248 -230
79 -49 189 -48 274 2 23 13 125 110 228 214 l186 190 103 -112 c57 -61 119
-127 137 -146 178 -191 214 -214 322 -214 114 -1 166 35 353 244 44 48 162
175 344 368 l62 66 -28 25 c-15 14 -49 43 -75 65 -26 22 -57 49 -70 60 -12 11
-46 40 -76 65 -30 25 -70 60 -89 78 -49 44 -68 49 -90 20 -21 -26 -34 -40
-180 -197 -58 -62 -117 -124 -130 -136 l-23 -23 -37 41 c-20 23 -57 64 -83 92
-25 27 -65 70 -88 95 -191 207 -239 240 -345 240 -43 0 -75 -7 -115 -26z"/>
</g>
</svg>
