<?xml version="1.0" encoding="UTF-8" standalone="no"?><!DOCTYPE svg PUBLIC "-//W3C//DTD SVG 1.1//EN" "http://www.w3.org/Graphics/SVG/1.1/DTD/svg11.dtd"><svg width="100%" height="100%" viewBox="0 0 212 44" version="1.1" xmlns="http://www.w3.org/2000/svg" xmlns:xlink="http://www.w3.org/1999/xlink" xml:space="preserve" xmlns:serif="http://www.serif.com/" style="fill-rule:evenodd;clip-rule:evenodd;stroke-linejoin:round;stroke-miterlimit:2;"><path d="M212,8c0,-4.415 -3.585,-8 -8,-8l-196,0c-4.415,0 -8,3.585 -8,8l0,28c0,4.415 3.585,8 8,8l196,0c4.415,0 8,-3.585 8,-8l0,-28Z" style="fill:#b1eed7;stroke:#b1eed7;stroke-width:1px;"/><path d="M60.438,15.227l-0.001,11.273l1.407,0l0,-4.023l2.836,0c2.117,0 3.625,-1.493 3.625,-3.602c0,-2.148 -1.477,-3.648 -3.61,-3.648l-4.258,0Zm1.407,1.25l2.484,0c1.633,0 2.531,0.851 2.531,2.398c0,1.492 -0.929,2.352 -2.531,2.352l-2.484,0l0,-4.75Zm11.5,10.171c2.398,0 3.883,-1.656 3.883,-4.359c0,-2.711 -1.484,-4.359 -3.883,-4.359c-2.398,0 -3.883,1.648 -3.883,4.359c0,2.703 1.485,4.359 3.883,4.359Zm0,-1.211c-1.594,0 -2.492,-1.156 -2.492,-3.148c0,-2 0.898,-3.148 2.492,-3.148c1.594,0 2.492,1.148 2.492,3.148c0,1.992 -0.898,3.148 -2.492,3.148Zm15.954,-7.359l-1.352,0l-1.656,6.734l-0.125,0l-1.883,-6.734l-1.289,0l-1.883,6.734l-0.125,0l-1.656,-6.734l-1.36,0l2.36,8.422l1.359,0l1.875,-6.516l0.125,0l1.883,6.516l1.367,0l2.36,-8.422Zm4.523,1.039c1.336,0 2.227,0.985 2.258,2.477l-4.641,0c0.102,-1.492 1.04,-2.477 2.383,-2.477Zm2.219,5.203c-0.352,0.742 -1.086,1.141 -2.172,1.141c-1.43,0 -2.359,-1.055 -2.43,-2.719l0,-0.062l6.055,0l0,-0.516c0,-2.617 -1.383,-4.234 -3.656,-4.234c-2.313,0 -3.797,1.718 -3.797,4.367c0,2.664 1.461,4.351 3.797,4.351c1.844,0 3.156,-0.89 3.547,-2.328l-1.344,0Zm3.243,2.18l1.343,0l0,-5.219c0,-1.187 0.93,-2.047 2.211,-2.047c0.266,0 0.75,0.047 0.86,0.079l0,-1.344c-0.172,-0.024 -0.454,-0.039 -0.672,-0.039c-1.117,0 -2.086,0.578 -2.336,1.398l-0.125,0l0,-1.25l-1.281,0l0,8.422Zm8.898,-7.383c1.336,0 2.227,0.985 2.258,2.477l-4.641,0c0.102,-1.492 1.04,-2.477 2.383,-2.477Zm2.219,5.203c-0.352,0.743 -1.086,1.141 -2.172,1.141c-1.43,0 -2.359,-1.055 -2.43,-2.719l0,-0.062l6.055,0l0,-0.516c0,-2.617 -1.383,-4.234 -3.656,-4.234c-2.313,0 -3.797,1.718 -3.797,4.367c0,2.664 1.461,4.351 3.797,4.351c1.844,0 3.156,-0.89 3.547,-2.328l-1.344,0Zm6.36,2.328c1.164,0 2.164,-0.554 2.695,-1.492l0.125,0l0,1.344l1.281,0l0,-11.766l-1.343,0l0,4.672l-0.118,0c-0.476,-0.922 -1.468,-1.476 -2.64,-1.476c-2.141,0 -3.539,1.718 -3.539,4.359c0,2.649 1.382,4.359 3.539,4.359Zm0.312,-7.507c1.524,0 2.477,1.218 2.477,3.148c0,1.945 -0.946,3.149 -2.477,3.149c-1.539,0 -2.461,-1.18 -2.461,-3.149c0,-1.961 0.93,-3.148 2.461,-3.148Zm14.462,7.507c2.133,0 3.531,-1.726 3.531,-4.359c0,-2.648 -1.391,-4.359 -3.531,-4.359c-1.156,0 -2.18,0.57 -2.641,1.476l-0.125,0l0,-4.672l-1.344,0l0,11.766l1.282,0l0,-1.344l0.125,0c0.531,0.938 1.531,1.492 2.703,1.492Zm-0.313,-7.507c1.539,0 2.453,1.179 2.453,3.148c0,1.969 -0.914,3.149 -2.453,3.149c-1.531,0 -2.484,-1.204 -2.484,-3.149c0,-1.945 0.953,-3.148 2.484,-3.148Zm6.04,10.406c1.492,0 2.164,-0.578 2.882,-2.531l3.29,-8.938l-1.43,0l-2.305,6.93l-0.125,0l-2.312,-6.93l-1.453,0l3.117,8.43l-0.157,0.5c-0.351,1.015 -0.773,1.383 -1.546,1.383c-0.188,0 -0.399,-0.008 -0.563,-0.039l0,1.148c0.188,0.031 0.422,0.047 0.602,0.047Zm17.391,-3.047l3.898,-11.273l-2.148,0l-2.813,8.921l-0.132,0l-2.836,-8.921l-2.227,0l3.938,11.273l2.32,0Zm8.016,-7.18c1.164,0 1.93,0.813 1.969,2.078l-4.024,0c0.086,-1.25 0.899,-2.078 2.055,-2.078Zm1.984,4.828c-0.281,0.633 -0.945,0.985 -1.906,0.985c-1.273,0 -2.094,-0.891 -2.141,-2.313l0,-0.101l5.969,0l0,-0.625c0,-2.696 -1.461,-4.313 -3.898,-4.313c-2.477,0 -4.016,1.727 -4.016,4.477c0,2.75 1.516,4.414 4.031,4.414c2.016,0 3.446,-0.969 3.797,-2.524l-1.836,0Zm3.547,2.352l1.938,0l0,-4.937c0,-1.196 0.875,-1.977 2.133,-1.977c0.328,0 0.843,0.055 0.992,0.109l0,-1.797c-0.18,-0.054 -0.524,-0.085 -0.805,-0.085c-1.101,0 -2.023,0.625 -2.258,1.468l-0.132,0l0,-1.328l-1.868,0l0,8.547Zm13.501,-5.672c-0.203,-1.797 -1.532,-3.047 -3.727,-3.047c-2.57,0 -4.078,1.649 -4.078,4.422c0,2.813 1.516,4.469 4.086,4.469c2.164,0 3.508,-1.203 3.719,-2.992l-1.844,0c-0.203,0.89 -0.875,1.367 -1.883,1.367c-1.32,0 -2.117,-1.047 -2.117,-2.844c0,-1.773 0.789,-2.797 2.117,-2.797c1.063,0 1.703,0.594 1.883,1.422l1.844,0Zm5.117,-1.508c1.164,0 1.93,0.813 1.969,2.078l-4.024,0c0.086,-1.25 0.899,-2.078 2.055,-2.078Zm1.985,4.828c-0.282,0.633 -0.946,0.985 -1.907,0.985c-1.273,0 -2.093,-0.891 -2.14,-2.313l0,-0.101l5.968,0l0,-0.625c0,-2.696 -1.461,-4.313 -3.898,-4.313c-2.477,0 -4.016,1.727 -4.016,4.477c0,2.75 1.516,4.414 4.032,4.414c2.015,0 3.445,-0.969 3.796,-2.524l-1.835,0Zm3.625,2.352l1.937,0l0,-11.852l-1.937,0l0,11.852Z" style="fill:#005c4c;fill-rule:nonzero;"/><path d="M23.325,13l9.325,16l-18.65,0l9.325,-16Z" style="fill:#005c4c;fill-rule:nonzero;"/><path d="M43.5,0l0,44" style="fill:none;fill-rule:nonzero;stroke:#169c7d;stroke-width:1px;stroke-linejoin:miter;stroke-miterlimit:4;"/></svg>