<?xml version="1.0" encoding="UTF-8" standalone="no"?><!DOCTYPE svg PUBLIC "-//W3C//DTD SVG 1.1//EN" "http://www.w3.org/Graphics/SVG/1.1/DTD/svg11.dtd"><svg width="100%" height="100%" viewBox="0 0 884 184" version="1.1" xmlns="http://www.w3.org/2000/svg" xmlns:xlink="http://www.w3.org/1999/xlink" xml:space="preserve" xmlns:serif="http://www.serif.com/" style="fill-rule:evenodd;clip-rule:evenodd;stroke-linejoin:round;stroke-miterlimit:2;"><path d="M883.333,33.333c0,-18.395 -14.937,-33.333 -33.333,-33.333l-816.667,0c-18.395,0 -33.333,14.938 -33.333,33.333l0,116.667c0,18.396 14.938,33.333 33.333,33.333l816.667,0c18.396,0 33.333,-14.937 33.333,-33.333l0,-116.667Z" style="fill:#169c7d;stroke:#169c7d;stroke-width:4.17px;"/><path d="M251.825,63.446l-0.004,46.971l5.862,-0l0,-16.763l11.817,0c8.821,0 15.104,-6.221 15.104,-15.008c0,-8.95 -6.154,-15.2 -15.041,-15.2l-17.742,-0l0.004,-0Zm5.862,5.208l10.35,0c6.805,0 10.546,3.546 10.546,9.992c0,6.217 -3.871,9.8 -10.546,9.8l-10.35,-0l0,-19.792Zm47.917,42.379c9.992,0 16.179,-6.9 16.179,-18.162c0,-11.296 -6.183,-18.163 -16.179,-18.163c-9.992,0 -16.179,6.867 -16.179,18.163c-0,11.262 6.187,18.162 16.179,18.162Zm0,-5.045c-6.642,-0 -10.383,-4.817 -10.383,-13.117c-0,-8.333 3.741,-13.117 10.383,-13.117c6.642,0 10.383,4.784 10.383,13.117c0,8.3 -3.741,13.117 -10.383,13.117Zm66.475,-30.663l-5.633,0l-6.9,28.058l-0.521,0l-7.846,-28.058l-5.371,0l-7.846,28.058l-0.52,0l-6.9,-28.058l-5.667,0l9.833,35.092l5.663,-0l7.812,-27.15l0.521,-0l7.846,27.15l5.696,-0l9.833,-35.092Zm18.846,4.329c5.567,0 9.279,4.104 9.408,10.321l-19.337,0c0.425,-6.217 4.333,-10.321 9.929,-10.321Zm9.246,21.679c-1.467,3.092 -4.525,4.755 -9.05,4.755c-5.959,-0 -9.829,-4.396 -10.125,-11.33l-0,-0.258l25.229,0l-0,-2.15c-0,-10.904 -5.763,-17.642 -15.233,-17.642c-9.638,0 -15.821,7.159 -15.821,18.196c-0,11.1 6.087,18.129 15.821,18.129c7.683,0 13.15,-3.708 14.779,-9.7l-5.6,0Zm13.512,9.084l5.596,-0l0,-21.746c0,-4.946 3.875,-8.529 9.213,-8.529c1.108,-0 3.125,0.196 3.583,0.329l-0,-5.6c-0.717,-0.1 -1.892,-0.163 -2.8,-0.163c-4.654,0 -8.692,2.409 -9.733,5.825l-0.521,0l-0,-5.208l-5.338,0l0,35.092Zm37.075,-30.763c5.567,0 9.279,4.104 9.409,10.321l-19.338,0c0.425,-6.217 4.333,-10.321 9.929,-10.321Zm9.246,21.679c-1.467,3.096 -4.525,4.755 -9.05,4.755c-5.958,-0 -9.829,-4.396 -10.125,-11.33l0,-0.258l25.229,0l0,-2.15c0,-10.904 -5.762,-17.642 -15.233,-17.642c-9.638,0 -15.821,7.159 -15.821,18.196c0,11.1 6.088,18.129 15.821,18.129c7.683,0 13.15,-3.708 14.779,-9.7l-5.6,0Zm26.5,9.7c4.85,0 9.017,-2.308 11.229,-6.216l0.521,-0l0,5.6l5.338,-0l-0,-49.025l-5.596,-0l-0,19.466l-0.492,0c-1.983,-3.841 -6.117,-6.15 -11,-6.15c-8.921,0 -14.746,7.159 -14.746,18.163c0,11.037 5.759,18.162 14.746,18.162Zm1.3,-31.279c6.35,0 10.321,5.075 10.321,13.117c-0,8.104 -3.942,13.121 -10.321,13.121c-6.412,-0 -10.254,-4.917 -10.254,-13.121c-0,-8.171 3.875,-13.117 10.254,-13.117Zm60.258,31.279c8.888,0 14.713,-7.191 14.713,-18.162c-0,-11.033 -5.796,-18.163 -14.713,-18.163c-4.816,0 -9.083,2.375 -11.004,6.15l-0.521,0l0,-19.466l-5.6,-0l0,49.025l5.342,-0l0,-5.6l0.521,-0c2.212,3.908 6.379,6.216 11.262,6.216Zm-1.304,-31.279c6.413,0 10.221,4.913 10.221,13.117c0,8.204 -3.808,13.121 -10.221,13.121c-6.379,-0 -10.35,-5.017 -10.35,-13.121c0,-8.104 3.971,-13.117 10.35,-13.117Zm25.167,43.359c6.217,-0 9.017,-2.409 12.008,-10.546l13.709,-37.242l-5.959,0l-9.604,28.875l-0.521,0l-9.633,-28.875l-6.054,0l12.987,35.125l-0.654,2.083c-1.462,4.23 -3.221,5.763 -6.442,5.763c-0.783,-0 -1.662,-0.034 -2.345,-0.163l-0,4.784c0.783,0.129 1.758,0.195 2.508,0.195Zm72.462,-12.695l16.242,-46.971l-8.95,-0l-11.721,37.171l-0.55,-0l-11.816,-37.171l-9.28,-0l16.409,46.971l9.666,-0Zm33.4,-29.917c4.85,0 8.042,3.387 8.205,8.658l-16.767,0c0.358,-5.208 3.746,-8.658 8.562,-8.658Zm8.267,20.117c-1.171,2.637 -3.937,4.104 -7.942,4.104c-5.304,-0 -8.725,-3.713 -8.92,-9.638l-0,-0.421l24.87,0.001l0,-2.605c0,-11.233 -6.087,-17.97 -16.241,-17.97c-10.321,-0 -16.734,7.195 -16.734,18.654c0,11.458 6.317,18.391 16.796,18.391c8.4,0 14.359,-4.037 15.821,-10.516l-7.65,-0Zm14.779,9.8l8.075,-0l0,-20.571c0,-4.984 3.646,-8.238 8.888,-8.238c1.366,0 3.512,0.23 4.133,0.455l0,-7.488c-0.75,-0.225 -2.183,-0.354 -3.354,-0.354c-4.588,-0 -8.429,2.604 -9.408,6.117l-0.55,-0.001l-0,-5.533l-7.784,0l0,35.613Zm56.254,-23.634c-0.845,-7.487 -6.383,-12.695 -15.529,-12.695c-10.708,-0.001 -16.991,6.87 -16.991,18.424c-0,11.721 6.316,18.621 17.025,18.621c9.016,0 14.616,-5.012 15.495,-12.466l-7.683,-0c-0.846,3.708 -3.646,5.695 -7.846,5.695c-5.5,0.001 -8.821,-4.362 -8.821,-11.85c0,-7.387 3.288,-11.654 8.821,-11.654c4.429,0 7.096,2.475 7.846,5.925l7.683,0Zm21.321,-6.283c4.85,0 8.042,3.387 8.204,8.658l-16.766,0c0.358,-5.208 3.746,-8.658 8.562,-8.658Zm8.271,20.117c-1.175,2.637 -3.942,4.104 -7.946,4.104c-5.304,-0 -8.721,-3.713 -8.916,-9.638l-0,-0.421l24.866,0.001l0,-2.605c0,-11.233 -6.087,-17.97 -16.241,-17.97c-10.321,-0 -16.734,7.195 -16.734,18.654c0,11.458 6.317,18.391 16.8,18.391c8.396,0 14.354,-4.037 15.817,-10.516l-7.646,-0Zm15.104,9.8l8.071,-0l0,-49.384l-8.071,0l0,49.384Z" style="fill:#005c4c;fill-rule:nonzero;"/><path d="M97.188,54.167l38.854,66.666l-77.709,0l38.855,-66.666Z" style="fill:#005c4c;fill-rule:nonzero;"/><path d="M181.25,0l0,183.333" style="fill:none;fill-rule:nonzero;stroke:#005c4c;stroke-width:4.17px;stroke-linejoin:miter;stroke-miterlimit:4;"/></svg>