<svg clip-rule="evenodd" fill-rule="evenodd" stroke-linejoin="round" stroke-miterlimit="2" viewBox="0 0 1354 839" xmlns="http://www.w3.org/2000/svg"><path d="m0 .923h1353.87v837.823h-1353.87z" fill="none"/><path d="m1135.94 664.614v58.891c-9.799-3.438-17.65-11.703-20.097-22.573-.444-1.972-.691-3.943-.736-5.89v-1.288c.095-12.984 8.358-24.777 20.833-29.14zm72.884 9.109.218 38.257-20.806 4.684-.244-42.766-.206-21.197 20.789-4.681zm-949.822-179.18c19.346.622 36.233 14.846 39.605 34.683l.222 1.691c-2.461 9.903-9.994 17.806-19.68 20.803.17-11.546-1.087-19.037-1.08-18.999-1.929-11.336-12.698-18.973-24.033-17.044-11.335 1.928-18.972 12.697-17.044 24.032l-.045-.255s.958 5.396.815 13.57h-20.666c.072-5.916-.642-9.821-.642-9.821-3.857-22.67 11.432-44.119 34.088-48.065 2.77-.482 5.524-.676 8.232-.595z" fill="#3b86a4"/><path d="m101.283 753.509c-4.707 12.132-5.717 21.107-5.717 21.107-2.171 21.445-20.278 37.456-41.377 37.472h-.033l-4.241-.214c-19.027-1.926-33.776-16.396-36.829-34.378 2.131-11.736 11.279-21.034 22.935-23.399-2.099 8.749-2.635 14.198-2.637 14.224-1.158 11.44 7.189 21.668 18.629 22.826s21.668-7.19 22.826-18.629c.007-.078.016-.155.024-.232 0 0 .819-7.637 4.388-18.777z" fill="#5e3a42"/><path d="m848.846 497.99c4.612 1.023 8.052 5.142 8.052 10.064v9.214c-37.863 18.738-63.917 57.784-63.917 102.868s26.054 84.131 63.917 102.869v22.818c-49.227-19.921-84.104-67.94-84.711-124.126l-.012-2.638c.399-53.28 31.605-99.284 76.671-121.069zm8.052 72.157v99.979c-12.824-12.782-20.765-30.466-20.765-49.99s7.941-37.208 20.765-49.989zm411.128-409.104-42.548 66.788c-5.24-3.148-8.66-4.978-8.66-4.978-2.462-1.419-4.077-3.978-4.754-6.737-.678-2.76-.199-5.676 1.326-8.074l30.894-48.576c2.835-4.459 8.736-6.613 13.423-4.044l4.928 2.675z" fill="#de5b1e"/><path d="m801.033 177.017 17.21-20.833h51.252l19.726 20.511c-.783.224-1.605.323-2.446.322z" fill="#83d22c" fill-opacity=".85"/><path d="m1032.11 198.939-14.604 20.833h-42.311l-17.931-20.833z" fill="#5b8b1f"/><path d="m534.375 494.543c0-5.753-4.664-10.417-10.417-10.417-46.378 0-88.365 18.798-118.758 49.191-30.392 30.393-49.191 72.38-49.191 118.758 0 46.347 18.813 88.335 49.213 118.735 30.401 30.401 72.389 49.213 118.736 49.213s88.335-18.812 118.736-49.213c30.4-30.4 49.213-72.388 49.213-118.735 0-22.272-4.424-44.087-12.785-64.272-8.36-20.184-20.658-38.738-36.406-54.486-4.068-4.068-10.664-4.068-14.732 0l-55.696 55.696c-4.068 4.068-4.068 10.663 0 14.731 6.409 6.409 11.414 13.96 14.816 22.174 3.403 8.215 5.203 17.093 5.203 26.157 0 18.861-7.658 35.947-20.03 48.319-12.371 12.372-29.458 20.03-48.319 20.03s-35.948-7.658-48.319-20.03c-12.372-12.372-20.03-29.458-20.03-48.319 0-18.875 7.65-35.962 20.019-48.331 12.368-12.368 29.456-20.019 48.33-20.019 5.753 0 10.417-4.663 10.417-10.416zm-20.834 10.782c-36.473 2.549-69.282 18.396-93.609 42.723-26.623 26.623-43.089 63.402-43.089 104.027 0 40.597 16.481 77.375 43.111 104.004 26.629 26.629 63.407 43.111 104.004 43.111s77.375-16.482 104.004-43.111c26.63-26.629 43.111-63.407 43.111-104.004 0-19.509-3.875-38.618-11.198-56.299-6.015-14.521-14.356-28.079-24.788-40.099l-41.137 41.137c5.114 6.468 9.276 13.585 12.402 21.132 4.44 10.718 6.789 22.302 6.789 34.129 0 24.61-9.989 46.907-26.132 63.05-16.143 16.144-38.44 26.132-63.051 26.132s-46.908-9.988-63.051-26.132c-16.143-16.143-26.132-38.44-26.132-63.05 0-24.628 9.982-46.923 26.121-63.062 13.83-13.829 32.18-23.138 52.645-25.512zm674.45 168.573.244 42.766-35.042 7.89c-5.348.923-10.069.814-15.356-.411l-1.898-.638v-58.891c1.138-.421 2.315-.761 3.525-1.033l48.321-10.88zm20.583-25.878 65.017-14.639c16.827-3.789 33.563 6.796 37.352 23.622 3.788 16.826-6.797 33.563-23.623 37.351l-78.279 17.626-.218-38.257zm-952.185-153.477c.798-.024 1.593-.024 2.384 0h-2.384c-1.934.057-3.887.254-5.848.595-22.656 3.946-37.945 25.395-34.088 48.065s.714 3.905.642 9.821h-127.869c-16.138 0-29.24-13.103-29.24-29.241s13.102-29.24 29.24-29.24zm-18.628 58.481c.143-8.174-.815-13.57-.815-13.57l.045.255c-1.928-11.335 5.709-22.104 17.044-24.032 11.335-1.929 22.104 5.708 24.033 17.044-.007-.038 1.25 7.453 1.08 18.999-2.732.848-5.636 1.304-8.646 1.304zm238.29-279.904c-4.167-6.488-7.947-13.371-11.416-20.52-34.561-71.217-38.721-168.865-39.121-200.619h58.714c.384 28.223 3.406 105.214 24.22 155.218 6.387 15.344 14.531 28.146 24.487 37.055zm324.982-96.103h-5.056c-3.233.007-6.287-1.488-8.264-4.046-1.977-2.559-2.654-5.89-1.833-9.017 0 0 21.569-81.877 91.598-123.683 36.44-21.754 85.966-32.992 152.44-15.898 4.604 1.184 7.822 5.335 7.822 10.088v64.627c0 2.82-1.143 5.52-3.169 7.482-2.025 1.962-4.76 3.019-7.578 2.93 0 0-52.89-1.792-92.59 18.014-17.407 8.685-32.334 21.631-37.531 41.698-.98 3.786-3.967 6.631-7.651 7.483l-19.726-20.511h9.675c8.237-21.963 25.508-37.122 45.932-47.312 32.466-16.197 72.867-19.487 91.805-20.096v-46.114c-55.617-12.564-97.564-3.121-128.75 15.497-46.466 27.739-69.112 75.169-77.76 98.025h7.846z" fill="#7adfb5" fill-opacity=".85"/><path d="m101.283 753.509h148.259c16.166 0 29.29 13.124 29.29 29.29 0 16.165-13.124 29.289-29.29 29.289h-195.353c21.099-.016 39.206-16.027 41.377-37.472 0 0 1.01-8.975 5.717-21.107zm-22.032 0c-3.569 11.14-4.388 18.777-4.388 18.777-.008.077-.017.154-.024.232-1.158 11.439-11.386 19.787-22.826 18.629s-19.787-11.386-18.629-22.826c.002-.026.538-5.475 2.637-14.224 1.891-.386 3.847-.588 5.85-.588zm769.595-255.519c17.807-8.616 37.792-13.447 58.895-13.447 74.837 0 135.594 60.757 135.594 135.593s-60.757 135.594-135.594 135.594c-17.983 0-35.153-3.509-50.843-9.907v-22.818c15.325 7.62 32.589 11.892 50.843 11.892 63.338 0 114.761-51.423 114.761-114.761s-51.423-114.76-114.761-114.76c-18.254 0-35.518 4.271-50.843 11.892v-9.214c0-4.922-3.44-9.041-8.052-10.064zm8.052 72.157c12.777-12.741 30.397-20.619 49.843-20.619 38.97 0 70.609 31.638 70.609 70.608s-31.639 70.609-70.609 70.609c-19.446 0-37.066-7.878-49.843-20.619zm49.843.214c27.472 0 49.776 22.303 49.776 49.775s-22.304 49.776-49.776 49.776c-27.471 0-49.775-22.304-49.775-49.776s22.304-49.775 49.775-49.775zm-491.885-539.689c-5.8 0-10.535 4.639-10.653 10.438 0 0-2.5 130.617 41.261 220.794 24.379 50.237 62.85 87.951 122.076 87.951 59.25 0 97.731-37.791 122.108-88.122 43.729-90.285 41.229-221.006 41.229-221.006-.118-5.818-4.883-10.465-10.702-10.438l-82.624.383c-2.954.014-5.77 1.253-7.775 3.423-2.005 2.169-3.02 5.073-2.801 8.02 0 0 5.934 78.924-10.187 137.813-4.162 15.2-9.761 29.034-17.581 39.466-7.882 10.517-18.101 17.344-31.667 17.344-9.921 0-17.932-4.854-24.609-12.468-9.787-11.159-16.765-27.784-22.042-46.279-16.8-58.878-15.389-136.478-15.389-136.478.05-2.858-1.05-5.616-3.053-7.654-2.003-2.039-4.742-3.187-7.6-3.187h-79.991zm61.195 242.448c-4.167-6.488-7.947-13.371-11.416-20.52-34.561-71.217-38.721-168.865-39.121-200.619h58.714c.384 28.223 3.406 105.214 24.22 155.218 6.337 15.225 14.404 27.946 24.254 36.845l.233.21c9.771 8.776 21.293 13.793 34.605 13.793 29.186 0 49.096-19.59 61.603-48.677 21.426-49.826 20.761-128.29 19.653-157.441l60.769-.281c-.403 31.838-4.573 129.52-39.095 200.797-20.722 42.785-52.563 76.101-102.93 76.101-41.59 0-70.55-22.686-91.007-54.669zm740.526-50.411c-14.417-8.275-42.909-24.593-59.428-33.819-46.146-25.774-34.053-72.812-32.131-78.534 4.49-13.372 28.438-64.922 42.491-79.594 6.81-7.109 39.247-39.152 108.283-7.476 23.644 10.849 68.923 30.603 68.923 30.603 2.755 1.202 4.857 3.536 5.765 6.401s.534 5.983-1.026 8.553l-36.752 60.534c-2.749 4.527-8.457 6.271-13.267 4.053 0 0-55.404-25.551-68.523-31.542-22.317-10.194-41.88-7.871-56.921-1.924 4.689 8.299 13.202 16.841 27.546 24.745l61.098 33.388-4.928-2.675c-4.687-2.569-10.588-.415-13.423 4.044l-30.894 48.576c-1.525 2.398-2.004 5.314-1.326 8.074.655 2.668 2.186 5.149 4.513 6.593l.393.226c.696.374 3.73 2.023 8.306 4.772-.794-.457-3.835-2.206-8.306-4.772-.101-.054-.152-.082-.152-.082-.082-.047-.162-.095-.241-.144zm-47.542-143.067c18.906-6.959 43.089-9.239 70.533 3.295 9.937 4.539 44.111 20.288 60.149 27.683l25.753-42.417c-14.974-6.564-41.893-18.424-58.366-25.982-48.056-22.049-70.059-5.159-73.267-2.848-9.296 6.695-24.596 35.472-24.802 40.269z" fill="#f5624d"/><path d="m1115.11 695.042c.045 1.947.292 3.918.736 5.89 2.447 10.87 10.298 19.135 20.097 22.573v70.146h51.525c.046-.915.088-1.894.125-2.928.416-11.475.774-33.144.646-74.059l20.806-4.684c.182 44.395-.197 67.486-.632 79.496-.275 7.598-.594 11.093-.808 12.702-.264 1.979-.58 2.843-.72 3.239-.848 2.407-1.785 3.227-2.151 3.632-1.71 1.89-3.065 2.354-3.671 2.61-1.074.455-1.8.582-2.139.646-.424.08-.691.106-.797.118-.06.007-.09.009-.09.009-.345.035-.691.052-1.037.052h-71.473c-5.753 0-10.417-4.663-10.417-10.416zm-1037.11-48.517 20.857 10.44c-42.232 30.151-57.588 74.582-62.835 97.132-11.656 2.364-20.809 11.663-22.935 23.399-.671-3.636-.82-7.42-.43-11.273 0 0 6.847-71.927 65.343-119.698zm65.689 32.88 26.133 13.081c-42.126 10.495-60.643 40.347-68.538 61.023h-22.032c6.792-21.531 23.727-56.142 64.437-74.104zm971.477-99.13 20.774-.037v84.376c-12.476 4.367-20.742 16.159-20.833 29.14v-146.886zm-816.337-49.358c1.371 10.685 6.786 69.834-32.322 114.038-4.433 5.011-9.429 9.882-15.081 14.482l-20.884-10.454c8.027-5.416 14.733-11.471 20.362-17.833 23.389-26.437 27.996-59.175 28.245-79.43 9.687-2.997 17.227-10.898 19.68-20.803zm909.746 117.103-20.789 4.681-.702-72.553 20.834-.037zm-970.813-94.996c-.211 13.263-3.31 33.84-18.065 50.517-8.124 9.182-19.822 16.92-36.254 21.868l-29.614-14.823c3.535-.806 7.178-1.523 10.912-2.16 18.734-3.197 31.43-9.735 39.353-18.69 10.717-12.113 12.899-27.08 13.002-36.712zm719.502-354.185 17.931 20.833h-20.693c-8.236 21.963-25.508 37.122-45.932 47.312-32.466 16.197-72.866 19.486-91.805 20.096v46.114c55.617 12.564 97.565 3.121 128.751-15.497 46.465-27.739 69.112-75.169 77.759-98.025h-5.769l14.604-20.833h5.586c3.233-.007 6.286 1.488 8.263 4.046 1.978 2.558 2.655 5.89 1.833 9.017 0 0-21.568 81.877-91.597 123.683-36.44 21.754-85.966 32.992-152.441 15.898-4.604-1.184-7.822-5.335-7.822-10.088v-64.627c0-2.82 1.143-5.52 3.169-7.482s4.76-3.019 7.579-2.93c0 0 52.889 1.792 92.59-18.014 17.407-8.685 32.334-21.631 37.53-41.698 1.192-4.6 5.345-7.811 10.098-7.805h10.366zm-941.773 141.468-.027-.194v-291.913c0-5.753 5.341-10.417 11.929-10.417h81.853c6.529 0 11.845 4.582 11.928 10.283l.399 39.828c-8.416 9.533-16.264 20.021-23.542 31.174l-.599-60.452h-58.209v189.711c-16.333 50.395-23.588 89.903-23.588 89.903l-.144 2.077zm82.839-10.611c.053-.915.101-1.894.144-2.928.62-14.953 1.129-47.215.459-116.825l-.502-50.642c4.792-8.505 10.35-18.465 15.799-26.987 2.464-3.854 5.028-7.612 7.674-11.272l.887 88.726c.179 18.537.273 34.447.296 48.106-10.299 30.643-17.349 58.517-20.526 71.822z" fill="#6396dc"/><path d="m772.187 621.697c.616 56.185 35.485 104.204 84.711 124.126v58.244c0 5.709-4.627 10.337-10.336 10.337 0 0-52.294.143-64.961.08-4.902-.024-10.212-3.756-10.252-10.799-.013-2.339.36-5.465.56-16.363.351-19.099.657-60.26.356-148.976zm84.711-104.429v52.879c-12.824 12.781-20.765 30.465-20.765 49.989s7.941 37.208 20.765 49.99v52.879c-37.863-18.738-63.917-57.785-63.917-102.869s26.054-84.13 63.917-102.868zm-84.723 101.791c-.199-56.583-.437-84.284-.617-97.846-.172-12.866-.291-12.928-.291-12.928-.062-2.781.999-5.469 2.944-7.458 1.944-1.989 4.609-3.11 7.39-3.11h64.961c.786 0 1.553.088 2.284.273-45.072 21.792-76.278 67.792-76.671 121.069zm495.851-458.016s39.709 18.742 61.203 47.004c8.875 11.669 14.574 25.243 12.831 37.53-1.556 10.969-9.19 22.336-24.461 32.635 13.318 17.277 20.405 35.511 16.834 51.968-2.537 11.696-10.224 23.028-25.945 32.616-11.482 7.003-33.702 8.166-59.287 4.982-53.738-6.689-123.613-29.819-123.613-29.819-4.01-1.329-6.819-4.947-7.114-9.161l-5.742-82.118c-.237-3.386 1.191-6.674 3.826-8.814 2.635-2.139 6.147-2.86 9.412-1.933 0 0 74.81 21.274 129.749 28.111 7.63.95 14.858 1.625 21.409 1.902-18.78-17.552-40.06-31.232-51.65-38.115l11.18-17.55c14.794 9.332 44.363 29.201 67.007 52.138 10.368-6.4 15.778-12.785 16.768-19.768.722-5.089-1.006-10.141-3.845-15.1-3.585-6.261-8.976-12.273-15.06-17.891-14.933-13.79-34.051-25.11-44.762-30.942zm-133.489 98.809 4.228 60.458c18.264 5.753 70.779 21.538 113.009 26.794 12.684 1.578 24.386 2.222 33.77 1.182 4.93-.546 9.106-1.453 12.097-3.277 9.01-5.495 14.287-11.434 16.145-18.085 2.163-7.743-.326-15.94-4.864-24.224-3.059-5.585-7.087-11.152-11.728-16.602-1.501.208-3.068.376-4.698.5-10.565.806-24.257-.002-39.35-1.88-41.394-5.152-93.808-18.284-118.609-24.866zm-1095.21 66.923c6.897-31.081 25.523-104.375 59.108-167.474l.91 78.267c.669 69.61-1.011 92.128-1.011 92.128h-59.678zm57.406-205.765c-25.529 39.526-44.462 87.024-57.506 127.317v-189.711h58.209l.599 60.452zm792.493 55.685 7.065 7.346 36.935-41.025c4.005-4.448 9.73-6.959 15.715-6.892 5.986.067 11.653 2.705 15.558 7.242l30.652 35.614 24.905-35.526 34.118 23.918-22.06 31.467h-74.846l-8.912-10.355-36.079 40.074c-3.871 4.3-9.356 6.796-15.14 6.891-5.785.095-11.349-2.219-15.359-6.389l-37.487-38.979-32.69 39.573-32.123-26.536 21.56-26.101h85.742c.841.001 1.663-.098 2.446-.322zm128.284 42.977-3.617 5.159c-3.691 5.265-9.605 8.53-16.026 8.849s-12.63-2.345-16.824-7.217l-5.844-6.791zm-199.262-63.488 8.801-10.653c3.782-4.58 9.34-7.326 15.276-7.551 5.935-.224 11.684 2.097 15.801 6.378l11.374 11.826z" fill="#e9ee14"/><path d="m251.425 659.437 17.655 8.837-29.577 59.09-69.682-34.878c2.858-.758 5.842-1.386 8.939-1.915 32.044-5.469 55.406-17.054 72.665-31.134zm-67.983-34.028 47.099 23.574c-14.003 9.503-32.02 17.081-55.286 21.052-11.861 2.024-22.335 5.255-31.567 9.37l-44.832-22.44c17.849-12.848 40.566-23.083 69.389-28.003 5.469-.933 10.528-2.122 15.197-3.553zm-29.614-14.823c-31.911 7.096-56.672 20.195-75.829 35.939l-16.365-8.191 29.577-59.09zm1033.26-30.438-51.144.09v-41.767h50.74zm-61.535-62.511h.005c21.694-.001 69.457-.003 69.457-.003v-39.377h127.646v62.5h-65.146v39.266l-49.593.088-.506-52.191c-.073-5.7-4.715-10.283-10.415-10.283zm-1003.98-429.743c28.457-32.467 63.246-54.211 104.583-54.211 57.017 0 90.204 40.438 108.294 93.559 30.382 89.214 17.753 213.932 17.753 213.932-.544 5.314-5.02 9.356-10.363 9.356h-84.984c-2.986 0-5.829-1.282-7.806-3.52-1.977-2.237-2.899-5.216-2.532-8.179 0 0 8.929-71.692 2.109-128.371-2.189-18.198-5.906-34.802-12.461-46.464-4.449-7.915-10.125-13.381-18.379-13.381-8.977 0-17.11 5.669-24.93 14.003-10.525 11.216-20.018 27.328-28.493 45.177-25.186 53.047-43.072 130.386-43.072 130.386.245-1.609.71-5.061 1.025-12.659.46-11.09.865-31.626.77-69.648 8.95-26.763 20.384-55.638 33.844-78.765 8.705-14.958 18.302-27.576 28.489-36.127 10.179-8.544 21.081-13.201 32.367-13.201 12.563 0 22.693 5.513 30.657 15.285 7.791 9.561 13.448 23.694 17.12 40.346 10.506 47.629 5.477 116.961 2.864 144.284h63.837c2.195-29.769 6.706-124.552-17.536-195.738-15.04-44.164-41.17-79.442-88.573-79.442-43.172 0-77.275 28.461-104.252 66.526z" fill="#ff8b86" fill-opacity=".85"/><path d="m230.541 648.983 20.884 10.454c-17.259 14.08-40.621 25.665-72.665 31.134-3.097.529-6.081 1.157-8.939 1.915l-26.133-13.081c9.232-4.115 19.706-7.346 31.567-9.37 23.266-3.971 41.283-11.549 55.286-21.052zm-76.713-38.397 29.614 14.823c-4.669 1.431-9.728 2.62-15.197 3.553-28.823 4.92-51.54 15.155-69.389 28.003l-20.857-10.44c19.149-15.748 43.908-28.857 75.829-35.939zm1043.3-92.948c5.639.071 10.21 4.626 10.282 10.282l.506 52.191-20.834.037-.404-41.677h-50.74v41.767l-20.774.037-.059-33.407v-18.814c0-1.431.288-2.794.812-4.033l.248-.467.7-1.289 1.272-1.553c.444-.449.93-.856 1.461-1.201l.134-.109.228-.122.613-.392.739-.331.225-.12.138-.042c.576-.25 1.186-.43 1.816-.553l2.056-.205-1.472.146 1.447-.146h71.473zm-80.963 5.916-.248.467.007-.022zm1.896-2.75-1.196 1.461.019-.035zm-1078.84-193.593-.571 2.485h59.678c3.176-13.305 14.458-41.179 24.757-71.822.095 38.022-.31 58.558-.77 69.648-.315 7.598-.781 11.1-1.033 12.709-.084.533-.093.532-.151.817-.076.369-.184.806-.298 1.206-.114.402-.431 1.189-.431 1.189-.238.585-.538 1.187-.862 1.706-.365.586-.755 1.07-1.043 1.349-.303.295-.412.429-1.038 1.007-.295.273-.647.554-.787.658-1.388 1.022-2.381 1.329-2.801 1.499-1.196.463-2.041.612-2.43.675-.485.08-.781.114-.903.126-.069.006-.107.01-.107.01s-.361.032-.625.043c-.187.008-.562.014-.562.014h-81.853c-2.382 0-4.545-.636-6.359-1.691-1.652-.961-3.016-2.267-3.979-3.804-.527-.841-.929-1.751-1.203-2.698-.253-.875-.329-1.655-.345-1.846l-.018-.218c-.025-.327-.002-1.013.077-1.618.02-.149.043-.293.069-.425 1.94-9.698 8.593-43.395 23.588-89.903zm58.808-208.143c7.275-11.146 15.115-21.632 23.542-31.174l.331 33.148c-2.646 3.66-5.193 7.43-7.674 11.272-5.61 8.684-15.799 26.987-15.799 26.987z" fill="#636690"/><path d="m39.222 327.211v-78.884l.1-.318c13.044-40.293 31.877-87.473 57.406-126.999l1.302-1.942.4 40.233-.031.06c-33.628 63.126-52.18 136.318-59.077 167.414z" fill="#e79f2a"/></svg>