<svg clip-rule="evenodd" fill-rule="evenodd" stroke-linejoin="round" stroke-miterlimit="2" viewBox="0 0 267 96" xmlns="http://www.w3.org/2000/svg"><g fill-rule="nonzero"><path d="m2.292 2.083v23.75h1.25c13.75 0 33.333 7.5 33.333 22.084 0 14.583-20 22.083-33.333 22.083h-1.25v23.75h1.25c28.333 0 57.916-18.75 57.916-45.833 0-27.5-28.75-45.417-56.666-45.834z"/><path d="m106.875 2.083v23.75h1.25c13.75 0 33.333 7.5 33.333 22.084 0 14.583-20 22.083-33.333 22.083h-1.25v23.75h1.25c28.333 0 57.917-18.75 57.917-45.833 0-27.5-28.75-45.417-56.667-45.834z"/><path d="m261.875 2.083c-27.5.417-56.667 18.334-56.667 45.834 0 27.083 29.584 45.833 57.917 45.833h1.25v-23.75h-1.25c-13.333 0-33.333-7.5-33.333-22.083 0-15 19.583-22.084 33.333-22.084h1.25v-23.75z"/></g></svg>