<svg clip-rule="evenodd" fill-rule="evenodd" stroke-linejoin="round" stroke-miterlimit="2" viewBox="0 0 5646 3425" xmlns="http://www.w3.org/2000/svg"><path d="m1.276.625h5641.11v3490.93h-5641.11z" fill="none"/><g fill="#f4f651"><path d="m4734.36 2766v245.378c-40.832-14.325-73.543-48.763-83.741-94.053-1.85-8.217-2.877-16.428-3.064-24.541v-5.365c.397-54.101 34.823-103.238 86.805-121.419zm303.683 37.953.906 159.404-86.69 19.519-1.018-178.194-.856-88.32 86.621-19.504zm-3957.59-746.583c80.605 2.591 150.967 61.862 165.018 144.515l.925 7.043c-10.252 41.265-41.642 74.192-81.998 86.68.709-48.107-4.529-79.32-4.502-79.163-8.036-47.231-52.905-79.052-100.136-71.017-47.23 8.036-79.052 52.905-71.016 100.135l-.188-1.064s3.992 22.485 3.397 56.542h-86.108c.3-24.65-2.677-40.918-2.677-40.918-16.071-94.461 47.635-183.831 142.033-200.271 11.543-2.01 23.016-2.82 34.3-2.482z"/><path d="m423.289 3136.4c-19.613 50.551-23.821 87.945-23.821 87.945-9.045 89.354-84.49 156.07-172.403 156.135h-.139l-17.671-.891c-79.277-8.025-140.734-68.319-153.454-143.241 8.878-48.902 46.995-87.643 95.562-97.498-8.744 36.452-10.977 59.158-10.987 59.268-4.825 47.666 29.956 90.282 77.621 95.107 47.666 4.825 90.282-29.956 95.107-77.622.032-.322.067-.643.103-.964 0 0 3.411-31.824 18.281-78.239z"/><path d="m3538.14 2071.73c19.216 4.264 33.551 21.425 33.551 41.933v38.392c-157.766 78.075-266.323 240.77-266.323 428.619 0 187.85 108.557 350.545 266.323 428.619v95.076c-205.116-83.005-350.435-283.081-352.963-517.191l-.051-10.991c1.661-222.001 131.687-413.684 319.463-504.457zm33.551 300.654v416.581c-53.435-53.258-86.524-126.941-86.524-208.291 0-81.349 33.089-155.032 86.524-208.29zm1713.03-1704.6-177.28 278.281c-21.837-13.116-36.087-20.74-36.087-20.74-10.258-5.912-16.986-16.575-19.809-28.073s-.826-23.65 5.528-33.64l128.724-202.4c11.815-18.578 36.401-27.554 55.928-16.85l20.534 11.147z"/></g><path d="m3338.92 734.349 71.707-86.805h213.549l82.191 85.461c-3.26.933-6.686 1.349-10.191 1.344z" fill="#f8f89a" fill-opacity=".85"/><path d="m4301.73 825.688-60.853 86.806h-176.295l-74.71-86.806z" fill="#f4f651"/><path d="m2227.84 2057.37c0-23.971-19.432-43.403-43.402-43.403-193.241 0-368.187 78.326-494.824 204.962-126.636 126.637-204.962 301.583-204.962 494.824 0 193.112 78.384 368.063 205.053 494.732 126.67 126.67 301.62 205.054 494.733 205.054 193.112 0 368.063-78.384 494.732-205.054 126.67-126.669 205.054-301.62 205.054-494.732 0-92.798-18.432-183.695-53.268-267.797-34.837-84.102-86.077-161.409-151.695-227.027-16.95-16.949-44.431-16.949-61.381 0l-232.066 232.067c-16.95 16.95-16.95 44.431 0 61.381 26.704 26.704 47.557 58.165 61.734 92.392 14.177 34.226 21.678 71.218 21.678 108.984 0 78.588-31.909 149.781-83.458 201.33s-122.742 83.459-201.33 83.459c-78.589 0-149.782-31.91-201.331-83.459s-83.458-122.742-83.458-201.33c0-78.642 31.876-149.84 83.413-201.376 51.536-51.537 122.733-83.413 201.376-83.413 23.97 0 43.402-19.432 43.402-43.403zm-86.805 44.928c-151.972 10.617-288.674 76.647-390.04 178.012-110.928 110.928-179.538 264.173-179.538 433.443 0 169.155 68.674 322.396 179.629 433.351 110.955 110.956 264.196 179.629 433.352 179.629 169.155 0 322.396-68.673 433.351-179.629 110.955-110.955 179.629-264.196 179.629-433.351 0-81.286-16.145-160.908-46.66-234.578-25.062-60.504-59.817-116.994-103.281-167.081l-171.405 171.405c21.306 26.951 38.649 56.606 51.674 88.051 18.499 44.659 28.286 92.926 28.286 142.203 0 102.545-41.62 195.448-108.883 262.711s-160.166 108.883-262.711 108.883c-102.546 0-195.448-41.62-262.712-108.883-67.263-67.263-108.883-160.166-108.883-262.711 0-102.613 41.592-195.512 108.838-262.757 57.622-57.623 134.081-96.409 219.354-106.301zm2810.21 702.384 1.018 178.194-146.01 32.876c-22.281 3.846-41.953 3.392-63.982-1.713l-7.907-2.661v-245.378c4.739-1.756 9.645-3.17 14.686-4.305l201.339-45.333zm85.765-107.824 270.905-60.997c70.108-15.785 139.844 28.318 155.629 98.427 15.786 70.109-28.317 139.844-98.426 155.63l-326.165 73.439-.906-159.404zm-3967.44-639.488c3.326-.1 6.637-.099 9.932 0h-9.932c-8.058.237-16.196 1.059-24.368 2.482-94.398 16.44-158.104 105.81-142.033 200.271s2.977 16.268 2.677 40.918h-532.789c-67.243 0-121.836-54.593-121.836-121.836s54.593-121.835 121.836-121.835zm-77.616 243.671c.595-34.057-3.397-56.542-3.397-56.542l.188 1.064c-8.036-47.23 23.786-92.099 71.016-100.135 47.231-8.035 92.1 23.786 100.136 71.017-.027-.157 5.211 31.056 4.502 79.163-11.385 3.534-23.486 5.433-36.026 5.433zm992.875-1166.27c-17.364-27.032-33.116-55.713-47.57-85.498-144.001-296.738-161.335-703.607-163-835.915h244.639c1.6 117.597 14.192 438.392 100.917 646.744 26.612 63.934 60.545 117.274 102.029 154.392zm1354.09-400.428h-21.069c-13.472.029-26.194-6.201-34.433-16.86-8.239-10.66-11.06-24.541-7.637-37.571 0 0 89.869-341.153 381.657-515.346 151.833-90.642 358.191-137.466 635.167-66.241 19.184 4.933 32.594 22.228 32.594 42.035v269.279c0 11.75-4.765 22.998-13.204 31.174-8.44 8.176-19.834 12.58-31.579 12.207 0 0-220.373-7.467-385.791 75.061-72.529 36.185-134.724 90.127-156.377 173.74-4.085 15.776-16.531 27.63-31.881 31.178l-82.191-85.461h40.315c34.318-91.514 106.281-154.675 191.381-197.132 135.275-67.489 303.612-81.195 382.521-83.733v-192.144c-231.736-52.349-406.517-13.003-536.459 64.571-193.607 115.58-287.967 313.206-323.998 408.438h32.691z" fill="#fafab5" fill-opacity=".85"/><path d="m423.289 3136.4h617.747c67.355 0 122.039 54.685 122.039 122.04 0 67.356-54.684 122.04-122.039 122.04h-813.971c87.913-.065 163.358-66.781 172.403-156.135 0 0 4.208-37.394 23.821-87.945zm-91.801 0c-14.87 46.415-18.281 78.239-18.281 78.239-.036.321-.071.642-.103.964-4.825 47.666-47.441 82.447-95.107 77.622-47.665-4.825-82.446-47.441-77.621-95.107.01-.11 2.243-22.816 10.987-59.268 7.88-1.61 16.031-2.45 24.377-2.45zm3206.65-1064.66c74.196-35.897 157.464-56.029 245.396-56.029 311.818 0 564.974 253.156 564.974 564.973 0 311.818-253.156 564.974-564.974 564.974-74.929 0-146.472-14.618-211.845-41.279v-95.076c63.853 31.753 135.787 49.549 211.845 49.549 263.908 0 478.168-214.26 478.168-478.168s-214.26-478.168-478.168-478.168c-76.058 0-147.992 17.797-211.845 49.549v-38.392c0-20.508-14.335-37.669-33.551-41.933zm33.551 300.654c53.235-53.087 126.654-85.912 207.679-85.912 162.375 0 294.203 131.827 294.203 294.202s-131.828 294.203-294.203 294.203c-81.025 0-154.444-32.825-207.679-85.912zm207.679.893c114.465 0 207.397 92.932 207.397 207.397 0 114.466-92.932 207.398-207.397 207.398-114.466 0-207.398-92.932-207.398-207.398 0-114.465 92.932-207.397 207.398-207.397zm-2049.52-2248.7c-24.167 0-43.894 19.331-44.385 43.492 0 0-10.419 544.237 171.918 919.975 101.579 209.32 261.875 366.464 508.652 366.464 246.874 0 407.211-157.461 508.783-367.175 182.203-376.19 171.787-920.857 171.787-920.857-.492-24.242-20.344-43.605-44.59-43.492l-344.269 1.594c-12.309.057-24.042 5.222-32.396 14.261-8.355 9.039-12.582 21.141-11.671 33.417 0 0 24.728 328.85-42.446 574.221-17.339 63.334-40.669 120.975-73.251 164.444-32.845 43.819-75.422 72.266-131.947 72.266-41.34 0-74.716-20.226-102.54-51.95-40.779-46.495-69.853-115.768-91.841-192.828-70-245.326-64.118-568.662-64.118-568.662.208-11.906-4.376-23.397-12.723-31.891s-19.756-13.279-31.664-13.279zm254.982 1010.2c-17.364-27.032-33.116-55.713-47.57-85.498-144.001-296.738-161.335-703.607-163-835.915h244.639c1.6 117.597 14.192 438.392 100.917 646.744 26.405 63.435 60.016 116.441 101.058 153.52l.971.872c40.714 36.568 88.719 57.474 144.188 57.474 121.608 0 204.565-81.627 256.679-202.82 89.273-207.609 86.503-534.544 81.887-656.006l253.205-1.172c-1.679 132.659-19.055 539.668-162.896 836.654-86.344 178.271-219.015 317.089-428.875 317.089-173.291 0-293.958-94.527-379.196-227.787zm3085.52-210.045c-60.07-34.479-178.787-102.47-247.617-140.914-192.275-107.39-141.886-303.38-133.879-327.226 18.708-55.713 118.494-270.504 177.048-331.638 28.373-29.622 163.528-163.134 451.18-31.151 98.515 45.202 287.179 127.513 287.179 127.513 11.48 5.008 20.236 14.731 24.019 26.67s2.225 24.93-4.275 35.636c0 0-153.134 252.225-153.134 252.225-11.453 18.863-35.237 26.13-55.277 16.889 0 0-230.85-106.461-285.511-131.427-92.992-42.473-174.504-32.793-237.175-8.016 19.54 34.581 55.01 70.174 114.776 103.106l254.575 139.117-20.534-11.147c-19.527-10.704-44.113-1.728-55.928 16.85l-128.724 202.4c-6.354 9.99-8.351 22.142-5.528 33.64 2.73 11.119 9.111 21.457 18.805 27.473l1.64.941c2.899 1.559 15.539 8.431 34.606 19.884-3.306-1.903-15.977-9.191-34.606-19.884-.421-.226-.636-.341-.636-.341-.339-.195-.674-.395-1.004-.6zm-198.092-596.115c78.778-28.995 179.54-38.495 293.888 13.733 41.404 18.91 183.795 84.531 250.622 115.344l107.304-176.738c-62.39-27.351-174.555-76.764-243.19-108.256-200.233-91.873-291.914-21.496-305.279-11.87-38.736 27.898-102.486 147.803-103.345 167.787z" fill="#f6f67d"/><path d="m4647.55 2892.79c.187 8.113 1.214 16.324 3.064 24.541 10.198 45.29 42.909 79.728 83.741 94.053v292.276h214.685c.192-3.812.367-7.892.523-12.201 1.731-47.811 3.225-138.097 2.691-308.577l86.69-19.519c.76 184.982-.821 281.192-2.632 331.236-1.146 31.658-2.475 46.221-3.368 52.925-1.098 8.246-2.417 11.846-2.997 13.493-3.535 10.033-7.44 13.449-8.963 15.133-7.127 7.877-12.772 9.809-15.299 10.879-4.475 1.895-7.497 2.424-8.91 2.69-1.767.332-2.878.444-3.322.492-.249.027-.373.039-.373.039-1.437.144-2.88.216-4.324.216h-297.804c-23.97 0-43.402-19.432-43.402-43.403zm-4321.28-202.154 86.905 43.5c-175.968 125.628-239.95 310.759-261.814 404.716-48.567 9.851-86.702 48.594-95.562 97.498-2.793-15.151-3.415-30.918-1.79-46.972 0 0 28.528-299.699 272.261-498.742zm273.703 136.999 108.89 54.504c-175.527 43.729-252.682 168.113-285.576 254.263h-91.801c28.301-89.712 98.862-233.925 268.487-308.767zm4047.82-413.04 86.559-.154v351.565c-51.985 18.196-86.426 67.329-86.805 121.419v-612.028zm-3401.41-205.661c5.713 44.522 28.276 290.977-134.674 475.158-18.472 20.879-39.285 41.176-62.836 60.344l-87.02-43.557c33.447-22.569 61.389-47.796 84.842-74.306 97.456-110.154 116.652-246.561 117.69-330.959 40.361-12.487 71.777-45.407 81.998-86.68zm3790.61 487.93-86.621 19.504-2.927-302.305 86.808-.154zm-4045.05-395.817c-.88 55.262-13.795 141.001-75.272 210.488-33.849 38.26-82.592 70.503-151.06 91.116l-123.389-61.761c14.728-3.36 29.907-6.345 45.466-9 78.059-13.323 130.958-40.561 163.97-77.874 44.655-50.474 53.745-112.835 54.177-152.969zm2997.93-1475.77 74.71 86.805h-86.22c-34.318 91.515-106.281 154.675-191.382 197.132-135.274 67.489-303.612 81.195-382.52 83.733v192.144c231.736 52.349 406.517 13.003 536.459-64.571 193.607-115.58 287.967-313.206 323.997-408.438h-24.039l60.853-86.805h23.272c13.472-.029 26.194 6.201 34.432 16.86 8.239 10.66 11.061 24.541 7.638 37.571 0 0-89.869 341.153-381.657 515.346-151.833 90.642-358.191 137.466-635.168 66.241-19.183-4.933-32.593-22.228-32.593-42.035v-269.279c0-11.75 4.764-22.998 13.204-31.174s19.834-12.58 31.578-12.207c0 0 220.373 7.467 385.792-75.061 72.528-36.185 134.724-90.127 156.377-173.74 4.964-19.169 22.271-32.547 42.072-32.522zm-3924.06 589.45-.115-.807v-1216.31c0-23.971 22.255-43.403 49.706-43.403h341.054c27.203 0 49.352 19.094 49.702 42.845l1.659 165.951c-35.067 39.719-67.766 83.423-98.088 129.892l-2.5-251.883h-242.537v790.461c-68.054 209.981-98.281 374.599-98.281 374.599l-.6 8.651zm345.162-44.21c.219-3.812.42-7.892.598-12.201 2.583-62.303 4.706-196.73 1.916-486.771l-2.095-211.008c19.967-35.438 43.127-76.937 65.829-112.447 10.267-16.057 20.951-31.717 31.977-46.968l3.697 369.693c.743 77.238 1.137 143.528 1.231 200.444-42.91 127.678-72.288 243.819-85.524 299.258z" fill="#f4f651"/><path d="m3218.72 2587.18c2.563 234.105 147.854 434.183 352.963 517.191v242.684c0 23.786-19.283 43.069-43.07 43.069 0 0-217.889.598-270.669.336-20.428-.102-42.55-15.653-42.716-44.997-.056-9.746 1.499-22.771 2.333-68.181 1.461-79.576 2.737-251.083 1.481-620.73zm352.963-435.123v220.329c-53.435 53.258-86.524 126.941-86.524 208.29 0 81.35 33.089 155.033 86.524 208.291v220.328c-157.766-78.074-266.323-240.769-266.323-428.619 0-187.849 108.557-350.544 266.323-428.619zm-353.014 424.132c-.83-235.766-1.822-351.183-2.573-407.694-.713-53.606-1.21-53.864-1.21-53.864-.26-11.587 4.161-22.79 12.264-31.077 8.103-8.286 19.204-12.958 30.794-12.958h270.669c3.278 0 6.47.366 9.519 1.136-187.802 90.803-317.826 282.469-319.463 504.457zm2066.04-1908.4s165.457 78.09 255.015 195.849c36.978 48.621 60.724 105.18 53.462 156.374-6.484 45.706-38.294 93.068-101.92 135.979 55.489 71.988 85.017 147.962 70.142 216.533-10.573 48.734-42.603 95.95-108.105 135.899-47.844 29.18-140.425 34.028-247.031 20.759-223.909-27.869-515.055-124.244-515.055-124.244-16.705-5.537-28.413-20.614-29.64-38.171l-23.926-342.158c-.987-14.107 4.962-27.81 15.941-36.724 10.979-8.913 25.613-11.919 39.216-8.054 0 0 311.709 88.638 540.623 117.128 31.793 3.957 61.91 6.772 89.203 7.926-78.248-73.137-166.915-130.135-215.206-158.815 0 0 46.584-73.124 46.584-73.124 61.638 38.884 184.843 121.673 279.196 217.24 43.197-26.665 65.738-53.269 69.866-82.367 3.008-21.2-4.193-42.25-16.024-62.917-14.935-26.087-37.398-51.133-62.747-74.542-62.222-57.458-141.878-104.625-186.509-128.927zm-556.203 411.705 17.615 251.907c76.1 23.97 294.916 89.74 470.872 111.64 52.849 6.578 101.609 9.257 140.707 4.927 20.545-2.275 37.942-6.054 50.404-13.655 37.544-22.897 59.529-47.641 67.272-75.356 9.013-32.261-1.357-66.415-20.264-100.933-12.747-23.271-29.531-46.464-48.869-69.173-6.255.868-12.783 1.565-19.576 2.083-44.02 3.359-101.069-.007-163.957-7.834-172.474-21.465-390.867-76.185-494.204-103.606zm-4563.4 278.844c28.739-129.506 106.347-434.897 246.283-697.808l3.792 326.113c2.79 290.041-4.211 383.867-4.211 383.867h-248.659zm239.195-857.352c-106.373 164.689-185.262 362.599-239.612 530.484v-790.461h242.537l2.5 251.883zm3302.05 232.017 29.438 30.609 153.894-170.935c16.688-18.536 40.542-28.998 65.482-28.719 24.939.278 48.554 11.27 64.824 30.174l127.716 148.393 103.771-148.026 142.159 99.658-91.915 131.113h-311.858l-37.134-43.146-150.331 166.977c-16.129 17.915-38.981 28.316-63.083 28.713-24.103.396-47.285-9.248-63.995-26.622l-156.196-162.411-136.208 164.887-133.848-110.568 89.837-108.753h357.256c3.505.005 6.931-.411 10.191-1.344zm534.516 179.072-15.07 21.498c-15.377 21.935-40.02 35.541-66.775 36.87-26.754 1.328-52.624-9.77-70.098-30.073l-24.352-28.295zm-830.256-264.533 36.668-44.388c15.762-19.081 38.919-30.526 63.65-31.46 24.731-.933 48.685 8.734 65.841 26.572l47.39 49.276z" fill="#fcfbcd"/><path d="m1048.88 2744.43 73.562 36.82-123.237 246.21-290.342-145.327c11.909-3.158 24.34-5.774 37.246-7.977 133.518-22.788 230.856-71.059 302.771-129.726zm-283.265-141.785 196.245 98.228c-58.343 39.592-133.413 71.17-230.356 87.715-49.421 8.435-93.064 21.896-131.531 39.041l-186.798-93.499c74.372-53.533 169.026-96.181 289.121-116.678 22.786-3.889 43.866-8.843 63.319-14.807zm-123.389-61.761c-132.963 29.567-236.133 84.145-315.956 149.746l-68.186-34.13 123.237-246.209zm4305.23-126.827-213.098.378v-174.031h211.417zm-256.397-260.459.022-.002c90.394-.005 289.406-.014 289.406-.014v-164.07h531.856v260.416h-271.44v163.609l-206.639.366-2.106-217.46c-.305-23.751-19.646-42.845-43.399-42.845zm-4183.23-1790.6c118.572-135.28 263.526-225.879 435.764-225.879 237.57 0 375.848 168.491 451.225 389.829 126.59 371.724 73.97 891.382 73.97 891.382-2.266 22.144-20.918 38.984-43.177 38.984h-354.102c-12.442 0-24.286-5.34-32.524-14.664-8.239-9.323-12.08-21.734-10.548-34.082 0 0 37.202-298.717 8.787-534.879-9.123-75.824-24.611-145.009-51.922-193.598-18.538-32.979-42.189-55.756-76.579-55.756-37.404 0-71.292 23.622-103.876 58.347-43.852 46.734-83.408 113.866-118.719 188.237-104.944 221.028-179.469 543.274-179.469 543.274 1.022-6.705 2.959-21.088 4.272-52.746 1.915-46.207 3.604-131.773 3.207-290.197 37.294-111.512 84.933-231.825 141.016-328.19 36.272-62.324 76.259-114.899 118.706-150.528 42.411-35.6 87.837-55.003 134.863-55.003 52.345 0 94.555 22.968 127.736 63.685 32.463 39.837 56.032 98.724 71.336 168.109 43.773 198.456 22.82 487.34 11.929 601.185h265.989c9.147-124.037 27.944-518.967-73.067-815.577-62.666-184.015-171.542-331.007-369.053-331.007-179.883 0-321.981 118.589-434.383 277.189l-1.381-138.115z" fill="#f9f9a4" fill-opacity=".85"/><path d="m961.862 2700.88 87.02 43.557c-71.915 58.667-169.253 106.938-302.771 129.726-12.906 2.203-25.337 4.819-37.246 7.977l-108.89-54.504c38.467-17.145 82.11-30.606 131.531-39.041 96.943-16.545 172.013-48.123 230.356-87.715zm-319.634-159.989 123.389 61.761c-19.453 5.964-40.533 10.918-63.319 14.807-120.095 20.497-214.749 63.145-289.121 116.678l-86.905-43.5c79.789-65.616 182.949-120.237 315.956-149.746zm4347.09-387.282c23.498.294 42.54 19.275 42.843 42.841l2.106 217.46-86.808.154-1.681-173.653h-211.417v174.031l-86.559.154-.246-139.198v-78.39c0-5.962 1.202-11.642 3.383-16.807l1.035-1.943 2.914-5.369 5.3-6.474c1.853-1.868 3.875-3.568 6.09-5.002l.556-.456.952-.509 2.552-1.634 3.08-1.378.938-.501.574-.175c2.401-1.041 4.941-1.791 7.565-2.302l8.567-.853-6.133.608 6.029-.608h297.804zm-337.344 24.649-1.035 1.943.027-.087zm7.898-11.46-4.984 6.091.08-.148zm-4495.17-806.638-2.378 10.357h248.659c13.235-55.439 60.243-171.58 103.153-299.258.397 158.424-1.292 243.99-3.207 290.197-1.313 31.658-3.254 46.251-4.305 52.956-.349 2.22-.386 2.214-.63 3.405-.315 1.536-.767 3.356-1.241 5.023-.475 1.674-1.795 4.954-1.795 4.954-.99 2.439-2.241 4.947-3.59 7.111-1.521 2.438-3.149 4.456-4.347 5.62-1.263 1.228-1.718 1.784-4.326 4.196-1.23 1.137-2.697 2.309-3.28 2.739-5.783 4.261-9.92 5.54-11.668 6.249-4.985 1.929-8.507 2.547-10.126 2.813-2.023.332-3.257.474-3.764.522-.286.027-.446.041-.446.041s-1.502.136-2.603.181c-.782.032-2.342.057-2.342.057h-341.054c-9.924 0-18.936-2.649-26.498-7.046-6.881-4.003-12.565-9.444-16.578-15.85-2.195-3.504-3.87-7.293-5.011-11.241-1.053-3.646-1.371-6.895-1.44-7.692l-.074-.909c-.102-1.36-.007-4.22.323-6.739.081-.62.177-1.22.287-1.772 8.083-40.407 35.803-180.814 98.281-374.597zm245.037-867.261c30.311-46.444 62.978-90.133 98.088-129.892l1.381 138.115c-11.026 15.251-21.636 30.959-31.977 46.968-23.372 36.186-65.829 112.447-65.829 112.447z" fill="#f4f651"/><path d="m164.7 1360.15v-328.683l.417-1.324c54.349-167.885 132.822-364.471 239.195-529.16l5.425-8.094 1.663 167.638-.128.25c-140.115 263.026-217.418 567.991-246.155 697.558z" fill="#f8f88f"/></svg>