<svg clip-rule="evenodd" fill-rule="evenodd" stroke-linejoin="round" stroke-miterlimit="2" viewBox="0 0 3684 834" xmlns="http://www.w3.org/2000/svg"><path d="m1836.46 208.333c-143.75 0-247.396 93.75-247.396 234.375s116.667 234.375 260.417 234.375c86.85 0 163.413-34.375 210.808-92.316l-99.612-57.554c-26.3 28.779-66.275 45.575-111.196 45.575-62.371 0-115.367-32.555-135.025-84.638h364.842c2.866-14.583 4.558-29.688 4.558-45.571 0-140.496-103.646-234.246-247.396-234.246zm-123.179 188.805c16.279-51.955 60.808-84.638 123.05-84.638 62.367 0 106.9 32.683 123.046 84.638zm1525.26-188.805c-143.75 0-247.396 93.75-247.396 234.375s116.666 234.375 260.417 234.375c86.85 0 163.412-34.375 210.808-92.316l-99.608-57.554c-26.305 28.779-66.28 45.575-111.2 45.575-62.371 0-115.363-32.555-135.025-84.638h364.841c2.867-14.583 4.559-29.687 4.559-45.571 0-140.496-103.646-234.246-247.396-234.246zm-123.046 188.805c16.275-51.955 60.804-84.638 123.046-84.638 62.371 0 106.9 32.683 123.046 84.638zm-508.204 45.57c0 78.125 51.041 130.209 130.208 130.209 53.646 0 93.879-24.35 114.583-64.063l100 57.684c-41.408 69.008-119.012 110.545-214.583 110.545-143.879 0-247.396-93.75-247.396-234.375s103.646-234.375 247.396-234.375c95.575 0 173.046 41.538 214.583 110.546l-100 57.684c-20.704-39.713-60.937-64.063-114.583-64.063-79.037 0-130.208 52.083-130.208 130.208zm1073.96-377.604v598.959h-117.187v-598.959zm-3200.13-65.104 481.117 833.333h-962.238l481.121-833.333zm1202.86 65.104-360.808 625-360.804-625h135.283l225.521 390.625 225.521-390.625zm767.059 156.25v126.171c-13.021-3.775-26.825-6.379-41.667-6.379-75.65 0-130.208 52.083-130.208 130.208v192.709h-117.188v-442.709h117.188v119.792c0-66.146 76.954-119.792 171.875-119.792z" fill="#00398a" fill-rule="nonzero"/></svg>