<svg clip-rule="evenodd" fill-rule="evenodd" stroke-linejoin="round" stroke-miterlimit="2" viewBox="0 0 3063 1559" xmlns="http://www.w3.org/2000/svg"><path d="m491.892 371.322c9.074 13.406 24.108 33.222 45.408 49.538-30.593 0-50.876.715-76.757-40.204l-71.731-114.803c-4.245 1.633-8.556 3.15-12.942 4.584l81.081 129.759c7.92 12.607 24.831 37.554 50.017 56.878-30.572 0-50.852.695-76.733-40.22l-86.409-138.319c-4.968 7.957-6.601 14.935-6.601 21.896 0 25.645 9.912 49.554 25.087 70.891 10.524 14.799 23.632 28.419 37.649 40.564-2.174.975-5.986 1.335-9.532 1.335-7.04 0-11.628-.418-14.819-.955 7.94 18.002 24.967 41.274 33.565 53.34 11.206-2.013 27.496-3.588 38.186-3.588 11.169 0 12.422 6.519 12.422 12.343 0 10.152-4.746 18.291-10.268 22.797-2.055-5.291-6.242-12.165-26.865-12.165 3.952 6.8 22.838 22.073 22.838 34.375 0 8.139-8.916 20.342-20.701 20.342.699-2.629.6-5.064.6-6.858 0-9.933-8.813-21.578-16.254-29.713.219 2.41.104 2.171.104 4.965 0 23.549-2.137 34.359-17.076 34.359-7.317 0-12.381-4.01-14.117-5.184 9.694-8.974 10.19-15.976 10.19-29.196l-.079-11.425c-.02-2.989.037-7.002.5-9.917-5.344-.731-7.502-.711-11.628-.711 0 0-21.238-1.694-26.343 9.371-5.746-5.303-14.116-12.748-14.116-20.999 0-5.423 2.571-11.586 13.5-11.586 4.146 0 17.171 2.53 28.076 2.53-2.931-6.519-15.993-25.579-27.258-39.423-1.719 5.382-4.369 11.207-10.296 15.915-.815-8.875-6.04-36.992-19.962-53.448-1.612 11.091-3.803 22.499-3.803 46.549 0 58.491 14.08 101.683 43.928 109.958-3.885 6.8-12.103 12.839-20.618 12.839-10.925 0-16.869-12.384-22.95-24.008-3.154 8.615-11.888 29.671-20.623 29.671-8.755 0-17.489-21.056-20.618-29.671-6.085 11.624-12.025 24.008-22.954 24.008-8.536 0-16.749-6.039-20.639-12.839 29.873-8.275 43.953-51.467 43.953-109.958 0-24.05-2.195-35.458-3.812-46.549-13.918 16.456-19.142 44.573-19.94 53.448-5.924-4.708-8.594-10.533-10.309-15.915-11.289 13.844-24.31 32.904-27.262 39.423 10.909 0 23.93-2.53 28.08-2.53 10.925 0 13.5 6.163 13.5 11.586 0 8.251-8.378 15.696-14.141 20.999-5.084-11.065-26.323-9.371-26.323-9.371-4.125 0-6.283-.02-11.623.711.459 2.915.537 6.928.496 9.917l-.079 11.425c0 13.22.48 20.222 10.21 29.196-1.773 1.174-6.82 5.184-14.137 5.184-14.939 0-17.092-10.81-17.092-34.359 0-2.794-.099-2.555.12-4.965-7.437 8.135-16.254 19.78-16.254 29.713 0 1.794-.099 4.229.6 6.858-11.765 0-20.697-12.203-20.697-20.342 0-12.302 18.882-27.575 24.905-34.276-22.694-.099-26.881 6.775-28.956 12.066-5.502-4.506-10.252-12.645-10.252-22.797 0-5.824 1.24-12.343 12.405-12.343 10.69 0 27.001 1.575 38.207 3.588 8.598-12.066 25.608-35.338 33.565-53.34-3.191.537-7.779.955-14.839.955-3.526 0-7.338-.36-9.533-1.335 14.042-12.145 27.142-25.765 37.67-40.601 15.158-21.379 25.087-45.209 25.087-70.854 0-6.961-1.653-13.939-4.005-21.4l-60.562 92.291-28.439 45.532c-25.885 40.915-46.165 40.22-76.753 40.22 25.202-19.324 42.113-44.271 50.029-56.878l81.085-129.759c-4.386-1.434-8.714-2.951-12.943-4.584l-71.751 114.803c-25.864 40.919-46.143 40.204-76.716 40.204 21.259-16.316 36.314-36.132 45.371-49.695l4.646-7.18 69.676-111.496c-3.972-2.174-7.837-4.464-11.566-6.837l-57.093 91.37c-12.025 19.027-22.855 29.038-34.061 34.3-12.901 6.106-26.323 5.924-42.676 5.924l7.28-5.94c21.358-18.345 35.495-39.427 42.754-50.972l58.548-93.725c-3.451-3.134-6.721-6.325-9.809-9.636l-41.501 66.427c-25.864 40.94-46.144 40.2-76.737 40.2 25.41-19.498 42.018-44.11 50.034-56.933l48.222-77.133c-2.591-4.787-4.807-9.693-6.622-14.716l-24.21 38.786c-25.885 40.94-46.165 40.204-76.753 40.204 25.306-19.383 42.076-44.213 50.054-56.912l47.28-75.62c4.588-23.392 16.692-45.23 34.76-61.463-6.064-2.311-11.128-4.725-14.183-7.04 30.891 0 61.463-15.691 78.316-15.691 10.826 0 17.803 6.482 17.803 15.055-.736 9.511-10.528 19.205-28.654 19.205-4.109 0-9.35-.542-15.117-1.476-9.809 13.678-17.745 26.042-17.745 43.651 0 33.123 39.62 58.949 79.584 58.949l6.68-.26c7.916-26.844 24.769-44.432 38.232-61.62-16.134-5.882-34.144-21.218-34.144-28.158 2.038-1.174 32.987 8.515 36.178 9.371 5.82-1.116 8.97-6.597 8.97-7.16-3.307-.558-22.71-3.05-35.955-7.895-10.09-3.687-15.195-10.371-15.195-12.901 3.253-.521 15.497 5.924 33.545 5.924 6.659 0 7.936-.261 14.554-1.079-4.646-11.087-13.38-20.441-23.21-20.441-3.948 0-12.604 2.455-19.821 6.101-5.047-7.837-9.453-18.105-9.453-23.731 0-6.659 6.56-14.414 25.066-14.414 5.183 0 10.011.438 14.496 1.273 3.63.699 6.664 1.517 9.913 2.774-.401-4.886 1.934-7.598 10.607-7.598 15.236 0 30.853 5.027 49.992 5.027 4.968 0 8.337-.203 11.194-1.418-1.241 3.828-6.623 9.433-11.529 14.001 3.046 4.146 10.929 14.178 10.929 30.39 0 26.063-17.15 47.561-17.15 73.884 0 15.654 12.041 29.473 15.65 37.67l6.663.26c39.985 0 79.589-25.826 79.589-58.949 0-17.609-7.92-29.973-17.734-43.651-5.762.934-11.003 1.476-15.112 1.476-18.126 0-27.939-9.694-28.634-19.205 0-8.573 6.937-15.055 17.787-15.055 16.849 0 47.421 15.691 78.308 15.691-3.072 2.315-8.115 4.729-14.199 7.04 18.093 16.233 30.192 38.071 34.78 61.463l47.28 75.62c7.957 12.699 24.752 37.529 50.054 56.912-30.589 0-50.868.736-76.732-40.204l-24.248-38.786c-1.794 5.023-4.03 9.929-6.601 14.716l48.194 77.133c8.039 12.823 24.632 37.435 50.054 56.933-30.589 0-50.869.74-76.733-40.2l-41.518-66.427c-3.071 3.311-6.362 6.502-9.813 9.636l58.573 93.725c7.255 11.545 21.396 32.643 42.754 50.972l7.275 5.94c-16.348 0-29.77.157-42.675-5.924-11.227-5.245-22.036-15.273-34.061-34.3l-57.094-91.37c-3.745 2.373-7.593 4.663-11.561 6.837l69.672 111.496zm-251.406 48.463c-1.674-6.122-3.311-10.611-9.71-10.611-3.27 0-4.828.575-6.8 1.314-6.899 19.185-33.503 55.217-37.69 60.74-11.488-1.869-27.538-3.886-40.543-3.886-3.03 0-7.217-.297-7.217 7.019 0 4.25 1.872 11.649 4.167 14.1 5.725-6.763 15.575-8.776 27.778-8.776 4.745 0 10.491 1.654 12.665 2.175-15.538 15.753-30.192 28.794-30.192 37.508 0 4.886 5.064 11.33 9.313 13.484 0-12.864 13.319-30.634 26.36-40.563 0 1.756.62 8.494.62 15.815 0 24.268 2.394 29.076 11.727 29.076 1.691 0 4.626-.616 5.721-1.282-5.022-5.758-7.139-13.397-7.139-27.815 0-4.146.12-8.056.12-11.446 0-6.399-.74-10.904-1.215-14.439 3.588-.5 11.686-1.653 17.646-1.653 12.703 0 20.582 1.236 26.323 6.957 4.13-3.129 8.735-9.032 8.735-13.1 0-5.865-3.948-6.262-8.094-6.262-6.444 0-11.727 2.55-36.136 2.55 4.807-13.756 18.886-33.081 33.561-50.905zm145.718 50.905c-24.413 0-29.716-2.55-36.136-2.55-4.129 0-8.098.397-8.098 6.262 0 4.068 4.605 9.971 8.714 13.1 5.742-5.721 13.641-6.957 26.343-6.957 5.94 0 14.059 1.153 17.63 1.653-.479 3.535-1.198 8.04-1.198 14.439 0 3.39.119 7.3.119 11.446 0 14.418-2.112 22.057-7.134 27.815 1.091.666 4.026 1.282 5.717 1.282 9.333 0 11.727-4.808 11.727-29.076 0-7.321.62-14.059.62-15.815 13.041 9.929 26.339 27.699 26.339 40.563 4.27-2.154 9.334-8.598 9.334-13.484 0-8.714-14.674-21.755-30.192-37.508 2.178-.521 7.916-2.175 12.661-2.175 12.211 0 22.061 2.013 27.782 8.776 2.294-2.451 4.15-9.85 4.15-14.1 0-7.316-4.191-7.019-7.221-7.019-12.98 0-29.055 2.017-40.522 3.886-4.187-5.523-30.791-41.555-37.686-60.74-1.976-.739-3.53-1.314-6.804-1.314-6.403 0-8.032 4.489-9.71 10.611 14.674 17.824 28.754 37.149 33.565 50.905zm-246.165-355.875c0-21.239 13.823-37.252 21.677-46.846l-5.304-1.216c-7.378 6.403-28.336 29.233-28.336 58.032 0 50.43 50.79 97.256 108.483 97.632-.62-5.481-.98-11.326-.98-17.526 0-3.89.182-7.677.521-11.289-51.009 0-96.061-36.633-96.061-78.787zm325.01 9.97c0-28.799-20.958-51.629-28.336-58.032l-5.304 1.216c7.838 9.594 21.677 25.607 21.677 46.846 0 41.774-44.172 78.051-94.569 78.749.405 4.308.38 8.073.38 11.327 0 5.981-.417 11.826-1.091 17.468 57.193-1 107.243-47.499 107.243-97.574zm-169.921-48.859c2.633-6.002 6.184-13.182 6.184-21.098 0-21.855-18.13-32.304-42.419-32.304-12.463 0-18.767 4.03-18.767 8.093 0 4.03 4.109 12.926 5.725 15.675 4.485-1.972 12.562-4.345 17.25-4.345 16.65 0 29.117 18.643 32.027 33.979zm11.926-27.956c14.174 2.77 23.867-15.336 10.387-18.568 1.873 5.965-7.221 10.21-7.221 10.21s-3.448-8.057 1-12.62c-8.217-4.01-10.313.876-10.47 5.998 3.232 4.311 5.365 9.375 6.304 14.98z"/><path d="m742.546 38.111h89.1v502.912h-89.1z"/><path d="m742.546 541.023h89.1v502.913h-89.1z" fill="#f00"/><path d="m742.546 1043.94h89.1v502.913h-89.1z" fill="#fc0"/><path d="m1126.71 83.597c0 7.193-.884 13.498-2.653 18.917-1.77 5.321-4.227 9.952-7.372 13.893-3.046 3.941-6.683 7.094-10.713 9.458-4.128 2.365-8.354 4.237-12.776 5.419v.591c5.405.986 10.418 2.858 15.135 5.715 4.718 2.759 8.747 6.306 12.286 10.444 3.44 4.236 6.29 9.163 8.354 14.877 2.162 5.715 3.145 12.021 3.145 18.819 0 8.178-1.376 15.666-4.128 22.464-2.85 6.798-7.175 12.71-13.072 17.735-5.897 5.024-13.366 8.867-22.31 11.724-9.042 2.759-19.657 4.237-32.04 4.237h-42.262v-207.202h39.902c12.188 0 22.606 1.281 31.255 3.745 8.649 2.561 15.824 6.108 21.426 10.739 5.602 4.532 9.632 10.148 12.089 16.651s3.734 13.695 3.734 21.775m-26.34.886c0-9.655-3.342-17.537-10.123-23.745-6.88-6.207-17.495-9.261-32.04-9.261h-13.858v71.431h13.563c13.957 0 24.473-3.448 31.647-10.247 7.273-6.798 10.811-16.158 10.811-28.179m3.932 95.373c0-11.133-3.637-20.001-10.91-26.504s-17.789-9.754-31.352-9.754h-17.691v72.614h16.217c15.332 0 26.537-3.054 33.415-9.163 6.879-6.109 10.32-15.173 10.32-27.193m160.497 58.033h-22.212v-16.257h-.59c-.59 1.182-1.867 2.956-3.833 5.222-2.064 2.266-4.619 4.532-7.666 6.602-3.145 2.069-6.88 3.941-11.204 5.616-4.423 1.576-9.337 2.364-14.743 2.364-6.388 0-12.089-.985-17.199-2.857-5.111-1.872-9.435-4.926-12.973-9.163-3.637-4.138-6.389-9.656-8.256-16.355-1.966-6.7-2.851-14.977-2.851-24.731v-94.586h24.276v92.813c0 11.922 1.868 20.494 5.799 25.616 3.931 5.124 9.927 7.686 18.084 7.686 6.978 0 12.875-1.774 17.691-5.321 4.816-3.448 8.551-6.897 11.401-10.345v-110.449h24.276m115.482 144.144v-92.813c0-12.217-1.966-20.986-6.094-26.307-4.029-5.222-10.32-7.883-18.674-7.883-7.174 0-13.17 1.774-17.986 5.419-4.815 3.547-8.649 7.094-11.4 10.444v111.137h-24.178v-144.144h22.114v16.257h.589c.59-1.182 1.868-2.956 3.932-5.32 1.966-2.266 4.521-4.434 7.764-6.602 3.145-2.069 6.978-3.941 11.303-5.517 4.423-1.577 9.435-2.365 15.037-2.365 6.389 0 12.188.887 17.298 2.857 5.209 1.872 9.632 4.927 13.269 9.065 3.538 4.237 6.388 9.754 8.354 16.356 1.965 6.699 2.948 14.976 2.948 24.829v94.586m29.682-69.954c0-14.68 1.867-26.897 5.701-36.651 3.734-9.853 8.649-17.735 14.644-23.745s12.777-10.247 20.344-12.71c7.568-2.562 15.234-3.744 22.802-3.744 4.62 0 8.551.295 11.991.985 3.341.788 6.192 1.576 8.354 2.561v-68.969l24.276-2.759v214.985h-22.212v-15.37h-.59c-.59 1.182-1.671 2.857-3.243 4.926-1.671 2.168-3.833 4.237-6.585 6.306-2.85 2.168-6.29 3.941-10.516 5.419-4.227 1.478-9.043 2.266-14.645 2.266-6.781 0-13.268-1.38-19.362-4.04-6.093-2.66-11.4-6.995-16.02-12.907-4.521-5.912-8.255-13.498-10.909-22.858-2.654-9.262-4.03-20.494-4.03-33.696m56.906 51.924c3.735 0 7.175-.492 10.123-1.576 3.047-.985 5.602-2.168 7.764-3.744 2.261-1.478 4.128-3.054 5.603-4.631 1.474-1.576 2.653-2.956 3.44-4.237v-88.772c-2.163-1.478-4.718-2.66-7.667-3.645-2.85-.985-6.486-1.478-10.909-1.478-5.602 0-10.811.887-15.725 2.857-4.915 1.872-9.141 5.025-12.679 9.459-3.636 4.335-6.487 10.05-8.551 17.144-2.064 6.995-3.145 15.567-3.145 25.714 0 10.05.885 18.425 2.556 25.125 1.67 6.699 4.029 12.119 6.978 16.158 3.047 4.138 6.388 7.094 10.221 8.867 3.735 1.873 7.765 2.759 11.991 2.759m180.547-77.442c0 6.207-.201 11.528-.589 16.06-.49 4.434-.885 8.375-1.18 11.824h-73.418c.785 16.946 4.423 29.46 10.909 37.539 6.487 7.981 15.824 12.02 28.012 12.02 4.226 0 7.96-.492 11.4-1.576 3.342-.986 6.29-2.168 8.846-3.547 2.458-1.38 4.521-2.858 6.29-4.237 1.671-1.38 2.948-2.463 3.735-3.252l8.944 17.046c-.984 1.083-2.459 2.463-4.521 4.433-1.966 1.872-4.62 3.744-8.06 5.616-3.341 1.971-7.568 3.646-12.58 5.025-5.012 1.38-10.811 2.069-17.691 2.069-8.944 0-17.101-1.478-24.374-4.532-7.273-2.956-13.465-7.685-18.576-13.991-5.11-6.207-8.944-14.286-11.794-23.942-2.85-9.754-4.226-21.381-4.226-34.977 0-12.808 1.474-23.843 4.423-33.203 2.85-9.262 6.781-16.947 11.794-22.957 5.012-6.01 10.811-10.444 17.396-13.301 6.585-2.956 13.661-4.336 21.229-4.336 13.76 0 24.571 4.336 32.336 13.006 7.766 8.671 11.696 21.775 11.696 39.214m-45.505-32.416c-8.649 0-15.529 3.547-20.738 10.739-5.111 7.193-8.158 17.637-8.944 31.234h52.384c.202-.985.393-2.463.491-4.336.101-1.872.101-3.941.101-6.108 0-10.05-1.965-17.834-5.996-23.351-3.931-5.518-9.73-8.178-17.297-8.178m139.759 12.907c-1.573-1.872-4.423-4.335-8.649-7.389-4.226-3.153-9.632-4.631-16.512-4.631-6.388 0-11.204 1.478-14.644 4.434-3.342 3.054-5.111 6.601-5.111 10.838 0 5.418 1.573 9.852 4.718 13.399 3.047 3.449 7.764 7.193 14.153 11.232l9.042 5.419c9.73 5.813 17.396 12.02 22.998 18.72s8.453 15.371 8.453 26.01c0 11.331-4.03 20.987-11.893 28.77-7.862 7.783-19.165 11.724-34.007 11.724-5.7 0-10.811-.591-15.234-1.773-4.422-1.281-8.256-2.66-11.499-4.237-3.342-1.576-6.093-3.35-8.256-5.222-2.161-1.97-4.029-3.645-5.405-5.32l11.695-19.213c1.18 1.281 2.654 2.66 4.325 4.237 1.769 1.576 3.735 3.152 6.192 4.63 2.357 1.577 5.012 2.759 8.059 3.744 2.949 1.084 6.487 1.577 10.418 1.577 7.175 0 12.777-1.675 16.512-4.828 3.833-3.252 5.7-7.094 5.7-11.725 0-3.448-.49-6.306-1.376-8.867-.886-2.463-2.259-4.729-4.03-6.7-1.768-2.069-3.931-3.941-6.584-5.714-2.556-1.774-5.602-3.843-8.944-6.011l-9.042-5.714c-8.944-5.813-16.021-11.922-21.033-18.326-5.111-6.404-7.666-14.582-7.666-24.632 0-5.419 1.082-10.345 3.145-14.877 2.063-4.434 5.013-8.375 8.846-11.627 3.734-3.349 8.157-5.911 13.268-7.783 5.111-1.971 10.516-2.857 16.315-2.857 5.602 0 10.418.492 14.349 1.576 4.03 1.183 7.47 2.562 10.419 4.237 2.85 1.675 5.209 3.448 7.174 5.123 1.867 1.675 3.44 3.153 4.62 4.335m107.818 132.421v-92.813c0-11.823-1.769-20.297-5.111-25.518-3.44-5.222-8.846-7.784-16.511-7.784-3.932 0-7.47.493-10.615 1.478-3.047.985-5.799 2.266-8.256 3.744-2.357 1.478-4.423 3.153-6.29 4.927-1.769 1.872-3.243 3.448-4.423 4.828v111.137h-24.276v-144.144h22.114v16.257h.687c.983-1.675 2.458-3.646 4.422-5.912 1.965-2.266 4.521-4.434 7.47-6.601 3.047-2.069 6.487-3.843 10.516-5.222 4.03-1.38 8.453-2.069 13.465-2.069 16.414 0 27.913 6.404 34.694 19.114 1.376-1.971 3.342-4.138 5.7-6.404 2.459-2.267 5.209-4.434 8.453-6.306 3.145-1.872 6.781-3.449 10.713-4.631 4.029-1.182 8.452-1.773 13.17-1.773 29.191 0 43.736 16.946 43.736 51.036v96.654h-24.276v-92.813c0-11.823-2.063-20.296-6.29-25.518-4.128-5.222-10.32-7.783-18.576-7.783-6.781 0-12.383 1.675-16.904 4.926-4.423 3.35-8.06 6.503-10.615 9.459.392 2.167.687 4.532.886 7.094.201 2.463.294 5.123.294 7.98v96.655m135.925 0h-24.178v-144.144h24.178zm-11.991-178.927c-4.914 0-8.943-1.576-11.892-4.828-3.047-3.153-4.521-7.389-4.521-12.611 0-5.025 1.475-9.065 4.521-12.316 2.949-3.153 6.978-4.828 11.892-4.828 4.816 0 8.748 1.675 11.794 4.828 2.949 3.251 4.423 7.291 4.423 12.316 0 5.222-1.474 9.458-4.423 12.611-3.046 3.252-6.978 4.828-11.794 4.828m127.572 178.927v-92.813c0-12.218-1.965-20.986-6.093-26.308-4.128-5.222-10.32-7.882-18.773-7.882-7.174 0-13.071 1.774-17.887 5.419-4.816 3.547-8.649 7.094-11.401 10.444v111.137h-24.276v-144.144h22.212v16.257h.589c.589-1.182 1.867-2.956 3.833-5.321 2.063-2.266 4.619-4.433 7.863-6.601 3.145-2.069 6.978-3.941 11.302-5.517 4.423-1.577 9.435-2.365 15.037-2.365 6.389 0 12.188.887 17.298 2.857 5.209 1.872 9.632 4.927 13.17 9.065 3.637 4.237 6.389 9.754 8.453 16.355 1.965 6.7 2.948 14.977 2.948 24.829v94.586m60.541 0h-24.276v-144.144h24.276zm-11.99-178.926c-5.013 0-9.042-1.577-11.991-4.828-3.047-3.153-4.521-7.39-4.521-12.612 0-5.024 1.474-9.064 4.521-12.315 2.949-3.153 6.978-4.828 11.991-4.828 4.717 0 8.649 1.675 11.696 4.828 2.948 3.251 4.422 7.291 4.422 12.315 0 5.222-1.474 9.459-4.422 12.612-3.047 3.251-6.979 4.828-11.696 4.828m111.061 63.945c-1.573-1.872-4.521-4.335-8.747-7.389-4.128-3.153-9.632-4.631-16.414-4.631-6.388 0-11.302 1.478-14.644 4.434-3.44 3.054-5.111 6.601-5.111 10.838 0 5.418 1.573 9.852 4.62 13.399 3.145 3.449 7.862 7.193 14.251 11.232l8.944 5.419c9.828 5.813 17.494 12.02 23.096 18.72s8.354 15.371 8.354 26.01c0 11.331-3.931 20.987-11.794 28.77-7.961 7.783-19.263 11.724-34.007 11.724-5.798 0-10.909-.591-15.234-1.773-4.422-1.281-8.256-2.66-11.597-4.237-3.243-1.576-5.995-3.35-8.158-5.222-2.259-1.97-4.029-3.645-5.405-5.32l11.695-19.213c1.18 1.281 2.654 2.66 4.325 4.237 1.671 1.576 3.735 3.152 6.094 4.63 2.357 1.577 5.11 2.759 8.059 3.744 3.047 1.084 6.487 1.577 10.516 1.577 7.175 0 12.679-1.675 16.414-4.828 3.833-3.252 5.7-7.094 5.7-11.725 0-3.448-.392-6.306-1.278-8.867-.886-2.463-2.259-4.729-4.03-6.7-1.867-2.069-4.029-3.941-6.683-5.714-2.555-1.774-5.504-3.843-8.944-6.011l-8.943-5.714c-9.042-5.813-16.021-11.922-21.131-18.326-5.111-6.404-7.666-14.582-7.666-24.632 0-5.419 1.082-10.345 3.145-14.877 2.161-4.434 5.11-8.375 8.845-11.627 3.833-3.349 8.256-5.911 13.367-7.783 5.111-1.971 10.516-2.857 16.315-2.857 5.602 0 10.32.492 14.349 1.576 4.03 1.183 7.47 2.562 10.32 4.237 2.948 1.675 5.307 3.448 7.174 5.123 1.966 1.675 3.44 3.153 4.62 4.335m93.763 8.08h-31.45v79.808c0 10.246 1.278 17.242 3.931 20.887 2.555 3.744 6.978 5.616 13.17 5.616 3.538 0 6.683-.492 9.239-1.576 2.555-.985 4.521-1.872 5.7-2.66l3.243 19.508c-.885.788-3.341 2.069-7.076 3.744-3.833 1.675-8.944 2.562-15.332 2.562-12.384 0-21.623-3.449-27.815-10.346-6.193-6.897-9.337-18.326-9.337-34.386v-83.158h-17.298v-16.158l17.298-3.645 2.752-40.201h21.524v40.201h34.497m114.599 48.672c0 6.207-.201 11.528-.588 16.06-.393 4.434-.785 8.375-1.18 11.824h-73.419c.886 16.946 4.521 29.46 11.008 37.539 6.487 7.981 15.824 12.02 27.913 12.02 4.226 0 8.059-.492 11.401-1.576 3.44-.986 6.388-2.168 8.845-3.547 2.556-1.38 4.62-2.858 6.29-4.237 1.671-1.38 2.949-2.463 3.735-3.252l9.042 17.046c-.983 1.083-2.555 2.463-4.521 4.433-1.965 1.872-4.717 3.744-8.059 5.616-3.44 1.971-7.568 3.646-12.58 5.025-5.013 1.38-10.91 2.069-17.691 2.069-8.944 0-17.102-1.478-24.375-4.532-7.273-2.956-13.465-7.685-18.575-13.991-5.111-6.207-9.043-14.286-11.794-23.942-2.851-9.754-4.227-21.381-4.227-34.977 0-12.808 1.475-23.843 4.325-33.203 2.948-9.262 6.88-16.947 11.794-22.957 5.012-6.01 10.811-10.444 17.396-13.301 6.585-2.956 13.662-4.336 21.229-4.336 13.76 0 24.571 4.336 32.337 13.006 7.862 8.671 11.696 21.775 11.696 39.214m-45.506-32.416c-8.551 0-15.43 3.547-20.639 10.739-5.21 7.193-8.158 17.637-9.043 31.234h52.483c.201-.985.294-2.463.392-4.336.101-1.872.202-3.941.202-6.108 0-10.05-2.064-17.834-5.996-23.351-4.029-5.518-9.828-8.178-17.396-8.178m141.038 5.025c-.589-.394-1.867-.887-3.932-1.478-1.964-.591-4.619-.887-8.059-.887-7.568 0-13.464 2.069-17.789 6.109-4.324 4.138-7.371 8.572-9.141 13.4v105.719h-24.276v-144.144h22.213v19.509h.588c.984-2.759 2.26-5.518 3.833-8.277 1.671-2.66 3.637-5.123 5.996-7.192 2.458-2.069 5.307-3.744 8.55-4.927 3.342-1.182 7.273-1.773 11.794-1.773 3.44 0 6.192.296 8.256.887 2.063.591 3.735 1.084 4.914 1.478m45.212 144.441h-24.178v-144.144h24.178zm-11.893-178.926c-5.012 0-9.042-1.577-11.99-4.828-3.047-3.153-4.521-7.39-4.521-12.612 0-5.024 1.474-9.064 4.521-12.315 2.948-3.153 6.978-4.828 11.99-4.828 4.718 0 8.649 1.675 11.598 4.828 3.047 3.251 4.521 7.291 4.521 12.315 0 5.222-1.474 9.459-4.521 12.612-2.949 3.251-6.88 4.828-11.598 4.828m149.686 178.926h-22.215v-16.256h-.589c-.589 1.182-1.867 2.955-3.833 5.221-2.063 2.266-4.521 4.533-7.666 6.602-3.047 2.069-6.88 3.941-11.204 5.616-4.423 1.576-9.337 2.365-14.743 2.365-6.29 0-12.089-.986-17.2-2.858-5.012-1.872-9.435-4.926-12.973-9.163-3.636-4.138-6.388-9.655-8.256-16.355-1.867-6.7-2.85-14.976-2.85-24.731v-94.586h24.276v92.813c0 11.922 1.965 20.494 5.799 25.617 3.931 5.123 9.926 7.685 18.182 7.685 6.978 0 12.875-1.774 17.593-5.321 4.816-3.448 8.649-6.897 11.401-10.345v-110.449h24.276m112.536 144.144v-92.813c0-11.823-1.671-20.296-5.111-25.518-3.342-5.222-8.846-7.783-16.414-7.783-4.029 0-7.567.492-10.614 1.478-3.145.985-5.897 2.266-8.256 3.744-2.358 1.477-4.521 3.153-6.29 4.926-1.769 1.872-3.342 3.448-4.521 4.828v111.137h-24.178v-144.144h22.114v16.257h.589c.983-1.675 2.555-3.645 4.521-5.912 1.965-2.266 4.423-4.433 7.469-6.601 2.949-2.069 6.487-3.843 10.517-5.222 3.931-1.379 8.452-2.069 13.465-2.069 16.315 0 27.913 6.404 34.694 19.114 1.376-1.97 3.341-4.138 5.7-6.404 2.358-2.266 5.21-4.434 8.355-6.306 3.243-1.872 6.781-3.448 10.811-4.631 4.029-1.182 8.354-1.773 13.17-1.773 29.091 0 43.736 16.947 43.736 51.036v96.655h-24.276v-92.813c0-11.824-2.063-20.297-6.29-25.518-4.226-5.222-10.418-7.784-18.575-7.784-6.782 0-12.384 1.675-16.905 4.926-4.521 3.35-8.059 6.503-10.615 9.459.393 2.168.687 4.532.886 7.094.201 2.463.294 5.123.294 7.981v96.654m-1910.24 178.334h-29.387v124.341h-24.178v-124.341h-17.396v-16.158l17.396-3.35v-28.77c0-7.783 1.081-14.483 3.243-20.099 2.261-5.616 5.111-10.247 8.748-13.893 3.538-3.546 7.764-6.207 12.482-7.783 4.815-1.577 9.926-2.365 15.332-2.365 5.209 0 9.533.69 13.17 2.069 3.636 1.478 5.995 2.562 7.174 3.35l-5.11 20.1c-1.179-.788-2.85-1.675-5.111-2.562-2.162-.887-4.816-1.379-8.059-1.379-5.799 0-10.123 1.872-13.17 5.419-2.949 3.645-4.521 10.246-4.521 19.804v25.813h32.434m121.478 144.144h-22.114v-16.257h-.59c-.59 1.182-1.965 2.956-3.931 5.222s-4.521 4.532-7.568 6.601c-3.145 2.069-6.88 3.941-11.303 5.616-4.324 1.577-9.238 2.365-14.644 2.365-6.388 0-12.089-.985-17.2-2.857s-9.435-4.927-13.071-9.163c-3.538-4.138-6.29-9.656-8.158-16.356-1.966-6.7-2.85-14.976-2.85-24.73v-94.586h24.178v92.813c0 11.921 1.966 20.493 5.897 25.616 3.833 5.123 9.926 7.685 18.084 7.685 6.978 0 12.875-1.773 17.691-5.32 4.717-3.449 8.551-6.897 11.401-10.346v-110.449h24.177m-59.56-41.38c0 4.532-1.376 8.276-4.226 11.133-2.752 2.759-6.192 4.138-10.123 4.138-4.03 0-7.372-1.379-10.222-4.138-2.752-2.857-4.128-6.601-4.128-11.133 0-4.631 1.376-8.375 4.128-11.134 2.85-2.759 6.192-4.237 10.222-4.237 3.931 0 7.371 1.478 10.123 4.237 2.85 2.759 4.226 6.503 4.226 11.134m46.094 0c0 4.532-1.376 8.276-4.128 11.133-2.85 2.759-6.191 4.138-10.221 4.138s-7.371-1.379-10.222-4.138c-2.752-2.857-4.127-6.601-4.127-11.133 0-4.631 1.375-8.375 4.127-11.134 2.851-2.759 6.192-4.237 10.222-4.237s7.371 1.478 10.221 4.237c2.752 2.759 4.128 6.503 4.128 11.134m113.812 62.664c-.59-.395-1.868-.887-3.932-1.478-1.966-.591-4.619-.887-8.059-.887-7.568 0-13.563 2.069-17.789 6.109-4.325 4.138-7.372 8.571-9.141 13.399v105.72h-24.276v-144.144h22.114v19.508h.688c.983-2.759 2.261-5.517 3.833-8.276 1.573-2.66 3.637-5.123 5.995-7.192 2.458-2.07 5.209-3.745 8.551-4.927s7.175-1.773 11.794-1.773c3.44 0 6.192.295 8.256.887 2.162.591 3.735 1.083 4.914 1.477m191.064-9.852c0 7.192-.884 13.498-2.653 18.917-1.868 5.321-4.325 9.951-7.372 13.892-3.145 3.941-6.683 7.094-10.811 9.459-4.029 2.365-8.354 4.237-12.678 5.419v.591c5.405.985 10.418 2.857 15.135 5.715 4.62 2.759 8.748 6.305 12.286 10.443 3.44 4.237 6.29 9.163 8.354 14.878 2.064 5.714 3.145 12.02 3.145 18.819 0 8.177-1.376 15.665-4.226 22.464-2.752 6.798-7.077 12.71-12.973 17.734-5.897 5.025-13.367 8.868-22.311 11.725-9.042 2.759-19.656 4.237-32.039 4.237h-42.263v-207.202h39.805c12.187 0 22.605 1.281 31.352 3.744 8.649 2.562 15.824 6.109 21.328 10.74 5.602 4.532 9.631 10.148 12.187 16.651 2.457 6.503 3.735 13.695 3.735 21.774m-26.341.887c0-9.656-3.44-17.538-10.221-23.745-6.782-6.208-17.396-9.262-32.04-9.262h-13.759v71.432h13.465c13.956 0 24.571-3.449 31.745-10.247 7.175-6.799 10.811-16.159 10.811-28.179m3.833 95.373c0-11.134-3.636-20.001-10.909-26.504s-17.691-9.755-31.255-9.755h-17.691v72.615h16.217c15.332 0 26.439-3.055 33.318-9.163 6.88-6.109 10.319-15.173 10.319-27.193m84.132 58.033h-24.177v-144.144h24.177zm-11.892-178.927c-5.012 0-9.042-1.576-11.99-4.828-3.047-3.153-4.521-7.389-4.521-12.611 0-5.025 1.474-9.065 4.521-12.316 2.948-3.153 6.978-4.828 11.99-4.828 4.718 0 8.649 1.675 11.598 4.828 3.046 3.251 4.521 7.291 4.521 12.316 0 5.222-1.475 9.458-4.521 12.611-2.949 3.252-6.88 4.828-11.598 4.828m73.024 145.229c0 6.01.785 10.247 2.555 12.611 1.671 2.464 4.62 3.646 8.846 3.646 2.161 0 4.029-.197 5.504-.591 1.474-.395 2.653-.789 3.44-1.281l2.063 18.03c-1.18.591-3.342 1.38-6.585 2.463-3.145.986-7.47 1.478-12.875 1.478-8.158 0-14.743-2.561-19.755-7.488-4.915-5.025-7.47-13.892-7.47-26.701v-180.7l24.276-2.759m37.741 145.032c0-14.68 1.867-26.897 5.701-36.651 3.734-9.853 8.649-17.735 14.644-23.745s12.777-10.247 20.345-12.71c7.568-2.562 15.135-3.744 22.801-3.744 4.522 0 8.551.295 11.893.985 3.44.788 6.192 1.576 8.452 2.561v-68.969l24.276-2.759v214.985h-22.212v-15.37h-.589c-.589 1.182-1.67 2.857-3.243 4.926-1.671 2.168-3.833 4.237-6.683 6.306-2.752 2.168-6.29 3.941-10.418 5.419-4.227 1.478-9.141 2.266-14.743 2.266-6.683 0-13.17-1.38-19.264-4.04-6.093-2.66-11.4-6.995-16.02-12.907-4.619-5.912-8.255-13.498-10.909-22.858-2.654-9.262-4.03-20.494-4.03-33.696m56.906 51.924c3.735 0 7.175-.492 10.123-1.576 3.047-.985 5.602-2.168 7.765-3.744 2.259-1.478 4.128-3.054 5.602-4.631 1.474-1.576 2.653-2.956 3.44-4.237v-88.772c-2.26-1.478-4.718-2.66-7.666-3.645-2.851-.985-6.487-1.478-10.91-1.478-5.602 0-10.811.887-15.725 2.857-4.915 1.872-9.141 5.025-12.679 9.459-3.636 4.335-6.487 10.05-8.551 17.144-2.161 6.995-3.145 15.567-3.145 25.714 0 10.05.785 18.425 2.556 25.125 1.67 6.7 4.029 12.119 6.978 16.158 3.047 4.138 6.388 7.094 10.221 8.868 3.735 1.872 7.765 2.758 11.991 2.758m188.901 18.031h-22.212v-16.257h-.589c-.589 1.182-1.867 2.956-3.833 5.222-1.965 2.266-4.62 4.532-7.666 6.601-3.047 2.069-6.782 3.941-11.205 5.616-4.422 1.577-9.337 2.365-14.644 2.365-6.487 0-12.187-.985-17.298-2.857-5.012-1.873-9.435-4.927-12.973-9.164-3.637-4.138-6.389-9.655-8.256-16.355s-2.85-14.976-2.85-24.73v-94.586h24.275v92.812c0 11.922 1.965 20.494 5.798 25.617 3.932 5.123 9.927 7.685 18.183 7.685 6.978 0 12.875-1.773 17.592-5.321 4.816-3.448 8.649-6.897 11.401-10.345v-110.449h24.276m115.583 144.144v-92.813c0-12.217-2.063-20.986-6.192-26.307-4.029-5.222-10.32-7.882-18.674-7.882-7.174 0-13.17 1.773-17.985 5.419-4.816 3.546-8.551 7.094-11.303 10.443v111.138h-24.276v-144.144h22.113v16.257h.589c.589-1.183 1.867-2.956 3.932-5.321 1.965-2.266 4.521-4.434 7.764-6.601 3.145-2.069 6.978-3.941 11.401-5.518 4.324-1.576 9.337-2.364 14.939-2.364 6.388 0 12.187.886 17.396 2.857 5.209 1.872 9.534 4.926 13.17 9.065 3.539 4.236 6.389 9.754 8.354 16.355 1.965 6.7 2.949 14.976 2.949 24.829v94.586m139.269-125.227h-17.986c4.619 7.587 6.978 16.257 6.978 25.813 0 7.587-1.278 14.484-3.833 20.593-2.459 6.108-5.996 11.232-10.418 15.468-4.522 4.139-9.829 7.39-15.922 9.558-6.094 2.266-12.581 3.35-19.559 3.35h-3.931c-1.18 0-2.459-.197-3.833-.395-2.459 1.084-4.915 2.661-7.568 4.828-2.556 2.266-3.833 5.124-3.833 8.769 0 2.956 1.082 5.419 3.439 7.291 2.26 1.971 5.996 2.857 11.205 2.857h18.281c6.781 0 13.071.69 18.87 2.168 5.799 1.38 10.811 3.646 15.136 6.7 4.226 3.153 7.568 7.094 10.025 11.922 2.357 4.729 3.538 10.542 3.538 17.341 0 7.783-1.671 14.877-4.914 21.281-3.342 6.405-7.961 11.922-13.957 16.553-5.995 4.631-13.268 8.178-21.818 10.838-8.551 2.562-18.183 3.843-28.797 3.843-15.332 0-27.027-3.35-34.988-10.05s-11.991-16.356-11.991-28.966c0-5.419.984-10.05 2.851-13.893 1.867-3.941 4.127-7.291 6.781-10.247 2.555-2.955 5.209-5.221 7.863-6.896 2.752-1.676 4.914-3.055 6.486-4.04v-.591c-6.191-4.631-9.238-11.331-9.238-20.1 0-3.843.687-7.193 2.161-9.951 1.573-2.759 3.244-5.124 5.111-6.897 1.867-1.774 3.833-3.252 5.701-4.336 1.867-1.083 3.341-1.872 4.324-2.266v-.591c-7.371-3.448-13.366-8.769-17.789-16.06-4.521-7.291-6.782-16.651-6.782-28.081 0-7.98 1.377-15.074 3.932-21.183s6.093-11.133 10.418-15.173c4.423-3.941 9.632-6.995 15.43-8.966 5.897-1.971 12.286-2.956 19.067-2.956 6.782 0 13.17 1.183 19.166 3.547h43.736m-70.077 139.614c-4.226 0-7.863-.295-11.106-.985-1.769 1.084-3.538 2.266-5.209 3.646-1.769 1.379-3.243 3.153-4.718 5.123-1.376 1.971-2.458 4.335-3.44 6.996-.885 2.758-1.278 5.911-1.278 9.458 0 15.469 8.453 23.154 25.455 23.154 14.547 0 25.357-2.857 32.337-8.572 6.978-5.714 10.418-12.217 10.418-19.606 0-6.996-2.161-12.021-6.585-14.878-4.324-2.857-10.222-4.335-17.593-4.335m13.76-94.881c0-10.444-2.458-17.834-7.371-22.169-4.915-4.434-10.615-6.601-17.2-6.601-6.978 0-12.974 2.167-17.986 6.601-5.012 4.335-7.469 11.724-7.469 22.169 0 10.444 2.458 17.833 7.469 22.168 5.012 4.434 10.811 6.602 17.396 6.602 6.978 0 12.875-2.168 17.79-6.602 4.914-4.335 7.371-11.724 7.371-22.168m-1029.42 402.079h-22.114v-16.257h-.589c-.59 1.182-1.966 2.956-3.932 5.222s-4.521 4.532-7.666 6.601c-3.047 2.069-6.781 3.941-11.204 5.616-4.325 1.577-9.239 2.365-14.644 2.365-6.389 0-12.187-.985-17.2-2.858-5.111-1.872-9.435-4.926-13.072-9.163-3.538-4.138-6.29-9.655-8.256-16.355-1.867-6.7-2.85-14.976-2.85-24.73v-94.587h24.276v92.813c0 11.922 1.966 20.494 5.897 25.617 3.833 5.123 9.927 7.685 18.084 7.685 6.979 0 12.876-1.773 17.691-5.321 4.816-3.448 8.551-6.897 11.303-10.345v-110.449h24.276m115.583 144.144v-92.813c0-12.217-2.064-20.986-6.094-26.307-4.128-5.222-10.32-7.882-18.772-7.882-7.175 0-13.17 1.773-17.888 5.419-4.816 3.547-8.649 7.094-11.4 10.443v111.138h-24.276v-144.144h22.113v16.257h.59c.688-1.183 1.966-2.956 3.931-5.321 1.966-2.266 4.62-4.434 7.765-6.601 3.243-2.069 6.978-3.941 11.4-5.518 4.423-1.576 9.436-2.364 15.038-2.364 6.29 0 12.089.887 17.298 2.857 5.209 1.872 9.632 4.926 13.17 9.065 3.636 4.236 6.388 9.754 8.452 16.355 1.966 6.7 2.949 14.976 2.949 24.829v94.586m29.682-69.953c0-14.681 1.867-26.898 5.602-36.652 3.833-9.852 8.747-17.734 14.742-23.745 5.996-6.01 12.777-10.247 20.345-12.71 7.568-2.561 15.136-3.744 22.703-3.744 4.62 0 8.649.296 11.991.985 3.44.788 6.192 1.577 8.452 2.562v-68.97l24.178-2.759v214.986h-22.114v-15.371h-.589c-.59 1.183-1.671 2.858-3.342 4.927-1.572 2.167-3.735 4.236-6.585 6.305-2.752 2.168-6.29 3.941-10.418 5.419-4.226 1.478-9.14 2.266-14.743 2.266-6.781 0-13.169-1.379-19.263-4.04-6.093-2.66-11.499-6.995-16.02-12.907-4.619-5.911-8.256-13.498-10.91-22.858-2.752-9.262-4.029-20.494-4.029-33.695m56.807 51.924c3.833 0 7.175-.493 10.222-1.577 2.948-.985 5.602-2.167 7.764-3.744 2.162-1.478 4.03-3.054 5.504-4.63 1.573-1.577 2.654-2.956 3.538-4.237v-88.772c-2.26-1.478-4.816-2.661-7.666-3.646-2.949-.985-6.585-1.478-10.91-1.478-5.602 0-10.909.887-15.725 2.858-4.914 1.872-9.14 5.025-12.777 9.458-3.538 4.336-6.388 10.05-8.55 17.144-2.064 6.897-3.145 15.567-3.145 25.715 0 10.05.884 18.425 2.555 25.124 1.769 6.7 4.03 12.119 7.076 16.159 2.949 4.138 6.389 7.094 10.222 8.867 3.735 1.872 7.764 2.759 11.892 2.759m156.959 18.03v-207.201h101.427l-1.768 20.789h-73.615v76.456h67.914v20.789h-67.914v89.168m93.665-72.122c0-13.203 1.573-24.534 4.62-34.19 3.145-9.656 7.273-17.44 12.58-23.548 5.307-6.109 11.401-10.641 18.281-13.498 6.88-2.956 14.251-4.336 22.015-4.336 7.961 0 15.333 1.38 22.212 4.336 6.684 2.857 12.581 7.389 17.593 13.498s8.944 13.892 11.892 23.548c2.851 9.655 4.325 20.986 4.325 34.19 0 13.399-1.475 24.927-4.521 34.583-2.949 9.557-7.175 17.439-12.384 23.548-5.307 6.108-11.499 10.542-18.477 13.301-6.979 2.857-14.35 4.236-22.114 4.236-7.961 0-15.332-1.379-22.212-4.236-6.782-2.759-12.679-7.193-17.593-13.301-5.012-6.109-8.944-13.893-11.892-23.45-2.85-9.458-4.324-21.085-4.324-34.681m88.356 0c0-19.213-2.752-33.106-8.354-41.876-5.602-8.67-13.465-13.005-23.391-13.005-10.025 0-17.692 4.335-23.195 13.005-5.504 8.77-8.256 22.662-8.256 41.876 0 19.212 2.85 33.006 8.354 41.479 5.602 8.375 13.465 12.611 23.391 12.611 10.025 0 17.692-4.236 23.195-12.611 5.504-8.474 8.256-22.267 8.256-41.479m118.826-50.741c-.589-.395-1.867-.887-3.833-1.478-2.063-.591-4.718-.887-8.158-.887-7.567 0-13.464 2.069-17.789 6.109-4.325 4.138-7.371 8.571-9.14 13.399v105.72h-24.277v-144.144h22.213v19.508h.588c.984-2.759 2.26-5.517 3.932-8.276 1.572-2.66 3.538-5.123 5.897-7.193 2.458-2.069 5.307-3.744 8.55-4.926 3.342-1.182 7.273-1.773 11.893-1.773 3.341 0 6.093.295 8.255.887 2.064.591 3.637 1.083 4.915 1.477m81.673 29.461c-1.572-1.872-4.422-4.336-8.649-7.39-4.226-3.153-9.631-4.63-16.511-4.63-6.389 0-11.205 1.477-14.644 4.433-3.342 3.055-5.013 6.602-5.013 10.838 0 5.419 1.475 9.853 4.619 13.4 3.047 3.449 7.765 7.193 14.251 11.232l8.944 5.419c9.73 5.813 17.495 12.02 22.999 18.72 5.602 6.7 8.452 15.37 8.452 26.01 0 11.331-4.03 20.986-11.892 28.769-7.863 7.784-19.166 11.725-34.007 11.725-5.701 0-10.812-.591-15.234-1.773-4.325-1.281-8.256-2.661-11.499-4.237-3.342-1.576-6.094-3.35-8.256-5.222-2.162-1.971-4.03-3.645-5.406-5.321l11.696-19.212c1.18 1.281 2.653 2.66 4.324 4.236 1.769 1.577 3.735 3.153 6.192 4.631 2.358 1.576 5.111 2.759 8.059 3.744 3.047 1.084 6.487 1.577 10.517 1.577 7.174 0 12.678-1.675 16.413-4.828 3.833-3.252 5.701-7.094 5.701-11.725 0-3.448-.491-6.306-1.377-8.867-.885-2.464-2.259-4.73-4.029-6.7-1.769-2.069-3.931-3.941-6.585-5.715-2.556-1.773-5.602-3.842-8.944-6.01l-9.042-5.714c-8.944-5.813-16.02-11.922-21.033-18.326-5.11-6.405-7.666-14.582-7.666-24.632 0-5.419 1.082-10.345 3.145-14.877 2.064-4.434 5.013-8.375 8.846-11.627 3.735-3.349 8.256-5.911 13.268-7.783 5.111-1.971 10.517-2.857 16.414-2.857 5.504 0 10.319.492 14.349 1.576 3.931 1.182 7.371 2.562 10.32 4.237 2.85 1.675 5.307 3.448 7.174 5.123s3.44 3.153 4.62 4.335m112.337 16.159c-.687-.592-1.573-1.478-2.85-2.661-1.377-1.182-2.949-2.364-5.013-3.645-1.965-1.182-4.324-2.168-7.175-3.153-2.751-.887-5.995-1.281-9.533-1.281-5.209 0-10.025.985-14.546 2.857s-8.354 4.927-11.696 9.163c-3.243 4.138-5.897 9.656-7.764 16.356s-2.851 14.779-2.851 24.435c0 10.641.886 19.508 2.556 26.701 1.671 7.192 4.029 13.005 6.978 17.242 3.047 4.335 6.684 7.39 11.008 9.36 4.226 1.872 8.944 2.857 14.153 2.857 7.371 0 13.071-1.379 16.905-3.941 3.931-2.561 6.683-4.729 8.255-6.306l9.927 16.849c-.984 1.182-2.458 2.561-4.423 4.335-1.867 1.675-4.324 3.35-7.273 4.926-2.949 1.577-6.683 2.956-10.91 4.04-4.324 1.084-9.238 1.675-14.84 1.675-7.961 0-15.431-1.281-22.507-3.941-6.978-2.562-13.072-6.897-18.183-12.907-5.209-6.01-9.337-13.794-12.285-23.351-3.047-9.656-4.521-21.578-4.521-35.766 0-13.794 1.769-25.518 5.406-35.075 3.636-9.656 8.255-17.341 14.054-23.253 5.799-5.911 12.188-10.246 19.362-12.907 7.076-2.759 14.153-4.039 21.328-4.039 5.405 0 10.123.492 14.251 1.477 4.128.986 7.568 2.266 10.516 3.745 2.85 1.477 5.307 3.054 7.175 4.827 1.867 1.676 3.44 3.153 4.619 4.336m103.885 133.308v-92.813c0-12.217-2.063-20.986-6.093-26.307-4.128-5.222-10.32-7.882-18.772-7.882-7.175 0-13.17 1.773-17.986 5.418-4.718 3.547-8.551 7.094-11.303 10.444v111.138h-24.276v-212.229l24.276-2.759v85.521h.589c.785-1.182 2.063-2.759 3.735-4.729 1.67-2.069 4.029-4.04 6.978-6.01 3.047-2.069 6.683-3.744 11.008-5.321 4.226-1.478 9.337-2.168 15.037-2.168 12.58 0 22.605 4.04 29.976 12.316 7.372 8.178 11.106 21.775 11.106 40.791v94.586m136.811 0h-22.114v-16.257h-.687c-.49 1.182-1.867 2.956-3.833 5.222-1.965 2.266-4.521 4.532-7.666 6.601-3.047 2.069-6.781 3.941-11.204 5.616-4.423 1.577-9.239 2.365-14.644 2.365-6.389 0-12.188-.985-17.2-2.857-5.111-1.872-9.435-4.927-13.072-9.163-3.636-4.138-6.29-9.656-8.256-16.356-1.867-6.7-2.85-14.976-2.85-24.73v-94.586h24.276v92.813c0 11.921 1.965 20.493 5.897 25.616 3.834 5.123 9.829 7.685 18.085 7.685 6.978 0 12.875-1.773 17.69-5.32 4.718-3.449 8.551-6.897 11.303-10.346v-110.449h24.276m115.583 144.144v-92.812c0-12.218-2.063-20.987-6.192-26.308-4.03-5.222-10.222-7.882-18.674-7.882-7.174 0-13.17 1.773-17.986 5.419-4.717 3.547-8.551 7.094-11.302 10.444v111.137h-24.276v-144.144h22.113v16.257h.589c.687-1.182 1.965-2.956 3.931-5.321 1.965-2.266 4.62-4.433 7.765-6.601 3.243-2.069 6.978-3.941 11.401-5.518 4.423-1.576 9.337-2.364 14.939-2.364 6.388 0 12.187.887 17.396 2.857 5.209 1.872 9.533 4.926 13.17 9.065 3.636 4.236 6.388 9.754 8.354 16.355 1.965 6.7 3.047 14.976 3.047 24.829v94.586m139.168-125.227h-17.888c4.521 7.587 6.88 16.257 6.88 25.814 0 7.586-1.278 14.483-3.735 20.592-2.555 6.109-5.995 11.232-10.516 15.469-4.521 4.138-9.828 7.389-15.824 9.557-6.093 2.266-12.678 3.35-19.656 3.35h-3.932c-1.18 0-2.458-.197-3.833-.394-2.458 1.083-4.914 2.66-7.469 4.827-2.654 2.266-3.931 5.124-3.931 8.769 0 2.956 1.18 5.419 3.439 7.291 2.26 1.971 5.996 2.858 11.205 2.858h18.282c6.782 0 13.072.689 18.871 2.167 5.798 1.38 10.811 3.646 15.135 6.7 4.325 3.153 7.666 7.094 10.025 11.922 2.358 4.729 3.538 10.542 3.538 17.341 0 7.783-1.572 14.877-4.914 21.282-3.243 6.404-7.961 11.922-13.858 16.552-5.995 4.631-13.366 8.178-21.917 10.838-8.551 2.562-18.183 3.843-28.698 3.843-15.431 0-27.028-3.35-35.087-10.05-7.961-6.7-11.99-16.356-11.99-28.966 0-5.419.983-10.05 2.85-13.892 1.965-3.942 4.128-7.291 6.781-10.247 2.556-2.956 5.209-5.222 7.961-6.897 2.654-1.675 4.816-3.055 6.389-4.04v-.591c-6.192-4.631-9.239-11.331-9.239-20.1 0-3.842.687-7.192 2.26-9.951 1.474-2.759 3.145-5.123 5.012-6.897s3.833-3.252 5.7-4.335c1.867-1.084 3.342-1.872 4.325-2.266v-.592c-7.371-3.448-13.268-8.769-17.789-16.06s-6.683-16.651-6.683-28.08c0-7.981 1.278-15.075 3.833-21.184 2.653-6.108 6.093-11.133 10.516-15.173 4.423-3.941 9.533-6.995 15.43-8.966 5.898-1.97 12.188-2.956 18.969-2.956s13.17 1.183 19.165 3.547h43.737m-70.077 139.615c-4.227 0-7.863-.296-11.106-.986-1.769 1.084-3.539 2.266-5.209 3.646-1.671 1.379-3.244 3.153-4.62 5.123-1.474 1.971-2.555 4.336-3.44 6.996-.983 2.759-1.376 5.912-1.376 9.458 0 15.469 8.452 23.154 25.455 23.154 14.546 0 25.357-2.857 32.336-8.571 6.979-5.715 10.517-12.218 10.517-19.607 0-6.996-2.26-12.021-6.585-14.878-4.423-2.857-10.32-4.335-17.691-4.335m13.759-94.881c0-10.444-2.458-17.834-7.371-22.169-4.914-4.434-10.614-6.601-17.199-6.601-6.979 0-12.974 2.167-17.986 6.601-4.915 4.335-7.47 11.725-7.47 22.169s2.556 17.833 7.47 22.168c5.012 4.434 10.811 6.602 17.396 6.602 6.978 0 12.875-2.168 17.789-6.602 4.914-4.335 7.371-11.724 7.371-22.168" fill-rule="nonzero"/></svg>