<svg clip-rule="evenodd" fill-rule="evenodd" stroke-linejoin="round" stroke-miterlimit="2" viewBox="0 0 5592 3388" xmlns="http://www.w3.org/2000/svg"><path d="m.965.454h5587.21v3386.17h-5587.21z" fill="#6396dc"/><path d="m3170.41 2556.53c2.564 234.105 147.855 434.183 352.963 517.19v242.685c0 23.786-19.282 43.069-43.069 43.069 0 0-217.889.598-270.669.336-20.428-.102-42.55-15.653-42.717-44.997-.055-9.746 1.5-22.771 2.333-68.181 1.462-79.576 2.737-251.083 1.482-620.731zm1732.51 217.502 1.019 178.194-146.01 32.876c-22.282 3.846-41.954 3.392-63.983-1.713l-7.906-2.661v-245.378c4.738-1.756 9.645-3.17 14.685-4.305l201.34-45.333zm-1379.55-652.625v220.329c-53.435 53.258-86.523 126.94-86.523 208.29s33.088 155.033 86.523 208.291v220.328c-157.765-78.074-266.322-240.769-266.322-428.619 0-187.849 108.557-350.545 266.322-428.619zm1465.32 544.801 270.904-60.997c70.109-15.786 139.844 28.318 155.63 98.427 15.786 70.108-28.318 139.844-98.426 155.629l-326.166 73.44-.905-159.404zm-1818.33-120.669c-.83-235.766-1.821-351.183-2.573-407.694-.713-53.606-1.209-53.864-1.209-53.864-.26-11.587 4.161-22.79 12.264-31.077s19.204-12.958 30.794-12.958h270.669c3.278 0 6.47.366 9.519 1.136-187.803 90.803-317.826 282.469-319.464 504.457z" fill="#8fb3b3"/><path d="m2179.52 2026.72c0-23.97-19.432-43.402-43.403-43.402-193.24 0-368.187 78.326-494.823 204.962-126.636 126.637-204.963 301.583-204.963 494.824 0 193.112 78.385 368.063 205.054 494.732 126.669 126.67 301.62 205.054 494.732 205.054 193.113 0 368.063-78.384 494.733-205.054 126.669-126.669 205.053-301.62 205.053-494.732 0-92.798-18.431-183.695-53.268-267.797-34.836-84.102-86.077-161.409-151.694-227.027-16.95-16.95-44.431-16.95-61.381 0l-232.067 232.067c-16.949 16.95-16.949 44.431 0 61.381 26.705 26.704 47.558 58.165 61.735 92.392 14.177 34.226 21.678 71.218 21.678 108.984 0 78.588-31.909 149.781-83.458 201.33s-122.742 83.458-201.331 83.458c-78.588 0-149.781-31.909-201.33-83.458s-83.458-122.742-83.458-201.33c0-78.643 31.876-149.84 83.412-201.376 51.537-51.537 122.734-83.413 201.376-83.413 23.971 0 43.403-19.432 43.403-43.403zm2419.71 835.415c.187 8.113 1.215 16.324 3.065 24.541 10.198 45.29 42.909 79.728 83.741 94.053v292.276h214.685c.192-3.812.367-7.892.523-12.201 1.731-47.811 3.225-138.097 2.691-308.577l86.689-19.519c.76 184.982-.82 281.192-2.631 331.236-1.146 31.658-2.476 46.221-3.368 52.925-1.098 8.246-2.417 11.845-2.997 13.493-3.536 10.033-7.44 13.449-8.964 15.133-7.126 7.877-12.772 9.809-15.298 10.879-4.475 1.894-7.497 2.424-8.911 2.69-1.766.332-2.878.443-3.321.492-.249.027-.374.039-.374.039-1.436.144-2.879.216-4.323.216h-297.804c-23.971 0-43.403-19.432-43.403-43.403zm-2506.52-790.487c-151.972 10.618-288.675 76.647-390.04 178.013-110.928 110.928-179.538 264.173-179.538 433.443 0 169.155 68.674 322.396 179.629 433.351s264.196 179.629 433.351 179.629c169.156 0 322.397-68.674 433.352-179.629s179.629-264.196 179.629-433.351c0-81.287-16.146-160.908-46.661-234.578-25.061-60.505-59.816-116.995-103.28-167.081l-171.406 171.405c21.307 26.95 38.65 56.606 51.675 88.051 18.498 44.659 28.286 92.926 28.286 142.203 0 102.545-41.62 195.448-108.883 262.711-67.264 67.263-160.166 108.883-262.712 108.883-102.545 0-195.448-41.62-262.711-108.883s-108.883-160.166-108.883-262.711c0-102.613 41.592-195.512 108.837-262.757 57.623-57.623 134.082-96.409 219.355-106.301zm2506.77 312.292 86.559-.154v351.565c-51.985 18.196-86.426 67.329-86.806 121.418v-612.027zm389.205 282.269-86.621 19.504-2.927-302.305 86.808-.154zm33.343-1772.13c-60.071-34.479-178.787-102.469-247.617-140.913-192.275-107.39-141.886-303.38-133.879-327.226 18.708-55.713 118.494-270.504 177.048-331.638 28.373-29.623 163.528-163.134 451.18-31.151 98.515 45.201 287.179 127.513 287.179 127.513 11.479 5.008 20.235 14.731 24.019 26.67 3.783 11.939 2.225 24.93-4.275 35.636 0 0-153.134 252.225-153.134 252.225-11.453 18.863-35.237 26.13-55.277 16.888 0 0-230.851-106.46-285.512-131.426-92.991-42.473-174.504-32.794-237.174-8.016 19.539 34.581 55.009 70.174 114.776 103.106l254.575 139.117-20.534-11.148c-19.528-10.703-44.114-1.727-55.929 16.851l-128.724 202.4c-6.353 9.99-8.35 22.142-5.527 33.64 2.729 11.118 9.111 21.457 18.805 27.472l1.64.942c2.899 1.559 15.539 8.431 34.606 19.884-3.306-1.903-15.977-9.191-34.606-19.884-.421-.226-.637-.341-.637-.341-.338-.195-.673-.395-1.003-.601zm-1731.43-190.382 71.707-86.805h213.549l82.19 85.461c-3.259.933-6.686 1.349-10.19 1.344zm1533.34-405.732c78.778-28.995 179.54-38.495 293.888 13.732 41.404 18.911 183.795 84.532 250.622 115.345l107.304-176.738c-62.39-27.351-174.555-76.765-243.191-108.256-200.232-91.873-291.913-21.496-305.279-11.87-38.735 27.898-102.486 147.803-103.344 167.787z" fill="#d0dd7a"/><path d="m374.974 3105.75c-19.612 50.551-23.82 87.945-23.82 87.945-9.045 89.354-84.491 156.07-172.404 156.135h-.139l-17.67-.891c-79.278-8.025-140.735-68.319-153.455-143.241 8.879-48.902 46.996-87.644 95.563-97.498-8.744 36.452-10.977 59.158-10.988 59.268-4.825 47.666 29.956 90.282 77.622 95.107s90.282-29.956 95.107-77.622c.032-.322.067-.643.103-.965 0 0 3.41-31.823 18.281-78.238zm3114.85-1064.66c19.216 4.264 33.55 21.425 33.55 41.933v38.392c-157.765 78.074-266.322 240.77-266.322 428.619 0 187.85 108.557 350.545 266.322 428.619v95.075c-205.115-83.004-350.434-283.08-352.963-517.19l-.051-10.991c1.662-222.001 131.688-413.685 319.464-504.457zm1196.22 694.268v245.378c-40.832-14.325-73.543-48.763-83.741-94.053-1.85-8.217-2.878-16.428-3.065-24.541v-5.366c.398-54.1 34.824-103.237 86.806-121.418zm303.683 37.953.905 159.404-86.689 19.519-1.019-178.194-.855-88.32 86.621-19.504zm-4076.18-103.08 87.02 43.557c-71.916 58.667-169.254 106.938-302.772 129.726-12.906 2.203-25.337 4.819-37.245 7.976l-108.89-54.503c38.466-17.145 82.11-30.606 131.531-39.041 96.943-16.546 172.013-48.123 230.356-87.715zm2609.82-328.487v416.581c-53.435-53.258-86.523-126.941-86.523-208.291s33.088-155.032 86.523-208.29zm-2929.46 168.498 123.39 61.761c-19.453 5.964-40.533 10.918-63.319 14.807-120.095 20.497-214.749 63.145-289.121 116.677l-86.905-43.499c79.788-65.616 182.949-120.237 315.955-149.746zm4008.74-360.778 3.922-7.225 5.299-6.473c1.854-1.868 3.876-3.568 6.091-5.002l.555-.457.953-.509 2.551-1.633 3.081-1.378.937-.501.575-.175c2.401-1.041 4.94-1.791 7.565-2.302l8.567-.853-6.133.608 6.029-.608h297.804l.556.003c23.497.295 42.54 19.276 42.843 42.842l2.106 217.46-86.808.154-1.682-173.653h-211.416v174.031l-86.559.154-.247-139.198v-78.39c0-5.962 1.202-11.643 3.384-16.807zm-3570.51-122.737c80.605 2.592 150.967 61.862 165.018 144.516l.925 7.043c-10.252 41.265-41.642 74.192-81.999 86.68.71-48.107-4.528-79.32-4.502-79.164-8.035-47.23-52.904-79.052-100.135-71.016s-79.052 52.905-71.016 100.135l-.188-1.064s3.992 22.485 3.396 56.542h-86.107c.299-24.65-2.677-40.918-2.677-40.918-16.071-94.462 47.635-183.831 142.033-200.271 11.543-2.01 23.015-2.82 34.3-2.483zm3579.42 109.421-4.984 6.091.08-.147zm-4495.17-806.637-2.378 10.357h248.658c13.236-55.44 60.244-171.58 103.153-299.258.398 158.424-1.291 243.99-3.207 290.197-1.312 31.658-3.253 46.251-4.305 52.956-.348 2.22-.385 2.214-.629 3.405-.315 1.536-.767 3.355-1.241 5.023-.476 1.674-1.795 4.954-1.795 4.954-.99 2.439-2.242 4.947-3.591 7.11-1.52 2.439-3.148 4.457-4.346 5.621-1.263 1.227-1.719 1.784-4.327 4.196-1.229 1.137-2.696 2.309-3.28 2.739-5.782 4.261-9.919 5.54-11.667 6.249-4.986 1.929-8.507 2.547-10.126 2.813-2.023.332-3.257.474-3.765.522-.285.027-.445.041-.445.041s-1.502.136-2.603.181c-.782.031-2.342.056-2.342.056h-341.054c-9.924 0-18.936-2.648-26.498-7.046-6.882-4.002-12.565-9.444-16.578-15.849-2.196-3.505-3.87-7.293-5.011-11.241-1.054-3.646-1.371-6.895-1.44-7.692l-.074-.909c-.102-1.36-.007-4.221.323-6.739.081-.62.177-1.22.287-1.772 8.083-40.407 35.803-180.814 98.281-374.597v328.683zm5120.02-692.364-177.281 278.28c-21.836-13.115-36.087-20.739-36.087-20.739-10.257-5.912-16.985-16.575-19.808-28.073s-.826-23.65 5.527-33.64l128.724-202.4c11.815-18.578 36.401-27.554 55.929-16.851l20.534 11.148zm-982.985 157.897-60.853 86.806h-176.295l-74.71-86.806zm-3892-332.794c30.312-46.444 62.979-90.133 98.089-129.892l1.381 138.115c-11.026 15.251-21.636 30.958-31.977 46.968-23.372 36.186-65.829 112.447-65.829 112.447z" fill="#f4f45f"/><path d="m374.974 3105.75h617.748c67.355 0 122.039 54.684 122.039 122.04 0 67.355-54.684 122.04-122.039 122.04h-813.972c87.913-.065 163.359-66.781 172.404-156.135 0 0 4.208-37.394 23.82-87.945zm-91.8 0c-14.871 46.415-18.281 78.238-18.281 78.238-.036.322-.071.643-.103.965-4.825 47.666-47.441 82.447-95.107 77.622s-82.447-47.441-77.622-95.107c.011-.11 2.244-22.816 10.988-59.268 7.88-1.61 16.031-2.45 24.376-2.45zm738.077-1079.03c3.326-.099 6.637-.098 9.932 0h-9.932c-8.059.238-16.196 1.06-24.368 2.483-94.398 16.44-158.104 105.809-142.033 200.271s2.976 16.268 2.677 40.918h-532.789c-67.243 0-121.836-54.593-121.836-121.836s54.593-121.836 121.836-121.836zm-77.617 243.672c.596-34.057-3.396-56.542-3.396-56.542l.188 1.064c-8.036-47.23 23.785-92.099 71.016-100.135s92.1 23.786 100.135 71.016c-.026-.156 5.212 31.057 4.502 79.164-11.384 3.534-23.485 5.433-36.026 5.433zm4292.77-1633.25s165.457 78.09 255.015 195.849c36.977 48.621 60.724 105.18 53.461 156.374-6.484 45.706-38.293 93.068-101.919 135.979 55.488 71.988 85.017 147.962 70.141 216.533-10.572 48.733-42.602 95.95-108.104 135.899-47.844 29.18-140.426 34.028-247.032 20.759-223.909-27.869-515.054-124.244-515.054-124.244-16.705-5.538-28.413-20.615-29.64-38.171l-23.926-342.158c-.987-14.107 4.961-27.811 15.941-36.724 10.979-8.913 25.612-11.919 39.216-8.054 0 0 311.709 88.638 540.622 117.128 31.793 3.957 61.911 6.772 89.204 7.926-78.248-73.137-166.915-130.135-215.206-158.815l46.584-73.124c61.638 38.884 184.843 121.672 279.195 217.24 43.198-26.665 65.739-53.269 69.867-82.367 3.007-21.2-4.194-42.251-16.025-62.917-14.934-26.087-37.397-51.134-62.746-74.542-62.222-57.458-141.879-104.625-186.51-128.927zm-4776.89-304.789c118.572-135.281 263.526-225.88 435.764-225.88 237.57 0 375.848 168.492 451.224 389.829 126.591 371.725 73.971 891.383 73.971 891.383-2.267 22.144-20.918 38.983-43.177 38.983h-354.102c-12.442 0-24.286-5.339-32.524-14.663-8.239-9.323-12.08-21.734-10.549-34.082 0 0 37.202-298.717 8.788-534.879-9.123-75.824-24.611-145.009-51.923-193.598-18.538-32.979-42.188-55.756-76.578-55.756-37.404 0-71.292 23.622-103.877 58.347-43.852 46.733-83.407 113.866-118.719 188.237-104.944 221.028-179.469 543.274-179.469 543.274 1.022-6.705 2.96-21.088 4.272-52.746 1.916-46.207 3.605-131.773 3.207-290.197 37.295-111.512 84.934-231.825 141.017-328.19 36.272-62.324 76.259-114.9 118.705-150.529 42.412-35.599 87.837-55.002 134.864-55.002 52.345 0 94.555 22.968 127.736 63.685 32.463 39.837 56.032 98.724 71.336 168.109 43.773 198.456 22.82 487.34 11.929 601.185h265.988c9.148-124.037 27.944-518.967-73.066-815.577-62.666-184.015-171.543-331.007-369.053-331.007-179.883 0-321.981 118.589-434.383 277.189l-1.381-138.115zm4220.69 716.494 17.615 251.906c76.1 23.971 294.916 89.741 470.872 111.641 52.848 6.578 101.609 9.257 140.707 4.927 20.544-2.275 37.941-6.054 50.404-13.655 37.544-22.897 59.529-47.641 67.272-75.356 9.013-32.261-1.357-66.415-20.264-100.933-12.747-23.271-29.531-46.464-48.869-69.173-6.255.868-12.784 1.564-19.576 2.083-44.021 3.359-101.069-.007-163.958-7.834-172.473-21.466-390.867-76.185-494.203-103.606zm-1389.6-345.147h-21.069c-13.473.029-26.194-6.201-34.433-16.86-8.239-10.66-11.06-24.541-7.637-37.571 0 0 89.869-341.153 381.657-515.346 151.833-90.643 358.191-137.466 635.167-66.241 19.183 4.933 32.593 22.228 32.593 42.035v269.279c0 11.75-4.764 22.998-13.204 31.174-8.439 8.176-19.833 12.58-31.578 12.206 0 0-220.373-7.466-385.791 75.062-72.529 36.185-134.724 90.127-156.377 173.74-4.086 15.776-16.532 27.63-31.882 31.178l-82.19-85.461h40.315c34.318-91.515 106.281-154.675 191.381-197.132 135.275-67.49 303.612-81.195 382.521-83.733v-192.144c-231.736-52.349-406.518-13.003-536.46 64.571-193.606 115.58-287.967 313.206-323.997 408.438h32.691z" fill="#acc599"/><path d="m1000.57 2713.78 73.561 36.82-123.237 246.21-290.341-145.328c11.908-3.157 24.339-5.773 37.245-7.976 133.518-22.788 230.856-71.059 302.772-129.726zm-283.265-141.785 196.245 98.228c-58.343 39.592-133.413 71.169-230.356 87.715-49.421 8.435-93.065 21.896-131.531 39.041l-186.798-93.5c74.372-53.532 169.026-96.18 289.121-116.677 22.786-3.889 43.866-8.843 63.319-14.807zm-123.39-61.761c-132.962 29.567-236.132 84.144-315.955 149.746l-68.186-34.13 123.237-246.209zm-477.111-1182.55c28.74-129.506 106.348-434.897 246.284-697.808l3.792 326.112c2.79 290.042-4.212 383.868-4.212 383.868h-248.658zm1819.71-223.563c-17.364-27.032-33.116-55.713-47.57-85.498-144.001-296.738-161.335-703.607-163.001-835.915h244.639c1.601 117.597 14.193 438.392 100.918 646.743 26.612 63.935 60.545 117.275 102.029 154.393zm-1580.51-633.789c-106.373 164.689-185.262 362.599-239.611 530.484v-790.461h242.537l2.499 251.883zm3302.05 232.017 29.438 30.609 153.895-170.935c16.688-18.536 40.542-28.998 65.482-28.719 24.939.278 48.554 11.27 64.823 30.174l127.716 148.393 103.771-148.026 142.159 99.658-91.914 131.113h-311.858l-37.134-43.146-150.331 166.977c-16.129 17.915-38.981 28.316-63.084 28.712-24.102.397-47.284-9.247-63.994-26.621l-156.196-162.411-136.208 164.887-133.849-110.568 89.838-108.753h357.256c3.504.005 6.931-.411 10.19-1.344zm534.517 179.072-15.071 21.498c-15.376 21.934-40.019 35.541-66.774 36.87-26.754 1.328-52.624-9.77-70.098-30.074l-24.352-28.294zm-830.256-264.533 36.668-44.388c15.762-19.081 38.919-30.527 63.65-31.46 24.731-.934 48.685 8.734 65.84 26.572l47.391 49.276z" fill="#88aeb9"/><path d="m1681.53 93.928c-24.166 0-43.893 19.33-44.384 43.492 0 0-10.42 544.237 171.918 919.974 101.579 209.321 261.875 366.464 508.652 366.464 246.873 0 407.211-157.461 508.783-367.174 182.203-376.19 171.786-920.857 171.786-920.857-.492-24.242-20.343-43.605-44.59-43.493l-344.269 1.595c-12.308.057-24.041 5.222-32.396 14.261-8.354 9.039-12.581 21.141-11.67 33.416 0 0 24.728 328.851-42.447 574.222-17.338 63.334-40.668 120.975-73.251 164.444-32.844 43.819-75.421 72.266-131.946 72.266-41.34 0-74.716-20.226-102.54-51.95-40.779-46.495-69.853-115.768-91.841-192.828-70-245.326-64.119-568.662-64.119-568.662.208-11.906-4.376-23.398-12.722-31.891-8.347-8.494-19.756-13.279-31.665-13.279h-333.299zm-1664.02 1290.15-.115-.807v-1216.31c0-23.971 22.254-43.403 49.706-43.403h341.054c27.202 0 49.352 19.093 49.702 42.845l1.659 165.951c-35.067 39.719-67.766 83.423-98.089 129.892l-2.499-251.883h-242.537v790.461c-68.054 209.981-98.281 374.598-98.281 374.598l-.6 8.652zm345.161-44.21c.22-3.812.421-7.892.599-12.201 2.583-62.303 4.705-196.73 1.915-486.772l-2.094-211.007c19.966-35.438 43.127-76.937 65.829-112.447 10.266-16.057 20.951-31.717 31.977-46.968l3.697 369.693c.743 77.238 1.137 143.528 1.23 200.444-42.909 127.678-72.287 243.818-85.523 299.258zm1573.84-235.735c-17.364-27.032-33.116-55.713-47.57-85.498-144.001-296.738-161.335-703.607-163.001-835.915h244.639c1.601 117.597 14.193 438.392 100.918 646.743 26.404 63.436 60.016 116.442 101.058 153.52l.971.873c40.714 36.568 88.719 57.474 144.188 57.474 121.608 0 204.565-81.627 256.679-202.82 89.273-207.609 86.503-534.544 81.887-656.006l253.205-1.172c-1.679 132.659-19.055 539.667-162.896 836.654-86.344 178.271-219.015 317.089-428.875 317.089-173.291 0-293.959-94.527-379.196-227.787z" fill="#edef64"/><path d="m277.958 2659.98 86.905 43.499c-175.968 125.629-239.951 310.76-261.814 404.717-48.568 9.851-86.702 48.594-95.563 97.498-2.793-15.151-3.414-30.918-1.789-46.972 0 0 28.528-299.699 272.261-498.742zm3211.86-618.898c74.196-35.897 157.464-56.029 245.396-56.029 311.817 0 564.974 253.156 564.974 564.973 0 311.818-253.157 564.974-564.974 564.974-74.93 0-146.472-14.619-211.846-41.28v-95.075c63.853 31.753 135.788 49.549 211.846 49.549 263.908 0 478.168-214.26 478.168-478.168s-214.26-478.168-478.168-478.168c-76.058 0-147.993 17.797-211.846 49.549v-38.392c0-20.508-14.334-37.669-33.55-41.933zm-2938.16 755.897 108.89 54.503c-175.527 43.73-252.682 168.114-285.577 254.264h-91.8c28.3-89.712 98.861-233.925 268.487-308.767zm2971.71-455.243c53.235-53.087 126.654-85.913 207.679-85.913 162.375 0 294.203 131.828 294.203 294.203s-131.828 294.203-294.203 294.203c-81.025 0-154.444-32.825-207.679-85.912zm207.679.893c114.466 0 207.398 92.932 207.398 207.397 0 114.466-92.932 207.398-207.398 207.398-114.465 0-207.397-92.932-207.397-207.398 0-114.465 92.932-207.397 207.397-207.397zm-2532.97-164.351c5.713 44.522 28.275 290.976-134.674 475.158-18.472 20.879-39.286 41.176-62.836 60.344l-87.02-43.557c33.446-22.569 61.388-47.796 84.842-74.306 97.456-110.154 116.652-246.561 117.689-330.959 40.361-12.487 71.778-45.407 81.999-86.68zm-254.444 92.113c-.879 55.262-13.794 141.001-75.271 210.488-33.849 38.26-82.592 70.502-151.06 91.116l-123.39-61.761c14.729-3.36 29.908-6.345 45.466-9.001 78.059-13.322 130.959-40.56 163.97-77.873 44.656-50.474 53.746-112.835 54.178-152.969zm3955.51 113.016-213.098.378v-174.031h211.416zm-256.397-260.459.022-.002c90.394-.005 289.405-.015 289.405-.015v-164.07h531.857v260.417h-271.44v163.609l-206.639.366-2.106-217.46c-.306-23.751-19.646-42.845-43.399-42.845zm-701.184-1328.33 74.71 86.805h-86.22c-34.318 91.514-106.282 154.675-191.382 197.132-135.275 67.489-303.612 81.195-382.521 83.733v192.144c231.736 52.349 406.518 13.002 536.46-64.571 193.606-115.581 287.967-313.206 323.997-408.438h-24.039l60.853-86.805h23.271c13.473-.029 26.194 6.201 34.433 16.86 8.239 10.66 11.061 24.541 7.637 37.571 0 0-89.868 341.153-381.657 515.346-151.833 90.642-358.191 137.466-635.167 66.241-19.183-4.933-32.593-22.228-32.593-42.035v-269.279c0-11.75 4.764-22.998 13.204-31.174s19.834-12.58 31.578-12.207c0 0 220.373 7.467 385.791-75.061 72.529-36.185 134.724-90.127 156.378-173.741 4.963-19.168 22.271-32.546 42.071-32.521zm-3825.17 534.883v-328.683l.416-1.324c54.35-167.885 132.822-364.471 239.195-529.16l5.425-8.094 1.664 167.638-.128.249c-140.115 263.027-217.418 567.992-246.156 697.559z" fill="#dee56f"/></svg>