<svg clip-rule="evenodd" fill-rule="evenodd" stroke-linejoin="round" stroke-miterlimit="2" viewBox="0 0 884 184" xmlns="http://www.w3.org/2000/svg"><path d="m883.333 33.333c0-18.397-14.936-33.333-33.333-33.333h-816.667c-18.397 0-33.333 14.936-33.333 33.333v116.667c0 18.397 14.936 33.333 33.333 33.333h816.667c18.397 0 33.333-14.936 33.333-33.333z" fill="#a6c6f2" stroke="#a6c6f2" stroke-width="4.17"/><path d="m251.825 63.446v46.971h5.858v-16.763h11.817c8.821 0 15.104-6.221 15.104-15.008 0-8.95-6.154-15.2-15.041-15.2zm5.858 5.208h10.35c6.805 0 10.546 3.546 10.546 9.992 0 6.217-3.875 9.8-10.541 9.8h-10.355zm47.917 42.379c9.996 0 16.179-6.9 16.179-18.162 0-11.292-6.183-18.167-16.179-18.167-9.992 0-16.179 6.875-16.179 18.167 0 11.262 6.187 18.167 16.179 18.167zm0-5.041c-6.642 0-10.383-4.821-10.383-13.121 0-8.334 3.741-13.117 10.383-13.117s10.383 4.784 10.383 13.117c0 8.3-3.741 13.117-10.383 13.117zm66.475-30.667h-5.633l-6.9 28.063-.521-.001-7.846-28.062h-5.375l-7.842 28.063-.521-.001-6.9-28.062h-5.666l9.833 35.092h5.667l7.808-27.15h.521l7.846 27.15h5.696zm18.846 4.333c5.566 0 9.279 4.1 9.408 10.317h-19.333c.421-6.217 4.329-10.321 9.925-10.321zm9.246 21.675c-1.467 3.092-4.525 4.75-9.05 4.75-5.959 0-9.834-4.391-10.125-11.325v-.258h25.229v-2.15c0-10.904-5.763-17.642-15.234-17.642-9.637 0-15.82 7.159-15.82 18.196 0 11.1 6.083 18.129 15.82 18.129 7.684 0 13.15-3.708 14.78-9.7zm13.508 9.084h5.6v-21.746c0-4.946 3.875-8.529 9.212-8.529 1.109 0 3.125.196 3.584.325v-5.592c-.929-.11-1.864-.166-2.8-.167-4.654 0-8.692 2.413-9.734 5.834h-.52v-5.209h-5.338v35.084zm37.079-30.763c5.567 0 9.279 4.104 9.408 10.321h-19.337c.425-6.217 4.333-10.321 9.929-10.321zm9.246 21.679c-1.467 3.092-4.525 4.75-9.05 4.75-5.958 0-9.829-4.391-10.125-11.325v-.258h25.229v-2.15c0-10.904-5.762-17.642-15.233-17.642-9.638 0-15.821 7.159-15.821 18.196 0 11.1 6.087 18.129 15.821 18.129 7.683 0 13.15-3.708 14.779-9.7zm26.5 9.7c4.85 0 9.017-2.308 11.229-6.216h.521v5.6h5.337v-49.025h-5.595v19.466h-.492c-1.983-3.841-6.117-6.15-11-6.15-8.921 0-14.746 7.159-14.746 18.167 0 11.033 5.758 18.158 14.746 18.158zm1.3-31.279c6.35 0 10.321 5.075 10.321 13.117 0 8.104-3.942 13.116-10.321 13.116-6.413 0-10.254-4.916-10.254-13.116 0-8.167 3.875-13.117 10.254-13.117zm60.258 31.279c8.888 0 14.713-7.191 14.713-18.162 0-11.034-5.796-18.167-14.713-18.167-4.816 0-9.083 2.379-11.004 6.154h-.521v-19.466h-5.6v49.025h5.342v-5.6h.521c2.212 3.908 6.379 6.216 11.262 6.216zm-1.304-31.279c6.413 0 10.221 4.917 10.221 13.117 0 8.204-3.808 13.116-10.221 13.116-6.379 0-10.35-5.012-10.35-13.116s3.971-13.117 10.35-13.117zm25.167 43.358c6.216 0 9.016-2.408 12.008-10.545l13.708-37.242h-5.958l-9.604 28.875h-.521l-9.633-28.875h-6.054l12.987 35.125-.654 2.083c-1.463 4.229-3.221 5.763-6.442 5.763-.783 0-1.662-.034-2.346-.167v4.788c.784.129 1.759.195 2.509.195zm72.462-12.695 16.242-46.971h-8.95l-11.721 37.171h-.55l-11.817-37.171h-9.279l16.409 46.971zm33.4-29.917c4.85 0 8.042 3.387 8.204 8.658h-16.766c.358-5.208 3.746-8.658 8.562-8.658zm8.267 20.117c-1.171 2.637-3.938 4.104-7.942 4.104-5.304 0-8.725-3.709-8.921-9.638v-.421l24.871.001v-2.605c0-11.233-6.087-17.97-16.241-17.97-10.321 0-16.734 7.195-16.734 18.654 0 11.458 6.317 18.391 16.796 18.391 8.4 0 14.359-4.037 15.821-10.516zm14.779 9.8h8.075v-20.575c0-4.979 3.646-8.234 8.888-8.234 1.366 0 3.512.23 4.133.459v-7.492c-.75-.225-2.183-.354-3.354-.354-4.588 0-8.429 2.604-9.409 6.117l-.55-.001v-5.533h-7.783zm56.254-23.634c-.846-7.487-6.383-12.695-15.529-12.695-10.708-.001-16.992 6.87-16.992 18.424 0 11.721 6.317 18.621 17.025 18.621 9.017 0 14.617-5.012 15.496-12.466h-7.683c-.846 3.708-3.646 5.695-7.846 5.695-5.5.001-8.821-4.362-8.821-11.85 0-7.387 3.288-11.654 8.821-11.654 4.429 0 7.096 2.475 7.846 5.925zm21.321-6.283c4.85 0 8.042 3.387 8.204 8.658h-16.766c.358-5.208 3.745-8.658 8.562-8.658zm8.271 20.117c-1.175 2.637-3.942 4.104-7.946 4.104-5.304 0-8.721-3.709-8.917-9.638v-.421l24.867.001v-2.605c0-11.233-6.087-17.97-16.242-17.97-10.32 0-16.733 7.195-16.733 18.654 0 11.458 6.317 18.391 16.8 18.391 8.396 0 14.354-4.037 15.817-10.516zm15.104 9.8h8.071v-49.384h-8.071zm-704.592-56.25 38.855 66.666h-77.709z" fill="#6396dc" fill-rule="nonzero"/><path d="m181.25 0v183.333" fill="none" stroke="#6396dc" stroke-linejoin="miter" stroke-miterlimit="4" stroke-width="4.17"/></svg>