<svg clip-rule="evenodd" fill-rule="evenodd" stroke-linejoin="round" stroke-miterlimit="2" viewBox="0 0 884 184" xmlns="http://www.w3.org/2000/svg"><path d="m883.333 33.333c0-18.395-14.937-33.333-33.333-33.333h-816.667c-18.395 0-33.333 14.938-33.333 33.333v116.667c0 18.396 14.938 33.333 33.333 33.333h816.667c18.396 0 33.333-14.937 33.333-33.333z" fill="#169c7d" stroke="#169c7d" stroke-width="4.17"/><path d="m251.825 63.446-.004 46.971h5.862v-16.763h11.817c8.821 0 15.104-6.221 15.104-15.008 0-8.95-6.154-15.2-15.041-15.2h-17.742zm5.862 5.208h10.35c6.805 0 10.546 3.546 10.546 9.992 0 6.217-3.871 9.8-10.546 9.8h-10.35zm47.917 42.379c9.992 0 16.179-6.9 16.179-18.162 0-11.296-6.183-18.163-16.179-18.163-9.992 0-16.179 6.867-16.179 18.163 0 11.262 6.187 18.162 16.179 18.162zm0-5.045c-6.642 0-10.383-4.817-10.383-13.117 0-8.333 3.741-13.117 10.383-13.117s10.383 4.784 10.383 13.117c0 8.3-3.741 13.117-10.383 13.117zm66.475-30.663h-5.633l-6.9 28.058h-.521l-7.846-28.058h-5.371l-7.846 28.058h-.52l-6.9-28.058h-5.667l9.833 35.092h5.663l7.812-27.15h.521l7.846 27.15h5.696zm18.846 4.329c5.567 0 9.279 4.104 9.408 10.321h-19.337c.425-6.217 4.333-10.321 9.929-10.321zm9.246 21.679c-1.467 3.092-4.525 4.755-9.05 4.755-5.959 0-9.829-4.396-10.125-11.33v-.258h25.229v-2.15c0-10.904-5.763-17.642-15.233-17.642-9.638 0-15.821 7.159-15.821 18.196 0 11.1 6.087 18.129 15.821 18.129 7.683 0 13.15-3.708 14.779-9.7zm13.512 9.084h5.596v-21.746c0-4.946 3.875-8.529 9.213-8.529 1.108 0 3.125.196 3.583.329v-5.6c-.717-.1-1.892-.163-2.8-.163-4.654 0-8.692 2.409-9.733 5.825h-.521v-5.208h-5.338zm37.075-30.763c5.567 0 9.279 4.104 9.409 10.321h-19.338c.425-6.217 4.333-10.321 9.929-10.321zm9.246 21.679c-1.467 3.096-4.525 4.755-9.05 4.755-5.958 0-9.829-4.396-10.125-11.33v-.258h25.229v-2.15c0-10.904-5.762-17.642-15.233-17.642-9.638 0-15.821 7.159-15.821 18.196 0 11.1 6.088 18.129 15.821 18.129 7.683 0 13.15-3.708 14.779-9.7zm26.5 9.7c4.85 0 9.017-2.308 11.229-6.216h.521v5.6h5.338v-49.025h-5.596v19.466h-.492c-1.983-3.841-6.117-6.15-11-6.15-8.921 0-14.746 7.159-14.746 18.163 0 11.037 5.759 18.162 14.746 18.162zm1.3-31.279c6.35 0 10.321 5.075 10.321 13.117 0 8.104-3.942 13.121-10.321 13.121-6.412 0-10.254-4.917-10.254-13.121 0-8.171 3.875-13.117 10.254-13.117zm60.258 31.279c8.888 0 14.713-7.191 14.713-18.162 0-11.033-5.796-18.163-14.713-18.163-4.816 0-9.083 2.375-11.004 6.15h-.521v-19.466h-5.6v49.025h5.342v-5.6h.521c2.212 3.908 6.379 6.216 11.262 6.216zm-1.304-31.279c6.413 0 10.221 4.913 10.221 13.117s-3.808 13.121-10.221 13.121c-6.379 0-10.35-5.017-10.35-13.121s3.971-13.117 10.35-13.117zm25.167 43.359c6.217 0 9.017-2.409 12.008-10.546l13.709-37.242h-5.959l-9.604 28.875h-.521l-9.633-28.875h-6.054l12.987 35.125-.654 2.083c-1.462 4.23-3.221 5.763-6.442 5.763-.783 0-1.662-.034-2.345-.163v4.784c.783.129 1.758.195 2.508.195zm72.462-12.695 16.242-46.971h-8.95l-11.721 37.171h-.55l-11.816-37.171h-9.28l16.409 46.971zm33.4-29.917c4.85 0 8.042 3.387 8.205 8.658h-16.767c.358-5.208 3.746-8.658 8.562-8.658zm8.267 20.117c-1.171 2.637-3.937 4.104-7.942 4.104-5.304 0-8.725-3.713-8.92-9.638v-.421l24.87.001v-2.605c0-11.233-6.087-17.97-16.241-17.97-10.321 0-16.734 7.195-16.734 18.654 0 11.458 6.317 18.391 16.796 18.391 8.4 0 14.359-4.037 15.821-10.516zm14.779 9.8h8.075v-20.571c0-4.984 3.646-8.238 8.888-8.238 1.366 0 3.512.23 4.133.455v-7.488c-.75-.225-2.183-.354-3.354-.354-4.588 0-8.429 2.604-9.408 6.117l-.55-.001v-5.533h-7.784zm56.254-23.634c-.845-7.487-6.383-12.695-15.529-12.695-10.708-.001-16.991 6.87-16.991 18.424 0 11.721 6.316 18.621 17.025 18.621 9.016 0 14.616-5.012 15.495-12.466h-7.683c-.846 3.708-3.646 5.695-7.846 5.695-5.5.001-8.821-4.362-8.821-11.85 0-7.387 3.288-11.654 8.821-11.654 4.429 0 7.096 2.475 7.846 5.925zm21.321-6.283c4.85 0 8.042 3.387 8.204 8.658h-16.766c.358-5.208 3.746-8.658 8.562-8.658zm8.271 20.117c-1.175 2.637-3.942 4.104-7.946 4.104-5.304 0-8.721-3.713-8.916-9.638v-.421l24.866.001v-2.605c0-11.233-6.087-17.97-16.241-17.97-10.321 0-16.734 7.195-16.734 18.654 0 11.458 6.317 18.391 16.8 18.391 8.396 0 14.354-4.037 15.817-10.516zm15.104 9.8h8.071v-49.384h-8.071z" fill="#005c4c" fill-rule="nonzero"/><path d="m97.188 54.167 38.854 66.666h-77.709z" fill="#005c4c" fill-rule="nonzero"/><path d="m181.25 0v183.333" fill="none" stroke="#005c4c" stroke-linejoin="miter" stroke-miterlimit="4" stroke-width="4.17"/></svg>