<svg clip-rule="evenodd" fill-rule="evenodd" stroke-linejoin="round" stroke-miterlimit="2" viewBox="0 0 2025 505" xmlns="http://www.w3.org/2000/svg"><g fill-rule="nonzero"><path d="m66.296 3.285h368.334c36.25 0 65.833 29.438 65.833 65.833v368.355c0 36.25-29.438 65.812-65.833 65.812h-368.334c-36.25 0-65.833-29.417-65.833-65.812v-368.521c0-36.229 29.417-65.667 65.833-65.667zm188.313 126.329c-78.084 0-141.417 63.25-141.417 141.334 0 78.104 63.333 141.208 141.417 141.208 78.083 0 141.416-63.25 141.416-141.354s-63.187-141.188-141.416-141.188zm0 240.834c-54.979 0-99.646-44.605-99.646-99.5 0-54.896 44.667-99.48 99.646-99.48 55 0 99.65 44.584 99.65 99.48 0 54.895-44.5 99.5-99.65 99.5zm0-178.667v74.167c0 2.125 2.291 3.645 4.25 2.583l65.937-34.125c1.5-.75 1.959-2.583 1.209-4.083-13.667-23.98-39.042-40.355-68.355-41.417-1.52 0-3.041 1.208-3.041 2.875zm-92.35-54.438-8.646-8.645c-4.067-4.07-9.59-6.359-15.344-6.359-5.753 0-11.277 2.289-15.344 6.359l-10.333 10.312c-4.078 4.054-6.374 9.573-6.374 15.323s2.296 11.269 6.374 15.323l8.5 8.5c1.375 1.354 3.354 1.042 4.563-.313 5.014-6.887 10.552-13.378 16.562-19.416 6.061-6.082 12.611-11.656 19.583-16.667 1.517-.917 1.667-3.042.459-4.417zm138.687-22.437v-17.146c-.009-11.902-9.806-21.69-21.708-21.687h-50.604c-11.902-.003-21.699 9.785-21.709 21.687v17.604c0 1.959 1.813 3.334 3.792 2.875 14.315-4.133 29.142-6.223 44.042-6.208 14.437 0 28.729 1.958 42.541 5.75 1.834.458 3.646-.896 3.646-2.875z"/><path d="m998.61 398.462c-97.354.458-97.354-78.563-97.354-91.146l-.166-296.021 59.391-9.417v294.209c0 7.145 0 52.333 38.125 52.479v49.896zm-240.75-48.375c18.225 0 31.75-1.063 41.167-2.875v-60.355c-4.702-1.25-9.474-2.217-14.292-2.895-6.836-1.014-13.738-1.523-20.65-1.521-6.541 0-13.229.458-19.895 1.521-6.688.916-12.771 2.729-18.084 5.312-5.312 2.583-9.729 6.229-12.916 10.917-3.334 4.708-4.855 7.437-4.855 14.562 0 13.938 4.855 22 13.667 27.292 8.813 5.312 20.813 8.042 35.858 8.042zm-5.166-215.355c19.583 0 36.141 2.438 49.516 7.292 13.359 4.854 24.15 11.667 32.042 20.313 8.063 8.791 13.521 20.479 16.858 32.916 3.5 12.438 5.167 26.084 5.167 41.084v152.583c-9.104 1.958-22.942 4.229-41.458 6.958-18.525 2.729-39.334 4.104-62.442 4.104-15.333 0-29.458-1.52-42.062-4.395-12.771-2.875-23.542-7.584-32.667-14.105-8.958-6.52-15.938-14.875-21.104-25.166-5.021-10.334-7.604-24.875-7.604-40.042 0-14.562 2.875-23.812 8.52-33.833 5.75-10 13.5-18.188 23.23-24.563 9.875-6.375 21.104-10.916 34.02-13.646 12.917-2.729 26.438-4.104 40.396-4.104 6.542 0 13.375.459 20.667 1.209 7.146.77 14.896 2.145 23.104 4.104v-9.709c0-6.812-.771-13.333-2.437-19.395-1.602-5.975-4.513-11.519-8.521-16.23-4.104-4.708-9.396-8.354-16.084-10.916-6.687-2.584-15.208-4.563-25.375-4.563-13.666 0-26.125 1.667-37.52 3.646-11.396 1.958-20.813 4.25-27.959 6.813l-7.125-48.667c7.438-2.583 18.521-5.167 32.813-7.729 14.271-2.75 29.625-3.959 46.021-3.959zm1172.96 213.688c18.229 0 31.729-1.063 41.146-2.896v-60.333c-3.333-.917-8.042-1.979-14.271-2.896-6.842-1.014-13.75-1.522-20.667-1.521-6.52 0-13.208.458-19.895 1.521-6.667.917-12.75 2.729-18.063 5.312-5.333 2.584-9.729 6.23-12.917 10.917-3.354 4.708-4.854 7.438-4.854 14.563 0 13.937 4.854 22 13.667 27.291 8.958 5.459 20.812 8.042 35.854 8.042zm-5.021-215.188c19.584 0 36.142 2.417 49.517 7.271 13.354 4.854 24.146 11.667 32.042 20.313 7.895 8.646 13.52 20.479 16.854 32.916 3.5 12.438 5.166 26.084 5.166 41.105v152.562c-9.104 1.958-22.937 4.229-41.458 6.979-18.521 2.729-39.333 4.084-62.437 4.084-15.334 0-29.459-1.521-42.059-4.396-12.771-2.875-23.541-7.584-32.666-14.104-8.959-6.521-15.938-14.875-21.105-25.167-5.02-10.313-7.604-24.875-7.604-40.042 0-14.562 2.896-23.812 8.521-33.833 5.75-10 13.5-18.188 23.229-24.563 9.875-6.354 21.104-10.916 34.021-13.645 12.917-2.73 26.438-4.084 40.417-4.084 6.521 0 13.354.459 20.646 1.209 7.291.75 14.895 2.125 23.083 4.104v-9.709c0-6.833-.75-13.354-2.417-19.416-1.597-5.976-4.508-11.521-8.521-16.229-4.104-4.709-9.395-8.355-16.083-10.917-6.692-2.583-15.208-4.542-25.375-4.542-13.667 0-26.125 1.667-37.521 3.625-11.396 1.979-20.812 4.25-27.958 6.834l-7.125-48.688c7.437-2.583 18.521-5.146 32.812-7.729 14.271-2.583 29.605-3.938 46.021-3.938zm-178.333-28.208c19.892 0 36.167-16.083 36.167-35.958 0-19.854-16.109-35.938-36.167-35.938-20.042 0-36.146 16.084-36.146 35.938 0 19.875 16.25 35.958 36.146 35.958zm29.917 293.438h-59.692v-256l59.687-9.396v265.396zm-104.65 0c-97.355.458-97.355-78.563-97.355-91.146l-.166-296.021 59.396-9.417v294.209c0 7.145 0 52.333 38.125 52.479zm-193.063-131.021c0-25.646-5.625-47.021-16.558-61.875-10.938-15.021-26.271-22.438-45.875-22.438-19.584 0-34.942 7.417-45.859 22.438-10.937 15-16.266 36.229-16.266 61.875 0 25.937 5.479 43.354 16.416 58.375 10.938 15.166 26.271 22.604 45.875 22.604 19.584 0 34.938-7.583 45.875-22.604 10.934-15.167 16.392-32.438 16.392-58.375zm60.75-.146c0 20.021-2.875 35.167-8.808 51.708-5.917 16.521-14.271 30.625-25.042 42.313-10.792 11.666-23.708 20.771-38.9 27.146-15.183 6.354-38.583 10-50.271 10-11.708-.146-34.937-3.48-49.979-10-15.042-6.521-27.958-15.48-38.729-27.146-10.792-11.688-19.142-25.792-25.225-42.313-6.067-16.541-9.104-31.687-9.104-51.708s2.725-39.292 8.808-55.667 14.583-30.333 25.521-42c10.937-11.687 24-20.646 38.875-27 15.042-6.375 31.604-9.396 49.521-9.396 17.937 0 34.479 3.167 49.666 9.396 15.209 6.354 28.275 15.313 38.9 27 10.767 11.667 19.125 25.625 25.209 42 6.375 16.375 9.562 35.646 9.562 55.667zm-447.017 0c0 24.854 5.459 52.458 16.396 63.979 10.938 11.542 25.059 17.292 42.396 17.292 9.417 0 18.375-1.354 26.725-3.938 8.354-2.583 15.025-5.625 20.358-9.25v-147.25c-4.25-.916-22.025-4.562-39.208-5-21.562-.625-37.958 8.188-49.5 22.271-11.4 14.125-17.167 38.833-17.167 61.896zm165.105 117.062c0 40.5-10.334 70.063-31.15 88.875-20.792 18.792-52.542 28.209-95.375 28.209-15.646 0-48.146-3.042-74.125-8.792l9.562-47.021c21.729 4.542 50.438 5.771 65.479 5.771 23.834 0 40.854-4.854 51.021-14.562 10.188-9.709 15.188-24.105 15.188-43.23v-9.708c-5.917 2.875-13.667 5.771-23.23 8.813-9.562 2.875-20.645 4.395-33.125 4.395-16.395 0-31.291-2.583-44.791-7.75-13.521-5.145-25.229-12.729-34.792-22.75-9.562-10-17.167-22.583-22.479-37.604-5.313-15.021-8.063-41.854-8.063-61.562 0-18.5 2.896-41.709 8.525-57.188 5.767-15.458 13.959-28.812 25.059-39.875 10.941-11.062 24.312-19.562 39.958-25.791 15.646-6.209 34-10.146 53.896-10.146 19.312 0 37.083 2.416 54.396 5.312 17.312 2.875 32.041 5.896 44.041 9.229v235.375z"/></g></svg>