
<svg clip-rule="evenodd" fill-rule="evenodd" xmlns="http://www.w3.org/2000/svg" x="0px" y="0px" viewBox="0 0 1213 562">
<g>
	<path class="st0" d="M329.5,491.7c-6.1,0.1-12.2,0-18.2,0c-1.8,0-4.1-0.6-5.4,0.3c-1.3,1-0.3,3.4-0.5,5.2c-0.1,0.5-0.2,1-0.2,1.5
		c-0.3,2.2-1.7,3.1-3.8,3.1c-7.9,0-15.8,0-23.7,0c-1.3,0-2.9-0.1-3.5-1.4c-0.7-1.5-0.3-3.1,0.8-4.4c1.1-1.4,2.3-2.6,3.8-3.6
		c2.5-1.6,5.1-3.1,7.7-4.5c7.7-4.1,15.6-7.9,22.6-13.2c12.1-9.2,18.8-20.9,16.9-36.6c-1.5-12.7-8.3-21.5-19.6-26.8
		c-8.2-3.9-16.8-5.1-25.8-4.1c-8.3,0.9-16.2,3-23.2,7.7c-5.5,3.7-9,8.7-9.4,15.5c-0.2,4.2,0.1,8.3-0.1,12.5c-0.1,1.6,0.5,1.9,2,1.9
		c7.3-0.1,14.7-0.1,22,0c1.9,0,2.1-0.6,2.1-2.3c-0.1-4.8,1.7-7.1,6.2-8.6c2.2-0.7,4.4-0.9,6.6-0.7c6.6,0.6,10.6,5,10.1,11.1
		c-0.2,2.8-1.3,5.4-3,7.8c-2.5,3.5-6,5.9-9.5,8.3c-7.5,4.8-15.6,8.6-22.8,13.9c-7.4,5.4-13.3,11.8-16.3,20.6
		c-2.4,6.9-2,14.1-1.6,21.2c0.2,4.4,1.9,8.3,6.8,9.5c1.8,0.4,3.6,0.7,5.4,0.7c10.6,0,21.2,0,31.7,0c10.8,0,21.7,0,32.5,0
		c7.5,0,11.3-3.9,11.3-11.4c0-7.1,0-14.2,0-21.2C331.4,492,331,491.7,329.5,491.7z"/>
	<path class="st0" d="M132.8,491.7c-6.1,0.1-12.2,0-18.2,0.1c-1.7,0-4-0.6-5.1,0.2c-1.4,1-0.3,3.4-0.5,5.2c-0.1,0.6-0.2,1.1-0.3,1.7
		c-0.3,2-1.6,2.9-3.4,2.9c-8.2,0-16.3,0.1-24.5,0c-3.2,0-4.4-2.3-2.7-5.1c0.6-1,1.5-2,2.4-2.8c2.8-2.6,6.3-4.3,9.6-6.1
		c7.7-4.1,15.6-7.9,22.6-13.2c12-9.2,18.6-20.8,16.8-36.4c-1.5-12.7-8.2-21.5-19.5-26.9c-8.2-3.9-16.7-5.2-25.8-4.1
		c-8.3,1-16.2,3-23.2,7.7c-4.9,3.3-8.3,7.5-9.2,13.5c-0.7,4.7-0.1,9.5-0.3,14.2c-0.1,1.7,0.3,2.2,2.1,2.2c6.6-0.1,13.2,0,19.7,0
		c3.9,0,3.9,0,4.1-3.9c0-0.4,0.1-0.8,0.2-1.2c1.1-4.2,4.5-5.3,8.2-6.2c5.1-1.2,11.3,0.9,13.4,4.9c2.5,4.8,1.2,9.3-1.6,13.5
		c-2.4,3.7-6,6.2-9.7,8.5c-6.9,4.4-14.2,7.9-21,12.5c-8.2,5.6-15,12.4-18.3,22.1c-2.3,6.9-1.9,13.9-1.6,20.9
		c0.2,4.3,1.8,8.3,6.8,9.5c1.8,0.4,3.7,0.8,5.6,0.8c10.6,0,21.2,0,31.7,0c10.7,0,21.3,0,32,0c7.8,0,11.6-3.8,11.7-11.6
		c0-6.9-0.1-13.8,0-20.7C135,492.2,134.6,491.6,132.8,491.7z"/>
	<path class="st0" d="M423.5,501.7c-6.5,0.1-13-0.1-19.5,0.1c-2.5,0.1-3.2-0.5-3.2-3.2c0.1-29.1,0.1-58.3,0-87.4
		c0-1.1,0.7-2.5-1.6-2.5c-7.7,0.1-15.5,0.1-23.2,0c-0.9,0-1.5,0.3-2.2,0.9c-9.8,9.3-19.7,18.6-29.6,27.9c-0.9,0.9-0.8,1.3,0,2.2
		c4.8,5.1,9.6,10.1,14.3,15.3c1,1.1,1.6,0.9,2.5,0.1c3.7-3.6,7.9-6.6,10.9-11.2c-0.1,1.7-0.2,3.4-0.2,5.1c0,16.7,0,33.5,0,50.2
		c0,1.9-0.4,2.5-2.4,2.5c-6.7-0.1-13.5,0-20.2-0.1c-1.5,0-2.2,0.2-2.1,2c0.1,6.9,0.1,13.8,0,20.7c0,1.4,0.3,1.8,1.8,1.8
		c25.1,0,50.1,0,75.2,0c1.4,0,1.8-0.4,1.8-1.8c-0.1-6.9-0.1-13.8,0-20.7C425.7,501.9,425,501.7,423.5,501.7z"/>
	<path class="st0" d="M97.9,330.2c8.7,0,17.3,0.1,26,0c5.8-0.1,9.1-2.4,9.7-8c0.6-5.2,0.1-10.5,0.3-15.7c0-1.1-0.5-1.2-1.4-1.2
		c-2.5,0-5,0-7.5,0c-2,0-4.5-0.9-5.8,0.4c-1.2,1.2-0.3,3.8-0.4,5.8c-0.1,3.7-1.2,4.9-4.9,4.9c-14.8,0-29.7,0-44.5,0
		c-1.2,0-2.4,0-3.7,0c2.2-2.7,4.3-5.1,6.2-7.7c19.5-27.4,39-54.7,58.4-82.1c0.6-0.9,1-1.8,1-3c-0.1-2.3-0.1-4.7,0-7
		c0.1-1.7-0.3-2.3-2.1-2.2c-3.4,0.2-6.8,0-10.2,0c-20.7,0-41.5,0-62.2,0c-5.9,0-9.7,2.8-9.8,7.6c-0.2,5.3,0,10.7-0.1,16
		c0,1.1,0.3,1.4,1.4,1.4c3.8-0.1,7.7-0.1,11.5,0c1.4,0,1.7-0.4,1.6-1.7c-0.1-1.8-0.1-3.7,0-5.5c0.1-2.5,1.4-3.8,3.9-3.8c2,0,4,0,6,0
		c13.1,0,26.3,0,39.6,0c-2.6,3.2-5.4,6.4-7.8,9.8c-17.6,24.8-35.1,49.7-52.9,74.4c-3.4,4.7-5.7,9.3-4.9,15.2
		c0.2,1.9,0.4,2.6,2.6,2.6C64.6,330.2,81.2,330.2,97.9,330.2z"/>
	<path class="st0" d="M244.8,227.8c1.5-0.2,3-0.1,4.5,0c1.7,0.1,2.9,0.9,3.3,2.7c0.2,1.1,0.3,2.1,0.3,3.2c0,31.3,0,62.6,0,94
		c0,2,0.3,2.8,2.5,2.6c3.4-0.2,6.8-0.2,10.2,0c2.2,0.1,2.9-0.4,2.9-2.8c-0.2-9.7-0.1-19.3,0-29c0-2.4-1.1-5.6,0.5-6.9
		c1.3-1.2,4.4-0.3,6.7-0.4c3.9-0.2,6.5,1.5,8.3,5c5,9.5,10.2,18.8,15.4,28.2c1.7,3.1,4.3,5.1,8,5.5c5,0.6,10,0.1,15,0.3
		c1.2,0.1,1.1-0.7,1.1-1.4c0-2.2,0-4.3,0-6.5c0-5.5,0-5.5-5.5-5.5c-3.4,0-5.7-1.2-7.3-4.4c-2.8-5.5-5.7-10.9-8.8-16.3
		c-2.4-4.1-3.9-8.9-8.1-11.4c10.6-11.5,18.6-24.9,28.5-37.4c-5.9,0-11.1,0.1-16.4,0c-1.4,0-2.3,0.5-3.1,1.6
		c-5.8,8.2-11.8,16.4-17.6,24.7c-2,2.8-4.7,4-8,4.2c-1.8,0.1-3.7,0-5.5,0c-3.2,0-3.2,0-3.2-3.3c0-17.5,0-35-0.1-52.5
		c0-4.3-2-6.5-6.2-7.2c-6.2-1-12.5-0.2-18.7-0.5c-1.2-0.1-1,0.8-1,1.5c0,3.2,0.1,6.3,0,9.5C242.3,227.2,242.7,228.1,244.8,227.8z"/>
	<path class="st0" d="M526.5,317.2c-1.1-1.3-3.7-0.4-5.7-0.4c-3.3-0.1-4.4-1.2-4.4-4.6c0-7.8,0.1-15.7,0-23.5
		c-0.1-7.6,0.6-15.3-1-22.9c-1.8-8.4-5.8-15-14.2-18.3c-2.7-1.1-5.5-1.6-8.4-1.9c-13-1.4-24,2.4-32.4,12.8c-1.4,1.7-2.3,3.8-3.8,5.7
		c0-2.9,0.1-5.5,0-8c-0.2-5-2.2-7.4-7.1-8.3c-5.5-1-11.1-0.1-16.7-0.5c-1.8-0.1-2.1,0.6-2,2.1c0.1,2,0,4,0,6c0,5.4,0,5.4,5.4,5.4
		c4.1,0,5.1,1,5.1,5.1c0,20.7,0,41.3-0.1,62c0,2,0.6,2.5,2.5,2.4c3.6-0.1,7.2-0.2,10.7,0c2,0.1,2.7-0.4,2.6-2.5
		c-0.1-12.1-0.1-24.2,0-36.2c0-2.1-0.1-4.2,0.3-6.2c2.2-12.9,9.7-23.4,24.6-25.3c7.8-1,14.6,1.1,17.2,9.1c1.2,3.7,1.4,7.7,1.4,11.5
		c0.1,13.1,0,26.2,0,39.2c0,7.3,3.1,10.4,10.4,10.4c2.7,0,5.5,0.1,8.2,0c2.5-0.1,5.8,1.1,7.2-0.5c1.2-1.3,0.4-4.6,0.4-7
		C526.9,320.9,527.5,318.3,526.5,317.2z"/>
	<path class="st0" d="M537.4,84.5c0,7.9,0,15.8,0,23.7c0,7.4-0.4,14.8,1,22.1c1.2,6.2,3.3,12.1,8.7,15.9c9.1,6.5,19.3,6.8,29.6,3.6
		c8.8-2.7,15.3-8.5,19.8-17.4c0,3.4,0,5.9,0,8.5c0.1,4.6,2.4,7.4,6.9,8.3c5.8,1.1,11.6,0.2,17.4,0.5c1.1,0.1,1.2-0.5,1.2-1.4
		c0-2.2,0-4.3,0-6.5c0-5.6,0-5.6-5.7-5.6c-3.5,0-4.4-0.9-4.4-4.4c0-20.8,0-41.6,0-62.5c0-1.9-0.3-2.8-2.5-2.6
		c-3.7,0.2-7.5,0.2-11.2,0c-1.9-0.1-2.3,0.4-2.3,2.3c0.1,12,0,24,0.1,36c0,3.2-0.3,6.4-1,9.6c-3,13.8-13.6,22.6-27,22.4
		c-5.6-0.1-10-2.1-12.5-7.4c-1.5-3.2-2-6.6-2-10.1c0-14.3,0-28.7,0-43c0-5.6-2.1-8.4-7.4-9.4c-5.8-1-11.6-0.2-17.4-0.4
		c-1.2,0-1.1,0.7-1.1,1.4c0,2-0.1,4,0,6c0.1,2-0.9,4.6,0.4,5.7c1.1,1,3.6,0.3,5.5,0.3C536.5,80.4,537.4,81.3,537.4,84.5z"/>
	<path class="st0" d="M349,326.7c7.7,5.8,16.5,6.5,25.5,4.7c10.6-2.1,18.6-8.1,23.9-18.6c0,2,0,3.3,0,4.6c0,1.3,0,2.7,0,4
		c0.1,4.4,2.5,7.2,6.8,8.2c3.6,0.8,7.3,0.4,10.9,0.4c2.5,0,6,1.1,7.4-0.5c1.3-1.4,0.4-4.7,0.4-7.2c0-5.7,0-5.7-5.6-5.7
		c-3.7,0-4.5-0.8-4.5-4.6c0-20.9,0-41.8,0-62.7c0-1.7-0.3-2.3-2.1-2.2c-3.9,0.2-7.8,0.1-11.7,0c-1.8-0.1-2.2,0.5-2.2,2.2
		c0.1,12.1,0,24.2,0.1,36.2c0,3.3-0.3,6.4-1,9.6c-2.7,12.4-11.9,21-23.8,22.2c-8.1,0.8-13.8-2.2-16.2-8.6c-1.1-3-1.6-6.1-1.5-9.2
		c0-14.2,0.1-28.5,0-42.7c0-6.1-2.6-8.6-7.5-9.3c-3.8-0.6-7.6-0.2-11.5-0.3c-2.2-0.1-5.2-0.8-6.5,0.4c-1.5,1.3-0.4,4.4-0.5,6.7
		c-0.1,2-0.7,4.6,0.2,5.8c1.1,1.5,3.9,0.4,5.9,0.5c2.9,0.2,3.9,1,3.9,3.9c0,9.2,0,18.3,0,27.5c0,6.2-0.1,12.5,1,18.6
		C341.6,317,343.7,322.8,349,326.7z"/>
	<path class="st0" d="M248.3,149.8c1.2,0.1,1.1-0.7,1.1-1.5c0-2.2,0-4.3,0-6.5c0-5.5,0-5.5-5.5-5.5c-3.7,0-4.5-0.8-4.5-4.5
		c0-20.9,0-41.8,0-62.7c0-1.9-0.5-2.4-2.3-2.3c-3.7,0.2-7.5,0.1-11.2,0c-1.9-0.1-2.5,0.3-2.5,2.4c0.1,12,0,24,0.1,36
		c0,3.3-0.3,6.4-1,9.6c-2.8,11.9-11.5,21.2-23.7,22.3c-7.9,0.7-13.4-1.8-16-8c-1.3-3.1-1.8-6.3-1.8-9.7c0-14.2,0-28.5,0-42.7
		c0-5.6-2.1-8.4-7.4-9.3c-5.8-1-11.6-0.2-17.4-0.4c-1.2,0-1.1,0.7-1.1,1.4c0,2,0,4,0,6c0,1.9-0.7,4.4,0.3,5.6
		c1.1,1.3,3.7,0.4,5.7,0.4c3.1,0.1,4,1,4,4c0,7.9,0,15.8,0,23.7c0,7.5-0.4,15,1,22.4c1.2,6.2,3.3,12,8.6,15.9
		c7.7,5.7,16.5,6.4,25.5,4.7c10.7-2.1,18.5-8.2,23.8-18.5c0,3.4-0.1,6.1,0,8.8c0.1,4.3,2.6,7.2,6.7,7.9
		C236.5,150.4,242.5,149.5,248.3,149.8z"/>
	<path class="st0" d="M230.6,316.8c-3.9,0-4.7-0.8-4.7-4.6c0-20.9,0-41.8,0-62.7c0-1.7-0.3-2.3-2.1-2.2c-3.9,0.2-7.8,0.1-11.7,0
		c-1.8-0.1-2.2,0.5-2.2,2.2c0.1,12.1,0,24.2,0.1,36.2c0,3.3-0.3,6.5-1,9.6c-2.9,11.8-11.4,21.3-23.8,22.2c-7.8,0.6-13.2-1.3-16-8.1
		c-1.3-3.1-1.7-6.4-1.8-9.7c0-14.2,0-28.5,0-42.7c0-5.6-2.1-8.4-7.5-9.3c-5.8-1-11.6-0.2-17.4-0.4c-1.2,0-1,0.8-1,1.5
		c0,3.3,0.1,6.7,0,10c-0.1,1.8,0.6,2.1,2.1,2c1.4-0.1,2.8-0.1,4.2,0c2.7,0.1,3.7,1.1,3.7,3.8c0,8.5,0,17,0,25.5
		c0,6.9-0.3,13.8,1,20.6c1.1,6.2,3.3,12,8.5,16c7.7,5.8,16.6,6.6,25.7,4.8c10.7-2.1,18.5-8.2,23.7-18.5c0,2,0,3.3,0,4.6
		c0,1.3,0,2.7,0,4c0.1,4.4,2.5,7.2,6.8,8.2c3.6,0.8,7.1,0.3,10.7,0.4c2.6,0.1,6,0.9,7.5-0.4c1.7-1.5,0.5-5,0.5-7.6
		C236,316.8,235.9,316.8,230.6,316.8z"/>
	<path class="st0" d="M1070.5,291.1c-5.3-3.9-11.3-6.4-17.4-8.9c-5.5-2.2-11.3-3.9-16-7.7c-5.3-4.4-4.7-11.5,1.5-14.4
		c6.1-2.9,12.5-2.8,18.8-0.3c2.1,0.9,3.6,2.5,4.2,4.9c0.4,1.5-0.8,3.6,0.7,4.3c1.3,0.7,3.3,0.2,4.9,0.2c0.5,0,1,0,1.5,0
		c0.2,0,0.5,0,0.7,0c2,0,4.6,0.7,5.8-0.3c1.4-1.2,0.3-3.9,0.5-5.9c0.5-6.4-2.6-11-8.2-13.5c-12.5-5.7-25.2-6-37.7-0.2
		c-14.1,6.7-16.5,23.9-5.2,34.6c5.3,5,11.9,7.6,18.5,10.3c5.3,2.2,10.8,4.1,15.6,7.4c6.8,4.7,4.6,12.7-1,15.6
		c-5.1,2.7-10.6,2.6-16,1.3c-6.7-1.6-12.3-5.2-17.1-10.1c-0.9-1-1.5-1.2-2.3,0c-1.3,1.9-2.8,3.7-4.2,5.5c-3.2,4.3-3.2,4.2,1.1,7.8
		c7,5.8,15,9.2,24,10.2c9.2,1,17.8-0.3,25.7-5.4C1081.3,318.4,1082.5,300,1070.5,291.1z"/>
	<path class="st0" d="M701.2,291.3c-5.3-4.1-11.4-6.5-17.5-9c-5.4-2.2-11.1-3.8-15.7-7.5c-5.7-4.6-4.8-12,1.9-15
		c4.5-2,9.4-2.3,14.1-1.3c6.5,1.3,7.7,2.9,8.4,9.6c0.1,1,0.5,1.2,1.4,1.2c1.8,0,3.7,0,5.5,0c0.2,0,0.5,0,0.8,0
		c2.1-0.1,4.8,0.6,6-0.4c1.3-1.1,0.3-3.9,0.4-6c0.4-6.5-2.7-10.9-8.3-13.5c-12.4-5.6-25-5.8-37.4-0.2c-14.5,6.5-16.1,25.4-5.3,34.8
		c5.5,4.7,12,7.5,18.5,10.3c5.2,2.2,10.6,4.1,15.4,7.3c7.3,4.9,4.5,13.2-1.1,15.9c-5.2,2.5-10.6,2.4-16,1.1
		c-6.4-1.6-11.9-5-16.4-9.7c-1.5-1.6-2.2-1.2-3.2,0.3c-1.2,1.7-2.5,3.3-3.7,5c-3.2,4.3-3.1,4.2,1.1,7.7c7.1,5.9,15.1,9.3,24.3,10.2
		c9.3,1,18-0.4,25.8-5.7C712,317.9,712.7,300,701.2,291.3z"/>
	<path class="st0" d="M397.6,136.8c-5.1,2.7-10.5,2.5-16,1.2c-7.2-1.8-13-5.9-18.2-11.3c-1.9,2.5-3.8,5-5.6,7.4
		c-2.7,3.5-2.7,3.5,0.7,6.5c7.2,6.3,15.4,9.9,24.9,10.9c9.3,1,18-0.3,25.8-5.7c12.2-8.3,13-25.6,1.6-34.8
		c-5.3-4.3-11.5-6.7-17.7-9.2c-5.4-2.2-11.1-3.8-15.7-7.5c-5.7-4.6-4.9-12.1,1.9-14.9c5.7-2.4,11.7-2.5,17.6-0.3
		c2.4,0.9,4.2,2.5,4.9,5.2c0.4,1.5-0.9,3.6,0.9,4.4c1.4,0.6,3.3,0.1,4.9,0.1c0.7,0,1.5,0,2.2,0c1.9,0,4.4,0.6,5.5-0.3
		c1.3-1.1,0.3-3.7,0.4-5.7c0.5-6.7-2.8-11.1-8.6-14c-4.3-2.1-8.8-3-13.5-3.6c-8-1-15.7-0.1-23,3.2c-14.5,6.5-17.4,24.2-5.8,35.1
		c5,4.7,11.2,7.2,17.4,9.8c5.6,2.4,11.4,4.2,16.5,7.8C405,125.5,404.5,133.2,397.6,136.8z"/>
	<path class="st0" d="M581.7,215.5c0-1.2-0.3-1.6-1.6-1.9c-3.7-0.7-7.3-0.4-10.9,0.2c-9.8,1.5-17.7,5.8-21.9,15.2
		c-2.3,5.2-3.1,10.6-2.8,16.2c0.1,1.7-0.4,2.1-2.1,2c-2.2-0.1-4.5,0-6.7,0c-1.2,0-1.8,0.1-1.7,1.6c0.1,3.2,0.1,6.3,0,9.5
		c0,1.3,0.3,1.8,1.7,1.7c2.1-0.1,4.2,0.1,6.2-0.1c2-0.2,2.7,0.4,2.6,2.5c-0.1,10.8-0.1,21.7-0.1,32.5c0,11,0.1,22-0.1,33
		c0,1.9,0.5,2.4,2.3,2.3c3.7-0.2,7.3-0.2,11,0c2.2,0.1,2.5-0.6,2.5-2.6c-0.1-21.7,0-43.3-0.1-65c0-2.3,0.6-2.8,2.8-2.7
		c5,0.2,10,0,15,0.1c1.7,0,2.1-0.5,2.1-2.1c-0.1-2.9-0.2-5.8,0-8.7c0.1-1.8-0.6-2-2.1-2c-3.9,0.1-7.8,0-11.7,0c-6,0-6,0-5.7-5.9
		c0.3-6.3,4.7-12,10.8-13.6c2.8-0.7,5.7-1,8.6-0.6c1.5,0.2,1.9-0.2,1.8-1.7C581.6,222.2,581.6,218.8,581.7,215.5z"/>
	<path class="st0" d="M632.9,316.7c-12,0.6-18.6-5.8-19-16.4c-0.4-12.8-0.1-25.7-0.1-38.5c0-1.4,0.4-1.8,1.8-1.8
		c5.2,0.1,10.5-0.1,15.7,0.1c1.9,0.1,2.4-0.6,2.3-2.4c-0.1-2.8-0.1-5.7,0-8.5c0.1-1.6-0.4-2-2-1.9c-5.3,0.1-10.7,0-16,0.1
		c-1.6,0-1.9-0.4-1.9-1.9c0.1-6.2-0.1-12.3,0.1-18.5c0.1-2.1-0.6-2.5-2.5-2.4c-3.7,0.1-7.3,0.1-11,0c-1.7-0.1-2.1,0.5-2.1,2.1
		c0.1,6.1-0.1,12.2,0.1,18.2c0.1,2.2-0.6,2.7-2.6,2.5c-2.2-0.2-4.5,0-6.7-0.1c-1.2,0-1.8,0.2-1.7,1.6c0.1,3.2,0.1,6.3,0,9.5
		c0,1.3,0.4,1.8,1.7,1.7c2.3-0.1,4.7,0.1,7-0.1c1.6-0.1,2,0.4,1.9,1.9c-0.1,6.5,0,13,0,20.9c0.3,6.3-0.4,14.1,0.4,21.8
		c0.9,8.7,3.9,16.1,11.5,20.9c7.3,4.6,15.4,5.6,23.8,5c1.1-0.1,1.5-0.6,1.5-1.8c-0.1-3.3-0.1-6.7,0-10
		C635.3,316.9,634.8,316.6,632.9,316.7z"/>
	<path class="st0" d="M872.3,246.3c-4.8-0.2-9.4,0.7-13.6,3c-6.9,3.8-11,9.8-13.9,16.9c-0.8-0.8-0.2-1.7-0.3-2.6
		c-0.3-3.1,0.6-6.3-0.5-9.4c-0.7-3.7-2.9-5.9-6.7-6.5c-5.9-0.9-11.8-0.2-17.7-0.5c-1.2-0.1-1.1,0.6-1.1,1.4c0,2.2,0,4.3,0,6.5
		c0,5.6,0,5.6,5.4,5.6c4,0,5,1,5,5c0,20.7,0,41.5,0,62.2c0,1.8,0.4,2.4,2.3,2.3c3.7-0.2,7.5-0.2,11.2,0c1.9,0.1,2.4-0.4,2.4-2.3
		c-0.1-10.7-0.1-21.5,0-32.2c0-7.3,1.1-14.3,4.7-20.8c4.6-8.4,13.9-14.7,24-12.8c1.3,0.2,1.3-0.4,1.3-1.3c0-4-0.1-8,0-12
		C874.8,246.8,873.9,246.4,872.3,246.3z M844.1,264.6c-0.1-1.5-0.1-3.1,0-4.6c0,2,0,4.1,0.1,6.1C843.7,265.7,844.2,265,844.1,264.6z
		"/>
	<path class="st0" d="M887.9,85.3c0,20.7,0,41.5,0,62.2c0,1.8,0.3,2.4,2.3,2.3c3.7-0.2,7.5-0.2,11.2,0c1.8,0.1,2.4-0.4,2.4-2.3
		c-0.1-10.7-0.1-21.3,0-32c0-7.4,1.1-14.5,4.7-21.1c4.6-8.4,13.9-14.7,24-12.8c1.3,0.2,1.3-0.4,1.3-1.3c0-4-0.1-8,0-12
		c0.1-2-0.8-2.4-2.4-2.5c-4.8-0.2-9.4,0.7-13.6,3c-6.9,3.8-11,9.8-13.9,16.9c-0.8-0.8-0.2-1.7-0.3-2.6c-0.3-3.1,0.6-6.3-0.5-9.4
		c-0.7-3.8-2.9-5.9-6.7-6.5c-5.9-0.9-11.8-0.2-17.7-0.5c-1.2-0.1-1.1,0.6-1.1,1.4c0,2.2,0,4.3,0,6.5c0,5.6,0,5.6,5.4,5.6
		C886.8,80.3,887.9,81.3,887.9,85.3z M903.1,79.2c0,2.1,0,4.2,0.1,6.4c-0.5-0.3,0-1.1,0-1.5C903.1,82.5,903.1,80.9,903.1,79.2z"/>
	<path class="st0" d="M652.8,149.8c1.9,0.1,2.4-0.4,2.4-2.3c-0.1-10.7-0.1-21.3,0-32c0-7.3,1.1-14.5,4.7-21
		c4.9-8.8,13.9-14.2,22.7-13c2.5,0.3,2.7-0.3,2.6-2.4c-0.1-3.6-0.2-7.2,0-10.7c0.1-2-0.8-2.4-2.4-2.5c-4.8-0.2-9.4,0.7-13.6,3
		c-6.9,3.8-11,9.8-13.9,16.9h0c-0.7-0.8-0.3-1.7-0.3-2.6c-0.3-3.1,0.6-6.3-0.5-9.4c-0.7-3.7-2.9-5.9-6.7-6.5
		c-5.9-0.9-11.8-0.2-17.7-0.5c-1.2-0.1-1.1,0.6-1.1,1.4c0,2.2,0,4.3,0,6.5c0,5.6,0,5.6,5.4,5.6c4,0,5,1,5,4.9c0,20.7,0,41.5,0,62.2
		c0,1.8,0.3,2.5,2.3,2.4C645.3,149.6,649.1,149.7,652.8,149.8z M654.6,80.1c0,1.2,0,2.3,0,3.5C654.6,82.5,654.6,81.3,654.6,80.1z
		 M654.7,84.2c0,0.5,0,1,0,1.4C654.3,85.3,654.6,84.6,654.7,84.2z"/>
	<path class="st0" d="M1005.2,316.7c-1.7,0.1-3.5,0.1-5.2,0c-2.4-0.1-3.6-1.3-3.6-3.8c0-2.8,0-5.7,0-8.5c0-15.7,0-31.5,0-47.2
		c0-6.1-2.4-9.3-8.2-9.8c-5.5-0.5-11.1-0.1-16.7-0.2c-1.2,0-1.1,0.7-1.1,1.5c0,2.4,0,4.8,0,7.2c0,4.8,0,4.8,4.8,4.8
		c4.8,0,5.7,0.9,5.7,5.6c0,9.2,0,18.3,0,27.5c0,0,0,0,0,0c0,9.3-0.1,18.7,0,28c0,4.5,2.3,7.1,6.7,7.9c5.9,1,12,0.2,17.9,0.5
		c1,0,1.2-0.5,1.2-1.4c0-3.6,0-7.2,0-10.7C1006.7,317,1006.3,316.7,1005.2,316.7z"/>
	<path class="st0" d="M982.4,230.8c3.7-0.1,7.5-0.1,11.2,0c1.2,0,1.6-0.4,1.6-1.6c-0.1-2.2,0-4.5,0-6.7c0-2.2-0.1-4.3,0-6.5
		c0-1.2-0.2-1.8-1.6-1.8c-3.7,0.1-7.5,0.1-11.2,0c-1.2,0-1.5,0.4-1.5,1.6c0.1,4.5,0.1,9,0,13.5C980.8,230.5,981.2,230.8,982.4,230.8
		z"/>
	<path class="st0" d="M216.4,415.4c-10.3-8.3-22.4-9.8-35-7.9c-15.4,2.3-25.2,11.6-30.6,25.9c-4.1,10.9-5.2,22.3-5,34.6
		c-0.3,8.1,0.5,16.8,2.5,25.4c2,8.4,5.2,16.4,11.2,22.8c10.7,11.4,24.3,13.5,38.8,11.3c15.7-2.4,25.2-12.2,30.5-26.8
		c2.9-8.2,4.2-16.8,4.7-25.4c0.8-13,0-25.8-3.8-38.3C227.3,428.5,223.4,420.9,216.4,415.4z M204.4,465.9c-0.1,9.7-0.4,17.8-3,25.6
		c-0.9,2.8-2.1,5.3-4.3,7.4c-4.8,4.7-12.2,4-16.1-1.5c-3.4-4.8-4.3-10.4-5.2-16.1c-0.7-4.4-0.8-9-0.7-13.4c0.1-8.5,0.1-17,3.2-25.2
		c0.8-2.1,1.8-4.1,3.2-5.8c4.9-5.9,13.6-5,17.8,1.8c2.3,3.8,3.4,8,4,12.3C204.1,456.5,204.7,461.9,204.4,465.9z"/>
	<path class="st0" d="M736.1,148.2c7.5-1.2,13.4-5.2,17.7-12.2c0,4.5,0.1,8.4,0,12.3c-0.2,5-1.5,9.8-4.8,13.8
		c-5.1,6-12.1,7.8-19.5,8.2c-8,0.4-15.6-1.4-22.8-4.8c-1.3-0.6-1.9-0.6-2.5,0.9c-1.2,3.1-2.4,6.1-3.8,9.1c-0.7,1.6-0.5,2.2,1.2,2.9
		c11.7,5.1,23.7,7.2,36.5,5c19.9-3.4,31.7-17,31.6-37.2c0-10.5,0-21,0-31.5c0-9.9,0-19.8,0-29.7c0-3.7,1-4.7,4.8-4.7
		c1.3,0,2.7-0.1,4,0c1,0.1,1.5-0.2,1.5-1.4c-0.1-3.6-0.1-7.2,0-10.7c0-1.1-0.3-1.4-1.4-1.4c-5,0.1-10-0.1-15,0.1
		c-5.4,0.2-8,3.1-8.1,8.6c0,0.7,0.4,1.5-0.5,2.1c-1.6-2.5-3.4-4.7-5.8-6.4c-7.8-5.6-16.6-7-25.9-5.8c-11.6,1.4-20.3,7.2-25.7,17.6
		c-6.7,13-7.2,26.7-2.7,40.4C701,142.7,717.6,151.2,736.1,148.2z M713.9,86.3c3.6-4.7,8.4-7.1,14.2-7.5c3.4-0.2,6.8-0.3,10.2,0.6
		c6.4,1.7,11.2,5.6,13.4,11.8c3.8,10.6,3.8,21.3-0.4,31.8c-3.3,8.2-11.2,12.3-20.1,12c-12.8-0.5-20.3-10-22.3-21.4
		c-0.4-2.6-0.5-5.1-0.6-7.7C708.2,98.8,709.5,92.1,713.9,86.3z"/>
	<path class="st0" d="M305.5,147.7c6.8-1.5,12-5.5,15.9-11.7c0,4.7,0.2,9.1-0.1,13.5c-0.3,4.5-1.6,8.7-4.6,12.3
		c-5,6.1-12,7.9-19.4,8.4c-8.1,0.5-15.7-1.4-23-4.7c-1.5-0.7-2.1-0.5-2.6,1c-1.1,3-2.4,5.9-3.7,8.8c-0.8,1.6-0.5,2.3,1.2,3.1
		c11.7,5,23.7,7,36.5,5c19.3-3.1,31.5-17,31.5-36.5c0-11.2,0-22.3,0-33.5c0-9.5,0-19,0-28.5c0-3.5,1.1-4.6,4.6-4.6
		c1.4,0,2.8-0.1,4.2,0c1.1,0.1,1.4-0.4,1.4-1.4c-0.1-3.5-0.1-7,0-10.5c0-1.1-0.2-1.6-1.5-1.6c-4.9,0.1-9.8-0.1-14.7,0.1
		c-4.6,0.1-7.7,2.6-8.2,6.4c-0.2,1.4,0,2.9,0,4.3c-2.4-3.2-4.9-5.8-8.2-7.8c-7.5-4.5-15.5-5.7-24.1-4.6
		c-11.6,1.5-20.4,7.2-25.7,17.5c-6.7,13.1-7.2,26.8-2.7,40.6C268.6,142.9,286.3,152,305.5,147.7z M281.4,86.3c3.5-4.6,8.3-7,14-7.5
		c4.2-0.3,8.3-0.3,12.3,1.1c6.6,2.4,10.6,7.2,12.4,13.8c2.5,9.2,2.4,18.4-0.7,27.6c-5.1,15.6-23.8,16.7-33.4,9.5
		c-6.9-5.2-9.4-12.5-10.2-20.7c-0.1-1.4,0-2.8,0-4.2C275.7,98.8,277,92.1,281.4,86.3z"/>
	<path class="st0" d="M758.6,247.9c-5.9,2.3-10.4,6.4-14.2,11.6c0-1.3,0-2.6,0-3.9c0-4.8-1.7-7-6.5-7.8c-5.8-1-11.6-0.2-17.4-0.5
		c-1.2-0.1-1.1,0.7-1.1,1.5c0,2.2,0,4.3,0,6.5c0,5.5,0,5.5,5.5,5.5c4,0,5,1,5,5c0,29.5,0,59,0,88.5c0,2.4,0.1,4.8,0,7.2
		c-0.1,1.5,0.5,1.8,1.8,1.8c4.1-0.1,8.2-0.1,12.2,0c1.5,0,1.8-0.5,1.8-1.9c0-12.4,0-24.8,0-37.2c0-1.6-0.6-3.2,0-4.9
		c0.4,0.5,0.7,0.7,1,1.1c5.5,7.6,13.3,11.5,22.5,11.8c15.4,0.6,27.2-5.8,34.3-19.7c6.9-13.5,7.1-27.7,2.6-41.9
		C798.8,247.8,776.9,240.9,758.6,247.9z M786.8,309.2c-9.4,13.4-28.8,12.5-36.9-1.7c-3.2-5.5-4.7-11.6-4.6-18.8
		c0-7.2,1.1-14.1,5.4-20c9.4-13.3,28.5-12.7,37.1,1.1C794.6,280.8,794.1,298.7,786.8,309.2z"/>
	<path class="st0" d="M148.3,149.8c1.2,0.1,1.4-0.5,1.3-1.5c0-3.7-0.1-7.3,0-11c0-1.2-0.5-1.5-1.6-1.5c-4.6-0.2-5.1-0.6-6.7-5
		c-11.7-31.7-23.4-63.3-35-95c-0.5-1.4-1.1-2.2-2.8-2c-2.1,0.2-4.3,0-6.5,0c-2.2,0-4.3,0.2-6.5,0c-1.8-0.2-2.4,0.6-3,2.1
		C76,67.5,64.3,99.1,52.8,130.7c-1.3,3.5-3,5.6-7,5.1c-1.4-0.2-1.4,0.6-1.4,1.6c0,3.6,0.1,7.2,0,10.7c0,1.4,0.5,1.6,1.7,1.6
		c2.7-0.1,5.5,0.1,8.2,0c6.7-0.3,9.6-1.6,12-8.1c2.9-7.7,5.7-15.3,8.5-23c0.6-1.8,1.5-2.3,3.4-2.3c12.5,0.1,25,0.1,37.5,0
		c2.1,0,3,0.7,3.7,2.6c2.9,8.2,5.9,16.3,9,24.4c1.3,3.5,3.8,5.5,7.7,6.1C140.2,150,144.3,149.5,148.3,149.8z M111.9,102.8
		c-9.9-0.1-19.8-0.1-29.7-0.1c-0.7,0-1.5,0-2.4,0c5.5-17.3,13-33.8,17-52.1c1.4,5,2.4,9.4,3.9,13.6c4.1,12.1,8.4,24.1,12.7,36.1
		C114.1,102.3,114.2,102.9,111.9,102.8z"/>
	<path class="st0" d="M438.9,53.3c0,28.3,0,56.6,0,85c0,3.2,0.1,6.5,0,9.7c0,1.5,0.4,1.8,1.8,1.8c3.8-0.1,7.7-0.1,11.5,0
		c1.5,0,1.8-0.5,1.7-1.9c-0.1-3.2,0.1-6.4-0.3-9.6c0.7-0.2,0.8,0.3,1,0.6c5.2,7.1,12.1,11.1,20.9,12.4c14.2,2,28.4-4.8,35.3-16.7
		c7.8-13.4,8.5-27.7,4.7-42.2c-4.1-15.4-13.6-25.4-30.1-27.3c-12.6-1.4-23.1,2.5-31,13.2c0-12.2,0-24,0-35.8c0-4.7-2.2-7.4-6.8-8.3
		c-5.7-1.1-11.5-0.1-17.2-0.5c-1.8-0.1-2,0.6-2,2.1c0.1,2.3,0,4.7,0,7c0,4.4,0,4.4,4.4,4.4C438,47.3,438.9,48.1,438.9,53.3z
		 M454.3,108.6c-0.1-6.5,0.8-12.4,3.7-17.7c3.8-7.2,9.8-11.4,17.9-12c9-0.7,16.4,2.7,20.8,10.7c6.8,12.5,6.9,25.3,0,37.8
		c-4.3,7.6-11.4,11.3-20.1,10.9c-9.2-0.4-15.4-5.7-19.2-13.9C455.1,119.2,454.1,113.7,454.3,108.6z"/>
	<path class="st0" d="M1167.8,275c-1.9-10-6.3-18.5-15-24.1c-7.8-5.1-16.5-6.3-25.7-5.1c-13.4,1.8-23.7,8.2-30.3,20.2
		c-5.1,9.3-6.4,19.4-5,29.8c1.5,11.1,6.5,20.3,15.3,27.2c11.5,8.9,24.6,11,38.5,8.2c7.1-1.4,13.5-4.6,19.4-9
		c1.6-1.2,2.6-2.2,0.9-4.3c-1.6-2-2.8-4.3-4-6.5c-1-2-1.8-2.2-3.7-0.7c-8.5,6.6-18.1,9.5-28.9,7.2c-12-2.6-20-12-21.6-24.5
		c-0.2-1.9,0.1-2.7,2.3-2.6c9.2,0.2,18.5,0.1,27.7,0.1c9.4,0,18.8,0,28.2,0c1.7,0,2.2-0.4,2.3-2.2
		C1168.8,284,1168.7,279.5,1167.8,275z M1148.3,279.1c-6.1,0-12.2,0-18.2,0c-6.5,0-13,0-19.5,0c-1.7,0-2.3-0.1-1.8-2.1
		c3.6-15,17.3-21.5,29.6-18.2c8.1,2.2,12,8.4,13.4,16.2C1152.5,279,1152.4,279.1,1148.3,279.1z"/>
	<path class="st0" d="M938.5,248.7c-7.3-3.5-15.1-4.1-23-2.9c-10.2,1.6-18.9,6-25.3,14.3c-8.1,10.3-10.5,22.2-8.9,35.1
		c1.7,13.2,8,23.6,19.3,30.5c8.9,5.5,18.8,7.3,29.3,6.2c9.2-1,17.3-4.5,24.8-9.9c1.6-1.2,2.4-2.1,0.8-4.1c-1.6-2.1-2.9-4.4-4.1-6.8
		c-1-1.9-1.7-2.1-3.5-0.7c-8.6,6.7-18.3,9.6-29.1,7.3c-12-2.6-19.8-11.9-21.5-24.3c-0.3-1.9,0-2.8,2.4-2.8
		c9.2,0.2,18.3,0.1,27.5,0.1c9.5,0,19,0,28.5,0c1.6,0,2-0.4,2.2-2.1c0.3-4.6,0.3-9.1-0.6-13.6C955.1,263.4,949.6,254.1,938.5,248.7z
		 M937.9,279.1c-3.1,0-6.2,0-9.2,0c-3,0-6,0-9,0c-6.5,0-13-0.1-19.5,0.1c-2.1,0-2.2-0.6-1.8-2.4c3.8-15,17.5-21.2,29.5-18
		c7.2,1.9,12.6,8.7,13.5,16.4C941.8,279.1,941.8,279.1,937.9,279.1z"/>
	<path class="st0" d="M805.2,142.4c11,8.5,23.5,10.8,37.1,8.4c7.9-1.4,14.8-4.8,21.3-9.5c1.5-1.1,1.8-2.1,0.6-3.7
		c-1.6-2.1-2.9-4.4-4.1-6.8c-1-2-1.8-2.2-3.7-0.7c-8.6,6.6-18.3,9.6-29.1,7.2c-12.7-2.8-20.2-13-21.4-24.9c-0.2-1.8,0.3-2.2,2.1-2.1
		c9.3,0.1,18.7,0,28,0c9.4,0,18.8,0,28.2,0c1.7,0,2.2-0.4,2.3-2.2c0.3-4.6,0.3-9.1-0.6-13.6c-1.9-9.9-6.2-18.3-14.8-24
		c-7.9-5.2-16.6-6.5-25.9-5.2c-13.4,1.7-23.6,8.2-30.2,20c-5.1,9.3-6.5,19.3-5.1,29.8C791.4,126.2,796.3,135.5,805.2,142.4z
		 M806.8,96.5c3.5-14.9,17.4-21.5,29.5-18.2c7.2,1.9,12.6,8.6,13.5,16.4c0.5,4,0.5,4-3.6,4c-6,0-12,0-18,0c0,0,0,0,0,0
		c-6.6,0-13.1,0-19.7,0C806.8,98.7,806.3,98.4,806.8,96.5z"/>
</g>
</svg>
