<svg clip-rule="evenodd" fill-rule="evenodd" stroke-linejoin="round" stroke-miterlimit="2" viewBox="0 0 828 150" xmlns="http://www.w3.org/2000/svg"><g fill-rule="nonzero"><path d="m797.1 114.2c10 11 20 21.8 30 32.8-.6 0-1 .1-1.3.1-7.4 0-14.8.1-22.2 0-4.2-.1-8.6-.5-12-3.3-2.1-1.7-3.9-3.8-5.7-5.8-3.7-4.1-7.4-8.2-11-12.3-.8-.9-1.5-1.1-2.6-.8-5.7 1.1-11.4 1.5-17.2 1.2-13.7-.7-26.2-4.8-36.9-13.5-10.1-8.2-16.4-18.7-19.5-31.2-1.5-6.1-2.2-12.3-1.9-18.5.6-14.9 5.4-28.3 15.7-39.4 8.8-9.6 19.9-15.2 32.6-17.7 6-1.2 12-1.5 18-1.1 16.3 1 30.5 6.8 41.8 18.8 7.8 8.2 12.4 18.1 14.6 29.2 1 5.1 1.4 10.3 1.2 15.5-1 18.3-7.8 33.9-22.5 45.5-.4-.2-.7.1-1.1.5zm-62.1-55.4c0 5.2 1.5 10 4 14.5 4.9 9.2 12 16.5 19.9 23.1.7.5 1.1.6 1.7 0 3.4-3.2 7-6.3 10.2-9.7 4.5-4.7 8.2-9.9 10.8-15.8 2.4-5.4 3.5-11 2.2-16.9-2.6-12.5-14.1-20.9-26.7-19.7-12.3 1-22.1 11.9-22.1 24.5z"/><path d="m498 126.1c-9.5-.2-18.4-2.3-26.3-7.8-8.9-6.2-13.9-14.9-16.1-25.4-.9-4.6-1.2-9.2-.9-13.8.6-10.4 3.7-19.9 11-27.6 6.1-6.5 13.7-10.3 22.4-11.8 3.7-.6 7.5-1 11.3-.9 11.9.3 22.6 3.8 31 12.8 5.5 5.9 8.7 12.9 10 20.7.5 3.1.9 6.2.9 9.3 0 12.2-3 23.4-11.8 32.4-6.1 6.3-13.7 9.8-22.3 11.2-3.1.5-6.2.6-9.2.9zm-17.4-43.5c-.1 3.7.2 7.7 1.2 11.6 1 3.8 2.4 7.4 5.6 9.8 5.7 4.2 12 4.4 18.4 1.7 4.4-1.9 6.6-5.8 7.9-10.2 1-3.3 1.3-6.7 1.5-10.1.3-5.3 0-10.6-1.3-15.8-1.1-4.4-3.2-8.3-7.4-10.6-3.2-1.7-6.7-2.1-10.3-1.8-6.3.5-10.7 3.5-13 9.3-2.3 5.1-2.7 10.4-2.6 16.1z"/><path d="m122.5 125.9c-9.1 0-17.7-2-25.5-7.1-9.2-6-14.4-14.6-16.8-25.1-1-4.6-1.4-9.3-1.2-14 .6-11.7 4.2-22.2 13-30.3 6.2-5.7 13.6-8.9 21.9-10.1 3.2-.5 6.5-.8 9.8-.7 10.1.2 19.4 2.8 27.4 9.3 7.2 5.9 11.5 13.7 13.4 22.8.9 4.2 1.3 8.4 1.2 12.7-.3 10.6-3.1 20.4-10.1 28.6-5.7 6.7-13 10.7-21.6 12.6-3.8.8-7.6 1.1-11.5 1.6zm-17.5-43.6c0 4.6.4 9.2 1.7 13.6 1.7 5.4 4.9 9.5 10.7 10.9 3.2.8 6.4.9 9.6.1 3.5-.8 6.3-2.6 8.4-5.5 2.4-3.5 3.5-7.4 3.9-11.5.3-4.1.3-8.2.3-12.3 0-3.5-.7-6.9-1.9-10.2-1.7-4.6-4.6-8.1-9.5-9.5-2.4-.7-4.9-.8-7.4-.7-6.7.5-11.1 3.9-13.4 10-2 5-2.4 10-2.4 15.1z"/><path d="m578.7 49.2c.6-.5 1-.8 1.4-1.2 5.3-4.9 11.4-8.1 18.7-9.1 10.5-1.4 21.7 1.5 28.3 11.8 2.7 4.2 4.2 8.9 4.7 13.8.3 3.2.5 6.4.5 9.5v49c0 1.6 0 1.6-1.6 1.6h-21.7c-1.9 0-1.9 0-1.9-1.9v-53.3c0-2.4-.5-4.7-1.7-6.8-2-3.7-6.2-5.7-10.4-5.4-5.2.4-9.5 2.6-13.4 5.8-.7.6-1 1.2-1 2.1v57.6c0 1.7 0 1.7-1.7 1.7h-22.1c-1.1 0-1.4-.3-1.4-1.4v-81.8c0-1.1.3-1.5 1.4-1.4 4.9.1 9.8 0 14.8 0 2.7 0 4.6 1.4 5.5 4 .5 1.9 1 3.5 1.6 5.4z"/><path d="m305.1 75.4c0-4 .4-7.9-1.2-11.6-1.6-3.9-4.7-5.9-8.9-6.3-5.4-.6-10.2.8-14.9 3.3-2.2 1.1-4.5 2.1-6.8 2.8-3.6 1-7-.6-9-3.7-1.5-2.5-2.9-5-4.4-7.5-.5-.8 0-1.1.5-1.5 6.6-5.6 14.1-9.2 22.6-11.1 5.4-1.2 10.8-1.7 16.3-1.4 14.9.9 26.7 9.8 29.7 25.6.5 2.5.7 5 .7 7.5.1 17.2 0 34.4 0 51.6 0 1.6 0 1.6-1.6 1.6h-9.5c-1.2 0-2.3-.1-3.5-.3-2.3-.3-4-1.6-4.9-3.7-.6-1.5-1.2-3-1.8-4.4-.2-.4-.4-.8-.6-1.3-.6.4-1.1.8-1.5 1.1-3.7 3-7.5 5.8-11.9 7.5-5.5 2.2-11.3 2.8-17.2 2.1-2.8-.3-5.6-.9-8.3-1.8-6.4-2.3-10.6-6.9-12.4-13.4-2-6.9-1.4-13.5 2.8-19.6 3-4.3 7.2-7 11.8-9.1 6.1-2.8 12.5-4.6 19.2-5.2 3.5-.4 7.1-.5 10.6-.8 1.4-.2 2.7-.2 4.2-.4zm0 20.9c0-1.6-.1-3.3 0-4.9 0-1-.3-1.3-1.2-1.2-3.8.3-7.7.5-11.5 1.1-3.4.5-6.7 1.5-9.6 3.6-3.2 2.3-3.8 5.5-3.1 9.2.7 3.2 2.9 4.7 5.9 5.1 7.5 1.2 13.9-1.1 19.1-6.6.3-.3.4-.9.4-1.3z"/><path d="m3 123.1v-116c0-1.6 0-1.6 1.6-1.6h24.2c1.6 0 1.6 0 1.6 1.6v93.8c0 1.9 0 1.9 1.9 1.9h40.7c1.6 0 1.6 0 1.6 1.6v18.8c0 1.1-.3 1.5-1.5 1.5h-68.6c-1.3 0-1.5-.4-1.5-1.6z"/><path d="m378.1 40.1h19.4c1.1 0 1.4.3 1.3 1.4v14.4c0 1.1-.3 1.4-1.4 1.4h-17.8c-1.2 0-1.6.3-1.6 1.6v41.6c0 4 2.4 6.3 6.4 6.2.9 0 1.9-.4 2.8-.7.5-.2 1-.5 1.5-.7 1.9-.9 3.3-.6 4.4 1.1 2.6 3.9 5.1 7.9 7.7 11.9.5.7 0 1-.5 1.3-4.4 3-9.3 5-14.6 5.8-3.3.5-6.8.8-10.1.7-11.2-.5-20.4-6.4-22.3-19.4-.3-2-.4-4-.4-5.9v-41.7c0-1.6 0-1.6-1.7-1.7h-5.4c-3 0-4.8-1.6-4.9-4.7-.1-3 0-6 0-9 0-.7.3-1 1-1.1 3.7-.7 7.4-1.4 11-2.1 1.1-.2 1.7-.6 2-1.8 1.5-6.3 3-12.6 4.5-18.8.7-3.1 2.3-4.3 5.5-4.3h11.9c1.1 0 1.4.3 1.3 1.4z"/><path d="m174.3 82.9c.1-9.4 1.7-17.6 6.1-25.1 5.9-10.1 14.9-16 26.2-18.1 3.6-.7 7.3-1 10.9-1 11.2 0 21.1 3.7 29.2 11.5.7.7.7 1.1.1 1.9-2 2.6-4 5.2-5.9 7.8-2.5 3.3-5.4 3.9-9 1.7-2.9-1.7-5.7-3.5-9-4.1-7.3-1.3-13.9 0-18.3 5.9-2.2 3-3.3 6.4-3.9 9.9-1.1 6.8-1.1 13.6.7 20.3 1.5 5.5 4.2 10.2 9.7 12.5 6.3 2.6 12.5 1.9 18.2-2.1 1.1-.8 2.1-1.5 3.2-2.4 2.1-1.7 6.9-1.9 8.7 1.1.7 1.2 1.8 2.2 2.6 3.3 1.2 1.5 2.4 3.1 3.7 4.6.7.7.6 1.2-.1 1.9-6 6.5-13.3 10.4-21.9 12.3-4.9 1.1-10 1.6-15 1.1-14.7-1.3-25.4-8.7-31.8-22.1-2.6-5.4-3.9-11-4.2-16.9-.1-1.7-.2-3.2-.2-4z"/><path d="m653.1 123.1v-115.9c0-1.7 0-1.7 1.7-1.7h24.4c1.1 0 1.4.3 1.4 1.4v116.3c0 1.1-.3 1.4-1.4 1.4h-24.6c-1.2 0-1.5-.3-1.5-1.5z"/><path d="m439.5 82.4v40.7c0 1.6 0 1.6-1.6 1.6h-22.2c-1.1 0-1.5-.2-1.5-1.4v-81.9c0-1.1.3-1.3 1.4-1.3h22.4c1.2 0 1.5.4 1.4 1.5.1 13.6.1 27.2.1 40.8z"/><path d="m427.2 1.9c6.8-.3 14 4.8 15.1 12.5.8 5.8-1.4 10.5-6.1 13.8-9.6 6.8-21.3 1.1-23.6-8.3-2.5-10 6-18.5 14.6-18z"/><path d="m772.5 56.8c0 7.1-5.5 12.6-12.6 12.6-7 0-12.6-5.6-12.6-12.7 0-6.9 5.7-12.6 12.7-12.6 6.9 0 12.5 5.6 12.5 12.7z"/></g></svg>