<svg clip-rule="evenodd" fill-rule="evenodd" stroke-linejoin="round" stroke-miterlimit="2" viewBox="0 0 525 650" xmlns="http://www.w3.org/2000/svg"><path d="m.72.586h524.233v648.456h-524.233z" fill="none"/><path d="m298.542 553.776 42.868-45.526c6.01-6.383 14.425-9.948 23.191-9.824 8.767.123 17.078 3.923 22.906 10.473l41.966 47.163 41.965-47.163 46.692 41.547-65.311 73.4c-5.93 6.664-14.426 10.476-23.346 10.476-8.921 0-17.416-3.812-23.346-10.476l-42.618-47.896-41.908 44.508c-5.855 6.217-13.999 9.768-22.539 9.826s-16.732-3.381-22.671-9.519l-42.505-43.93-42.871 45.69c-5.847 6.232-13.99 9.797-22.535 9.867-8.545.069-16.746-3.364-22.693-9.5l-42.52-43.868-42.889 45.65-45.55-42.795 65.311-69.516c5.849-6.225 13.991-9.785 22.532-9.852 8.542-.066 16.738 3.366 22.683 9.5l42.505 43.853 42.89-45.711c5.85-6.235 13.999-9.801 22.549-9.867 8.549-.065 16.753 3.375 22.698 9.519z" fill="#7adfb5"/><path d="m195.369 67.284c33.948-32.798 74.138-53.673 120.511-53.673 74.726 0 118.808 52.315 142.517 121.935 38.24 112.289 22.455 269.256 22.455 269.256-1.119 10.934-10.329 19.249-21.32 19.249h-105.53c-6.143 0-11.991-2.637-16.059-7.24-4.068-4.604-5.965-10.732-5.209-16.829 0 0 10.974-87.873 2.615-157.346-2.568-21.346-6.756-40.869-14.445-54.548-3.857-6.863-8.26-12.284-15.416-12.284-9.042 0-16.885 6.313-24.762 14.707-12.552 13.376-23.795 32.642-33.902 53.929-25.844 54.431-43.587 121.918-50.297 149.762l.061-1.077c.79-19.089 1.461-59.001.739-142.46 7.591-18.497 16.049-36.439 25.249-52.247 11.362-19.523 23.961-35.934 37.258-47.095 14.331-12.029 29.764-18.38 45.654-18.38 33.92 0 57.488 29.79 67.624 75.745 12.172 55.183 7.852 133.481 4.527 172.501h62.085c2.74-43.143 5.908-150.169-21.9-231.826-17.434-51.193-46.996-92.89-101.944-92.89-49.456 0-88.454 32.149-119.798 75.17z" fill="#ff8b86" fill-opacity=".85"/><path d="m95.58 372.702-.284-142.873.015-.037c12.234-33.528 29.851-68.454 52.716-103.855l7.555-11.258v85.518c-31.168 63.818-50.44 132.557-59.975 172.399z" fill="#e79f2a"/><path d="m155.582 200.197v180.992l-62.051.027c.661-2.746.673-2.77 2.076-8.623 9.544-39.828 28.804-108.577 59.975-172.396zm0-85.518-7.555 11.258c-22.867 35.403-40.499 70.37-52.731 103.892l-.324-163.109h60.61z" fill="#f4f651"/><path d="m197.224 234.85.103 15.815c-20.624 49.931-35.127 103.863-41.71 130.524h-.035v-180.992c8.536-17.627 18.019-34.856 28.449-51.004 3.883-6.012 7.893-11.884 12.051-17.55zm-144.029 138.329v-334.125c0-7.732 7.168-14.001 16.009-14.001h109.843c8.761 0 15.895 6.159 16.008 13.821l.314 28.41c-14.39 13.884-27.655 29.906-39.787 47.395v-47.959h-60.61s.324 163.109.324 163.109c-24.647 55.848-36.163 106.65-42.101 143.35z" fill="#6396dc"/><path d="m93.522 381.189h62.095c6.583-26.661 21.086-80.593 41.71-130.524.722 83.459.051 123.371-.739 142.46l-.061 1.077-.038.874c-.388 8.872-.836 13.103-1.143 15.122-.405 2.66-.892 3.822-1.106 4.353-1.304 3.237-2.744 4.339-3.306 4.882-2.629 2.541-4.711 3.164-5.643 3.509-1.65.611-2.765.782-3.286.868-.652.107-1.062.143-1.225.159-.092.008-1.2.082-1.733.082h-109.843c-8.841 0-16.009-6.269-16.009-14.001v-36.871c5.936-37.034 17.448-87.553 42.101-143.35l.284 142.873zm101.847-313.905.713 64.359c-4.158 5.666-8.168 11.538-12.051 17.55-10.43 16.148-19.913 33.377-28.449 51.004v-85.518c12.14-17.484 25.401-33.511 39.787-47.395z" fill="#636690"/></svg>