<svg fill-rule="evenodd" stroke-linejoin="round" stroke-miterlimit="2" clip-rule="evenodd" viewBox="0 0 3684 834" xmlns="http://www.w3.org/2000/svg"><path fill-rule="nonzero" d="M1836.46 208.333c-143.75 0-247.4 93.75-247.4 234.375s116.67 234.375 260.42 234.375c86.85 0 163.41-34.375 210.81-92.316l-99.61-57.554c-26.3 28.779-66.28 45.575-111.2 45.575-62.37 0-115.37-32.555-135.02-84.638h364.84c2.86-14.583 4.56-29.688 4.56-45.571 0-140.496-103.65-234.246-247.4-234.246zm-123.18 188.805c16.28-51.955 60.81-84.638 123.05-84.638 62.37 0 106.9 32.683 123.05 84.638h-246.1zm1525.26-188.805c-143.75 0-247.4 93.75-247.4 234.375s116.67 234.375 260.42 234.375c86.85 0 163.41-34.375 210.81-92.316l-99.61-57.554c-26.3 28.779-66.28 45.575-111.2 45.575-62.37 0-115.36-32.555-135.02-84.638h364.84c2.86-14.583 4.56-29.687 4.56-45.571 0-140.496-103.65-234.246-247.4-234.246zm-123.05 188.805c16.28-51.955 60.81-84.638 123.05-84.638 62.37 0 106.9 32.683 123.05 84.638h-246.1zm-508.2 45.57c0 78.125 51.04 130.209 130.21 130.209 53.64 0 93.88-24.35 114.58-64.063l100 57.684c-41.41 69.008-119.01 110.545-214.58 110.545-143.88 0-247.4-93.75-247.4-234.375s103.65-234.375 247.4-234.375c95.57 0 173.05 41.538 214.58 110.546l-100 57.684c-20.7-39.713-60.94-64.063-114.58-64.063-79.04 0-130.21 52.083-130.21 130.208zM3681.25 65.104v598.959h-117.19V65.104h117.19zM481.121 0l481.117 833.333H0L481.121 0zM1683.98 65.104l-360.81 625-360.801-625h135.281l225.52 390.625 225.52-390.625h135.29zm767.06 156.25v126.171c-13.02-3.775-26.82-6.379-41.67-6.379-75.65 0-130.21 52.083-130.21 130.208v192.709h-117.18V221.354h117.18v119.792c0-66.146 76.96-119.792 171.88-119.792z"/></svg>